<svg width="190" height="327" viewBox="0 0 190 327" fill="none" xmlns="http://www.w3.org/2000/svg">
<path d="M12.4082 0.5V12.5M9.74154 0.5H19.0749C19.8113 0.5 20.4082 1.09695 20.4082 1.83333V11.1667C20.4082 11.903 19.8113 12.5 19.0749 12.5H9.74154C9.00516 12.5 8.4082 11.903 8.4082 11.1667V1.83333C8.4082 1.09695 9.00516 0.5 9.74154 0.5Z" stroke="#717489" stroke-linecap="round" stroke-linejoin="round"/>
<path d="M8.08768 61.1177V53.3077H10.7717C11.6957 53.3077 12.3887 53.4763 12.8507 53.8137C13.3127 54.151 13.5437 54.6827 13.5437 55.4087C13.5437 55.746 13.4704 56.043 13.3237 56.2997C13.177 56.5563 12.968 56.758 12.6967 56.9047C12.4254 57.044 12.1027 57.1137 11.7287 57.1137L11.7177 57.0477C12.385 57.0477 12.9094 57.2273 13.2907 57.5867C13.6794 57.9387 13.8737 58.4007 13.8737 58.9727C13.8737 59.684 13.6427 60.2193 13.1807 60.5787C12.7187 60.938 12.0624 61.1177 11.2117 61.1177H8.08768ZM9.03368 60.1937H11.2117C11.747 60.1937 12.1577 60.0837 12.4437 59.8637C12.737 59.6437 12.8837 59.3283 12.8837 58.9177C12.8837 58.507 12.737 58.188 12.4437 57.9607C12.1577 57.726 11.747 57.6087 11.2117 57.6087H9.03368V60.1937ZM9.03368 56.6847H10.7717C11.3437 56.6847 11.7837 56.5783 12.0917 56.3657C12.3997 56.1457 12.5537 55.8413 12.5537 55.4527C12.5537 55.042 12.4034 54.7377 12.1027 54.5397C11.8094 54.3343 11.3657 54.2317 10.7717 54.2317H9.03368V56.6847ZM15.3463 61.1177V53.3077H16.2703V58.4227L19.1083 55.2877H20.3403L18.0413 57.7627L20.4393 61.1177H19.3173L17.4143 58.3897L16.2703 59.5997V61.1177H15.3463ZM22.5919 61.1177C22.2545 61.1177 21.9795 61.0297 21.7669 60.8537C21.5542 60.6777 21.4479 60.399 21.4479 60.0177V53.3077H22.3719V59.9407C22.3719 60.058 22.4012 60.1497 22.4599 60.2157C22.5259 60.2743 22.6175 60.3037 22.7349 60.3037H23.2409V61.1177H22.5919ZM24.2946 61.1177V55.2877H25.2186V61.1177H24.2946ZM24.2726 54.3747V53.2967H25.2406V54.3747H24.2726ZM28.6737 61.1177C28.1457 61.1177 27.7533 60.9967 27.4967 60.7547C27.2473 60.5127 27.1227 60.135 27.1227 59.6217V53.9237H28.0467V59.5997C28.0467 59.8637 28.1053 60.047 28.2227 60.1497C28.34 60.2523 28.5197 60.3037 28.7617 60.3037H29.5977V61.1177H28.6737ZM26.2647 56.1017V55.2877H29.5977V56.1017H26.2647ZM33.7293 61.1177V53.3077H36.5343C37.407 53.3077 38.0853 53.5167 38.5693 53.9347C39.0533 54.3527 39.2953 54.932 39.2953 55.6727C39.2953 56.1713 39.1853 56.604 38.9653 56.9707C38.7453 57.33 38.43 57.605 38.0193 57.7957C37.6086 57.9863 37.1136 58.0817 36.5343 58.0817H34.6753V61.1177H33.7293ZM34.6753 57.1577H36.5343C37.121 57.1577 37.561 57.033 37.8543 56.7837C38.155 56.5343 38.3053 56.164 38.3053 55.6727C38.3053 55.196 38.155 54.8367 37.8543 54.5947C37.561 54.3527 37.121 54.2317 36.5343 54.2317H34.6753V57.1577ZM41.8956 61.1177C41.5582 61.1177 41.2832 61.0297 41.0706 60.8537C40.8579 60.6777 40.7516 60.399 40.7516 60.0177V53.3077H41.6756V59.9407C41.6756 60.058 41.7049 60.1497 41.7636 60.2157C41.8296 60.2743 41.9212 60.3037 42.0386 60.3037H42.5446V61.1177H41.8956ZM45.2572 61.2497C44.6559 61.2497 44.1755 61.1103 43.8162 60.8317C43.4642 60.553 43.2882 60.1643 43.2882 59.6657C43.2882 59.167 43.4349 58.7747 43.7282 58.4887C44.0215 58.2027 44.4872 58.001 45.1252 57.8837L47.1932 57.4987C47.1932 57.0073 47.0759 56.6407 46.8412 56.3987C46.6139 56.1567 46.2692 56.0357 45.8072 56.0357C45.4039 56.0357 45.0849 56.1273 44.8502 56.3107C44.6155 56.4867 44.4542 56.7433 44.3662 57.0807L43.3872 57.0037C43.4972 56.4537 43.7612 56.01 44.1792 55.6727C44.6045 55.328 45.1472 55.1557 45.8072 55.1557C46.5552 55.1557 47.1272 55.3683 47.5232 55.7937C47.9192 56.2117 48.1172 56.791 48.1172 57.5317V59.9407C48.1172 60.0727 48.1392 60.168 48.1832 60.2267C48.2345 60.278 48.3152 60.3037 48.4252 60.3037H48.6562V61.1177C48.6269 61.125 48.5792 61.1287 48.5132 61.1287C48.4472 61.136 48.3775 61.1397 48.3042 61.1397C48.0402 61.1397 47.8239 61.0993 47.6552 61.0187C47.4939 60.9307 47.3765 60.7987 47.3032 60.6227C47.2299 60.4393 47.1932 60.201 47.1932 59.9077L47.3032 59.9297C47.2519 60.179 47.1272 60.4063 46.9292 60.6117C46.7312 60.8097 46.4855 60.9673 46.1922 61.0847C45.8989 61.1947 45.5872 61.2497 45.2572 61.2497ZM45.3452 60.4357C45.7339 60.4357 46.0639 60.3623 46.3352 60.2157C46.6139 60.0617 46.8265 59.8563 46.9732 59.5997C47.1199 59.3357 47.1932 59.0423 47.1932 58.7197V58.3017L45.3012 58.6537C44.9052 58.727 44.6302 58.8407 44.4762 58.9947C44.3295 59.1413 44.2562 59.3357 44.2562 59.5777C44.2562 59.849 44.3515 60.0617 44.5422 60.2157C44.7402 60.3623 45.0079 60.4357 45.3452 60.4357ZM49.7272 62.7677V61.9537H50.3982C50.6036 61.9537 50.7539 61.9207 50.8492 61.8547C50.9519 61.796 51.0289 61.697 51.0802 61.5577L51.2892 61.0077H50.9702L48.8362 55.2877H49.8482L51.5862 60.1497L53.2472 55.2877H54.2592L51.8942 61.8547C51.7842 62.17 51.6192 62.401 51.3992 62.5477C51.1792 62.6943 50.8749 62.7677 50.4862 62.7677H49.7272ZM57.3034 62.8997C56.8854 62.8997 56.5077 62.83 56.1704 62.6907C55.8331 62.5513 55.5507 62.3533 55.3234 62.0967C55.0961 61.84 54.9421 61.543 54.8614 61.2057L55.8294 61.1397C55.9174 61.411 56.0714 61.6237 56.2914 61.7777C56.5187 61.939 56.8561 62.0197 57.3034 62.0197C57.8314 62.0197 58.2347 61.9133 58.5134 61.7007C58.7994 61.488 58.9424 61.169 58.9424 60.7437V59.7977C58.8031 60.1057 58.5794 60.3513 58.2714 60.5347C57.9634 60.718 57.6187 60.8097 57.2374 60.8097C56.7461 60.8097 56.3061 60.6887 55.9174 60.4467C55.5361 60.2047 55.2354 59.871 55.0154 59.4457C54.8027 59.0203 54.6964 58.5327 54.6964 57.9827C54.6964 57.4253 54.8027 56.9377 55.0154 56.5197C55.2281 56.0943 55.5214 55.7607 55.8954 55.5187C56.2767 55.2767 56.7094 55.1557 57.1934 55.1557C57.6041 55.1557 57.9707 55.251 58.2934 55.4417C58.6234 55.6323 58.8544 55.889 58.9864 56.2117V55.2877H59.8664V60.7217C59.8664 61.1763 59.7637 61.565 59.5584 61.8877C59.3531 62.2177 59.0597 62.467 58.6784 62.6357C58.2971 62.8117 57.8387 62.8997 57.3034 62.8997ZM57.2814 59.9297C57.7801 59.9297 58.1797 59.7573 58.4804 59.4127C58.7811 59.0607 58.9351 58.584 58.9424 57.9827C58.9497 57.5793 58.8837 57.2347 58.7444 56.9487C58.6124 56.6553 58.4181 56.4317 58.1614 56.2777C57.9121 56.1163 57.6187 56.0357 57.2814 56.0357C56.7681 56.0357 56.3684 56.2117 56.0824 56.5637C55.8037 56.9083 55.6644 57.3813 55.6644 57.9827C55.6644 58.584 55.8074 59.0607 56.0934 59.4127C56.3867 59.7573 56.7827 59.9297 57.2814 59.9297ZM61.6237 61.1177V55.2877H62.4377L62.4817 56.7617L62.3937 56.7287C62.467 56.23 62.6247 55.867 62.8667 55.6397C63.116 55.405 63.446 55.2877 63.8567 55.2877H64.4287V56.1677H63.8677C63.5743 56.1677 63.3287 56.2227 63.1307 56.3327C62.94 56.4353 62.7933 56.593 62.6907 56.8057C62.5953 57.011 62.5477 57.275 62.5477 57.5977V61.1177H61.6237ZM67.6282 61.2497C67.0929 61.2497 66.6235 61.125 66.2202 60.8757C65.8169 60.6263 65.5052 60.2743 65.2852 59.8197C65.0652 59.3577 64.9552 58.8187 64.9552 58.2027C64.9552 57.5793 65.0652 57.0403 65.2852 56.5857C65.5052 56.131 65.8169 55.779 66.2202 55.5297C66.6235 55.2803 67.0929 55.1557 67.6282 55.1557C68.1635 55.1557 68.6292 55.2803 69.0252 55.5297C69.4285 55.779 69.7402 56.131 69.9602 56.5857C70.1802 57.0403 70.2902 57.5793 70.2902 58.2027C70.2902 58.8187 70.1802 59.3577 69.9602 59.8197C69.7402 60.2743 69.4285 60.6263 69.0252 60.8757C68.6292 61.125 68.1635 61.2497 67.6282 61.2497ZM67.6282 60.3697C68.1635 60.3697 68.5779 60.179 68.8712 59.7977C69.1719 59.409 69.3222 58.8773 69.3222 58.2027C69.3222 57.528 69.1719 57 68.8712 56.6187C68.5779 56.23 68.1635 56.0357 67.6282 56.0357C67.0929 56.0357 66.6749 56.23 66.3742 56.6187C66.0735 57 65.9232 57.528 65.9232 58.2027C65.9232 58.8773 66.0735 59.409 66.3742 59.7977C66.6749 60.179 67.0929 60.3697 67.6282 60.3697ZM73.4634 61.2497C72.8841 61.2497 72.4184 61.0553 72.0664 60.6667C71.7218 60.2707 71.5494 59.728 71.5494 59.0387V55.2877H72.4734V58.7857C72.4734 59.3503 72.5724 59.7683 72.7704 60.0397C72.9758 60.3037 73.2874 60.4357 73.7054 60.4357C74.1674 60.4357 74.5304 60.289 74.7944 59.9957C75.0584 59.695 75.1904 59.2843 75.1904 58.7637V55.2877H76.1144V61.1177H75.2344V59.6767L75.3774 59.7537C75.2601 60.2303 75.0364 60.6007 74.7064 60.8647C74.3764 61.1213 73.9621 61.2497 73.4634 61.2497ZM77.8766 61.1177V55.2877H78.7236L78.7566 56.7727L78.6466 56.6737C78.7199 56.329 78.8482 56.0467 79.0316 55.8267C79.2149 55.5993 79.4349 55.4307 79.6916 55.3207C79.9556 55.2107 80.2379 55.1557 80.5386 55.1557C80.9859 55.1557 81.3526 55.2547 81.6386 55.4527C81.9319 55.6507 82.1482 55.9183 82.2876 56.2557C82.4342 56.5857 82.5076 56.956 82.5076 57.3667V61.1177H81.5836V57.6307C81.5836 57.2713 81.5396 56.9707 81.4516 56.7287C81.3709 56.4793 81.2389 56.2923 81.0556 56.1677C80.8722 56.0357 80.6339 55.9697 80.3406 55.9697C79.8932 55.9697 79.5229 56.1127 79.2296 56.3987C78.9436 56.6773 78.8006 57.088 78.8006 57.6307V61.1177H77.8766ZM86.2073 61.2497C85.7013 61.2497 85.2613 61.125 84.8873 60.8757C84.5206 60.6263 84.2383 60.2743 84.0403 59.8197C83.8423 59.365 83.7433 58.826 83.7433 58.2027C83.7433 57.5793 83.8423 57.0403 84.0403 56.5857C84.2383 56.131 84.5206 55.779 84.8873 55.5297C85.2613 55.2803 85.7013 55.1557 86.2073 55.1557C86.5959 55.1557 86.9516 55.24 87.2743 55.4087C87.5969 55.57 87.8389 55.801 88.0003 56.1017V53.3077H88.9243V61.1177H88.0883L88.0553 60.2377C87.8939 60.553 87.6483 60.8023 87.3183 60.9857C86.9883 61.1617 86.6179 61.2497 86.2073 61.2497ZM86.3943 60.3697C86.7389 60.3697 87.0286 60.2817 87.2633 60.1057C87.5053 59.9297 87.6886 59.6803 87.8133 59.3577C87.9379 59.0277 88.0003 58.6427 88.0003 58.2027C88.0003 57.748 87.9379 57.3593 87.8133 57.0367C87.6886 56.714 87.5053 56.4683 87.2633 56.2997C87.0286 56.1237 86.7389 56.0357 86.3943 56.0357C85.8809 56.0357 85.4703 56.23 85.1623 56.6187C84.8616 57 84.7113 57.528 84.7113 58.2027C84.7113 58.87 84.8616 59.398 85.1623 59.7867C85.4703 60.1753 85.8809 60.3697 86.3943 60.3697Z" fill="#4C4E5B"/>
<rect y="72.2642" width="189.953" height="28.9111" rx="5" fill="#16171D"/>
<path d="M37.4342 91.7407C36.5589 91.7407 35.8049 91.55 35.1722 91.1687C34.5482 90.7787 34.0672 90.224 33.7292 89.5047C33.3912 88.7854 33.2222 87.9274 33.2222 86.9307C33.2222 85.934 33.3912 85.076 33.7292 84.3567C34.0672 83.6287 34.5482 83.0697 35.1722 82.6797C35.8049 82.2897 36.5589 82.0947 37.4342 82.0947C38.3182 82.0947 39.0722 82.2897 39.6962 82.6797C40.3289 83.0697 40.8142 83.6287 41.1522 84.3567C41.4902 85.076 41.6592 85.934 41.6592 86.9307C41.6592 87.9274 41.4902 88.7854 41.1522 89.5047C40.8142 90.224 40.3289 90.7787 39.6962 91.1687C39.0722 91.55 38.3182 91.7407 37.4342 91.7407ZM37.4342 90.6487C38.0755 90.6487 38.6215 90.5014 39.0722 90.2067C39.5315 89.912 39.8825 89.4874 40.1252 88.9327C40.3679 88.378 40.4892 87.7107 40.4892 86.9307C40.4892 86.1507 40.3679 85.4834 40.1252 84.9287C39.8825 84.3654 39.5315 83.9364 39.0722 83.6417C38.6215 83.3384 38.0755 83.1867 37.4342 83.1867C36.8015 83.1867 36.2555 83.3384 35.7962 83.6417C35.3455 83.9364 34.9989 84.3654 34.7562 84.9287C34.5135 85.4834 34.3922 86.1507 34.3922 86.9307C34.3922 87.7107 34.5135 88.378 34.7562 88.9327C34.9989 89.4874 35.3455 89.912 35.7962 90.2067C36.2555 90.5014 36.8015 90.6487 37.4342 90.6487ZM44.8521 91.5327L42.3431 84.6427H43.5391L45.5411 90.4147L47.5431 84.6427H48.7391L46.2301 91.5327H44.8521ZM52.4151 91.6887C51.7651 91.6887 51.2017 91.5414 50.7251 91.2467C50.2571 90.952 49.8931 90.536 49.6331 89.9987C49.3817 89.4527 49.2561 88.8157 49.2561 88.0877C49.2561 87.3597 49.3817 86.727 49.6331 86.1897C49.8931 85.6524 50.2527 85.2364 50.7121 84.9417C51.1801 84.6384 51.7304 84.4867 52.3631 84.4867C52.9611 84.4867 53.4897 84.6297 53.9491 84.9157C54.4084 85.193 54.7637 85.6004 55.0151 86.1377C55.2751 86.675 55.4051 87.3294 55.4051 88.1007V88.4257H50.4001C50.4434 89.1624 50.6384 89.717 50.9851 90.0897C51.3404 90.4624 51.8171 90.6487 52.4151 90.6487C52.8657 90.6487 53.2341 90.5447 53.5201 90.3367C53.8147 90.12 54.0184 89.8384 54.1311 89.4917L55.3011 89.5827C55.1191 90.198 54.7724 90.705 54.2611 91.1037C53.7584 91.4937 53.1431 91.6887 52.4151 91.6887ZM50.4001 87.4637H54.2091C54.1571 86.7964 53.9621 86.3067 53.6241 85.9947C53.2947 85.6827 52.8744 85.5267 52.3631 85.5267C51.8344 85.5267 51.3967 85.6914 51.0501 86.0207C50.7121 86.3414 50.4954 86.8224 50.4001 87.4637ZM56.8842 91.5327V84.6427H57.8462L57.8982 86.3847L57.7942 86.3457C57.8809 85.7564 58.0672 85.3274 58.3532 85.0587C58.6479 84.7814 59.0379 84.6427 59.5232 84.6427H60.1992V85.6827H59.5362C59.1896 85.6827 58.8992 85.7477 58.6652 85.8777C58.4399 85.999 58.2666 86.1854 58.1452 86.4367C58.0326 86.6794 57.9762 86.9914 57.9762 87.3727V91.5327H56.8842ZM63.2349 91.5327L60.7259 84.6427H61.9219L63.9239 90.4147L65.9259 84.6427H67.1219L64.6129 91.5327H63.2349ZM68.3227 91.5327V84.6427H69.4147V91.5327H68.3227ZM68.2967 83.5637V82.2897H69.4407V83.5637H68.2967ZM74.0606 91.6887C73.4106 91.6887 72.8473 91.5414 72.3706 91.2467C71.9026 90.952 71.5386 90.536 71.2786 89.9987C71.0273 89.4527 70.9016 88.8157 70.9016 88.0877C70.9016 87.3597 71.0273 86.727 71.2786 86.1897C71.5386 85.6524 71.8983 85.2364 72.3576 84.9417C72.8256 84.6384 73.3759 84.4867 74.0086 84.4867C74.6066 84.4867 75.1353 84.6297 75.5946 84.9157C76.0539 85.193 76.4093 85.6004 76.6606 86.1377C76.9206 86.675 77.0506 87.3294 77.0506 88.1007V88.4257H72.0456C72.0889 89.1624 72.2839 89.717 72.6306 90.0897C72.9859 90.4624 73.4626 90.6487 74.0606 90.6487C74.5113 90.6487 74.8796 90.5447 75.1656 90.3367C75.4603 90.12 75.6639 89.8384 75.7766 89.4917L76.9466 89.5827C76.7646 90.198 76.4179 90.705 75.9066 91.1037C75.4039 91.4937 74.7886 91.6887 74.0606 91.6887ZM72.0456 87.4637H75.8546C75.8026 86.7964 75.6076 86.3067 75.2696 85.9947C74.9403 85.6827 74.5199 85.5267 74.0086 85.5267C73.4799 85.5267 73.0423 85.6914 72.6956 86.0207C72.3576 86.3414 72.1409 86.8224 72.0456 87.4637ZM79.7046 91.5327L77.5726 84.6427H78.7686L80.3806 90.3887L82.0186 84.6427H83.1886L84.8266 90.3887L86.4516 84.6427H87.6476L85.5156 91.5327H84.1376L82.6036 86.2937L81.0696 91.5327H79.7046Z" fill="white"/>
<path d="M37.0052 124.832C36.2945 124.832 35.6749 124.697 35.1462 124.429C34.6175 124.16 34.1972 123.792 33.8852 123.324C33.5819 122.847 33.4042 122.297 33.3522 121.673L34.5222 121.595C34.5829 122.054 34.7172 122.444 34.9252 122.765C35.1332 123.085 35.4105 123.328 35.7572 123.493C36.1125 123.657 36.5372 123.74 37.0312 123.74C37.4645 123.74 37.8329 123.683 38.1362 123.571C38.4395 123.458 38.6692 123.293 38.8252 123.077C38.9899 122.86 39.0722 122.596 39.0722 122.284C39.0722 121.998 39.0029 121.746 38.8642 121.53C38.7342 121.304 38.4785 121.101 38.0972 120.919C37.7245 120.728 37.1699 120.542 36.4332 120.36C35.7225 120.178 35.1549 119.978 34.7302 119.762C34.3142 119.545 34.0109 119.281 33.8202 118.969C33.6382 118.657 33.5472 118.271 33.5472 117.812C33.5472 117.292 33.6685 116.837 33.9112 116.447C34.1625 116.048 34.5179 115.74 34.9772 115.524C35.4365 115.298 35.9825 115.186 36.6152 115.186C37.2912 115.186 37.8719 115.316 38.3572 115.576C38.8425 115.827 39.2282 116.174 39.5142 116.616C39.8002 117.058 39.9779 117.56 40.0472 118.124L38.8772 118.202C38.8252 117.829 38.7039 117.5 38.5132 117.214C38.3312 116.919 38.0799 116.689 37.7592 116.525C37.4385 116.36 37.0485 116.278 36.5892 116.278C36.0172 116.278 35.5622 116.416 35.2242 116.694C34.8862 116.962 34.7172 117.318 34.7172 117.76C34.7172 118.046 34.7822 118.284 34.9122 118.475C35.0509 118.657 35.2935 118.821 35.6402 118.969C35.9869 119.107 36.4852 119.259 37.1352 119.424C37.9065 119.614 38.5175 119.844 38.9682 120.113C39.4275 120.373 39.7525 120.676 39.9432 121.023C40.1425 121.369 40.2422 121.764 40.2422 122.206C40.2422 122.743 40.1035 123.211 39.8262 123.61C39.5489 124 39.1675 124.303 38.6822 124.52C38.1969 124.728 37.6379 124.832 37.0052 124.832ZM44.8614 124.78C44.2114 124.78 43.648 124.632 43.1714 124.338C42.7034 124.043 42.3394 123.627 42.0794 123.09C41.828 122.544 41.7024 121.907 41.7024 121.179C41.7024 120.451 41.828 119.818 42.0794 119.281C42.3394 118.743 42.699 118.327 43.1584 118.033C43.6264 117.729 44.1767 117.578 44.8094 117.578C45.4074 117.578 45.936 117.721 46.3954 118.007C46.8547 118.284 47.21 118.691 47.4614 119.229C47.7214 119.766 47.8514 120.42 47.8514 121.192V121.517H42.8464C42.8897 122.253 43.0847 122.808 43.4314 123.181C43.7867 123.553 44.2634 123.74 44.8614 123.74C45.312 123.74 45.6804 123.636 45.9664 123.428C46.261 123.211 46.4647 122.929 46.5774 122.583L47.7474 122.674C47.5654 123.289 47.2187 123.796 46.7074 124.195C46.2047 124.585 45.5894 124.78 44.8614 124.78ZM42.8464 120.555H46.6554C46.6034 119.887 46.4084 119.398 46.0704 119.086C45.741 118.774 45.3207 118.618 44.8094 118.618C44.2807 118.618 43.843 118.782 43.4964 119.112C43.1584 119.432 42.9417 119.913 42.8464 120.555ZM51.8395 124.78C51.2242 124.78 50.6999 124.68 50.2665 124.481C49.8419 124.281 49.5082 124.008 49.2655 123.662C49.0315 123.306 48.8972 122.903 48.8625 122.453L50.0065 122.375C50.0759 122.791 50.2535 123.124 50.5395 123.376C50.8255 123.618 51.2589 123.74 51.8395 123.74C52.3075 123.74 52.6802 123.666 52.9575 123.519C53.2435 123.363 53.3865 123.116 53.3865 122.778C53.3865 122.596 53.3432 122.444 53.2565 122.323C53.1699 122.201 53.0009 122.097 52.7495 122.011C52.4982 121.915 52.1255 121.824 51.6315 121.738C50.9729 121.616 50.4529 121.469 50.0715 121.296C49.6989 121.114 49.4302 120.893 49.2655 120.633C49.1095 120.364 49.0315 120.048 49.0315 119.684C49.0315 119.068 49.2569 118.566 49.7075 118.176C50.1582 117.777 50.7995 117.578 51.6315 117.578C52.1949 117.578 52.6672 117.682 53.0485 117.89C53.4385 118.089 53.7419 118.358 53.9585 118.696C54.1839 119.025 54.3312 119.389 54.4005 119.788L53.2565 119.866C53.2045 119.623 53.1092 119.411 52.9705 119.229C52.8319 119.038 52.6499 118.891 52.4245 118.787C52.1992 118.674 51.9305 118.618 51.6185 118.618C51.1245 118.618 50.7605 118.713 50.5265 118.904C50.2925 119.094 50.1755 119.337 50.1755 119.632C50.1755 119.857 50.2275 120.043 50.3315 120.191C50.4442 120.329 50.6219 120.446 50.8645 120.542C51.1072 120.628 51.4322 120.706 51.8395 120.776C52.5415 120.897 53.0875 121.044 53.4775 121.218C53.8675 121.391 54.1405 121.603 54.2965 121.855C54.4525 122.106 54.5305 122.414 54.5305 122.778C54.5305 123.202 54.4092 123.566 54.1665 123.87C53.9325 124.164 53.6119 124.39 53.2045 124.546C52.8059 124.702 52.3509 124.78 51.8395 124.78ZM58.53 124.78C57.9146 124.78 57.3903 124.68 56.957 124.481C56.5323 124.281 56.1986 124.008 55.956 123.662C55.722 123.306 55.5876 122.903 55.553 122.453L56.697 122.375C56.7663 122.791 56.944 123.124 57.23 123.376C57.516 123.618 57.9493 123.74 58.53 123.74C58.998 123.74 59.3706 123.666 59.648 123.519C59.934 123.363 60.077 123.116 60.077 122.778C60.077 122.596 60.0336 122.444 59.947 122.323C59.8603 122.201 59.6913 122.097 59.44 122.011C59.1886 121.915 58.816 121.824 58.322 121.738C57.6633 121.616 57.1433 121.469 56.762 121.296C56.3893 121.114 56.1206 120.893 55.956 120.633C55.8 120.364 55.722 120.048 55.722 119.684C55.722 119.068 55.9473 118.566 56.398 118.176C56.8486 117.777 57.49 117.578 58.322 117.578C58.8853 117.578 59.3576 117.682 59.739 117.89C60.129 118.089 60.4323 118.358 60.649 118.696C60.8743 119.025 61.0216 119.389 61.091 119.788L59.947 119.866C59.895 119.623 59.7996 119.411 59.661 119.229C59.5223 119.038 59.3403 118.891 59.115 118.787C58.8896 118.674 58.621 118.618 58.309 118.618C57.815 118.618 57.451 118.713 57.217 118.904C56.983 119.094 56.866 119.337 56.866 119.632C56.866 119.857 56.918 120.043 57.022 120.191C57.1346 120.329 57.3123 120.446 57.555 120.542C57.7976 120.628 58.1226 120.706 58.53 120.776C59.232 120.897 59.778 121.044 60.168 121.218C60.558 121.391 60.831 121.603 60.987 121.855C61.143 122.106 61.221 122.414 61.221 122.778C61.221 123.202 61.0996 123.566 60.857 123.87C60.623 124.164 60.3023 124.39 59.895 124.546C59.4963 124.702 59.0413 124.78 58.53 124.78ZM62.7114 124.624V117.734H63.8034V124.624H62.7114ZM62.6854 116.655V115.381H63.8294V116.655H62.6854ZM68.4493 124.78C67.8166 124.78 67.2619 124.632 66.7853 124.338C66.3086 124.043 65.9403 123.627 65.6803 123.09C65.4203 122.544 65.2903 121.907 65.2903 121.179C65.2903 120.442 65.4203 119.805 65.6803 119.268C65.9403 118.73 66.3086 118.314 66.7853 118.02C67.2619 117.725 67.8166 117.578 68.4493 117.578C69.0819 117.578 69.6323 117.725 70.1003 118.02C70.5769 118.314 70.9453 118.73 71.2053 119.268C71.4653 119.805 71.5953 120.442 71.5953 121.179C71.5953 121.907 71.4653 122.544 71.2053 123.09C70.9453 123.627 70.5769 124.043 70.1003 124.338C69.6323 124.632 69.0819 124.78 68.4493 124.78ZM68.4493 123.74C69.0819 123.74 69.5716 123.514 69.9183 123.064C70.2736 122.604 70.4513 121.976 70.4513 121.179C70.4513 120.381 70.2736 119.757 69.9183 119.307C69.5716 118.847 69.0819 118.618 68.4493 118.618C67.8166 118.618 67.3226 118.847 66.9673 119.307C66.6119 119.757 66.4343 120.381 66.4343 121.179C66.4343 121.976 66.6119 122.604 66.9673 123.064C67.3226 123.514 67.8166 123.74 68.4493 123.74ZM73.0835 124.624V117.734H74.0845L74.1235 119.489L73.9935 119.372C74.0801 118.964 74.2318 118.631 74.4485 118.371C74.6651 118.102 74.9251 117.903 75.2285 117.773C75.5405 117.643 75.8741 117.578 76.2295 117.578C76.7581 117.578 77.1915 117.695 77.5295 117.929C77.8761 118.163 78.1318 118.479 78.2965 118.878C78.4698 119.268 78.5565 119.705 78.5565 120.191V124.624H77.4645V120.503C77.4645 120.078 77.4125 119.723 77.3085 119.437C77.2131 119.142 77.0571 118.921 76.8405 118.774C76.6238 118.618 76.3421 118.54 75.9955 118.54C75.4668 118.54 75.0291 118.709 74.6825 119.047C74.3445 119.376 74.1755 119.861 74.1755 120.503V124.624H73.0835ZM82.9938 124.78C82.3785 124.78 81.8542 124.68 81.4208 124.481C80.9962 124.281 80.6625 124.008 80.4198 123.662C80.1858 123.306 80.0515 122.903 80.0168 122.453L81.1608 122.375C81.2302 122.791 81.4078 123.124 81.6938 123.376C81.9798 123.618 82.4132 123.74 82.9938 123.74C83.4618 123.74 83.8345 123.666 84.1118 123.519C84.3978 123.363 84.5408 123.116 84.5408 122.778C84.5408 122.596 84.4975 122.444 84.4108 122.323C84.3242 122.201 84.1552 122.097 83.9038 122.011C83.6525 121.915 83.2798 121.824 82.7858 121.738C82.1272 121.616 81.6072 121.469 81.2258 121.296C80.8532 121.114 80.5845 120.893 80.4198 120.633C80.2638 120.364 80.1858 120.048 80.1858 119.684C80.1858 119.068 80.4112 118.566 80.8618 118.176C81.3125 117.777 81.9538 117.578 82.7858 117.578C83.3492 117.578 83.8215 117.682 84.2028 117.89C84.5928 118.089 84.8962 118.358 85.1128 118.696C85.3382 119.025 85.4855 119.389 85.5548 119.788L84.4108 119.866C84.3588 119.623 84.2635 119.411 84.1248 119.229C83.9862 119.038 83.8042 118.891 83.5788 118.787C83.3535 118.674 83.0848 118.618 82.7728 118.618C82.2788 118.618 81.9148 118.713 81.6808 118.904C81.4468 119.094 81.3298 119.337 81.3298 119.632C81.3298 119.857 81.3818 120.043 81.4858 120.191C81.5985 120.329 81.7762 120.446 82.0188 120.542C82.2615 120.628 82.5865 120.706 82.9938 120.776C83.6958 120.897 84.2418 121.044 84.6318 121.218C85.0218 121.391 85.2948 121.603 85.4508 121.855C85.6068 122.106 85.6848 122.414 85.6848 122.778C85.6848 123.202 85.5635 123.566 85.3208 123.87C85.0868 124.164 84.7662 124.39 84.3588 124.546C83.9602 124.702 83.5052 124.78 82.9938 124.78Z" fill="#717489"/>
<path d="M34.2082 157.714V148.484H40.0062V149.576H35.3262V152.553H39.8502V153.619H35.3262V156.622H40.1102V157.714H34.2082ZM43.3863 157.714L40.8773 150.824H42.0733L44.0753 156.596L46.0773 150.824H47.2733L44.7643 157.714H43.3863ZM50.9493 157.87C50.2993 157.87 49.7359 157.723 49.2593 157.428C48.7913 157.134 48.4273 156.718 48.1673 156.18C47.9159 155.634 47.7903 154.997 47.7903 154.269C47.7903 153.541 47.9159 152.909 48.1673 152.371C48.4273 151.834 48.7869 151.418 49.2463 151.123C49.7143 150.82 50.2646 150.668 50.8973 150.668C51.4953 150.668 52.0239 150.811 52.4833 151.097C52.9426 151.375 53.2979 151.782 53.5493 152.319C53.8093 152.857 53.9393 153.511 53.9393 154.282V154.607H48.9343C48.9776 155.344 49.1726 155.899 49.5193 156.271C49.8746 156.644 50.3513 156.83 50.9493 156.83C51.3999 156.83 51.7683 156.726 52.0543 156.518C52.3489 156.302 52.5526 156.02 52.6653 155.673L53.8353 155.764C53.6533 156.38 53.3066 156.887 52.7953 157.285C52.2926 157.675 51.6773 157.87 50.9493 157.87ZM48.9343 153.645H52.7433C52.6913 152.978 52.4963 152.488 52.1583 152.176C51.8289 151.864 51.4086 151.708 50.8973 151.708C50.3686 151.708 49.9309 151.873 49.5843 152.202C49.2463 152.523 49.0296 153.004 48.9343 153.645ZM55.4184 157.714V150.824H56.4194L56.4584 152.579L56.3284 152.462C56.4151 152.055 56.5668 151.721 56.7834 151.461C57.0001 151.193 57.2601 150.993 57.5634 150.863C57.8754 150.733 58.2091 150.668 58.5644 150.668C59.0931 150.668 59.5264 150.785 59.8644 151.019C60.2111 151.253 60.4668 151.57 60.6314 151.968C60.8048 152.358 60.8914 152.796 60.8914 153.281V157.714H59.7994V153.593C59.7994 153.169 59.7474 152.813 59.6434 152.527C59.5481 152.233 59.3921 152.012 59.1754 151.864C58.9588 151.708 58.6771 151.63 58.3304 151.63C57.8018 151.63 57.3641 151.799 57.0174 152.137C56.6794 152.467 56.5104 152.952 56.5104 153.593V157.714H55.4184ZM64.9736 157.714C64.3496 157.714 63.886 157.571 63.5826 157.285C63.288 156.999 63.1406 156.553 63.1406 155.946V149.212H64.2326V155.92C64.2326 156.232 64.302 156.449 64.4406 156.57C64.5793 156.692 64.7916 156.752 65.0776 156.752H66.0656V157.714H64.9736ZM62.1266 151.786V150.824H66.0656V151.786H62.1266ZM69.8483 157.87C69.233 157.87 68.7086 157.771 68.2753 157.571C67.8506 157.372 67.517 157.099 67.2743 156.752C67.0403 156.397 66.906 155.994 66.8713 155.543L68.0153 155.465C68.0846 155.881 68.2623 156.215 68.5483 156.466C68.8343 156.709 69.2676 156.83 69.8483 156.83C70.3163 156.83 70.689 156.757 70.9663 156.609C71.2523 156.453 71.3953 156.206 71.3953 155.868C71.3953 155.686 71.352 155.535 71.2653 155.413C71.1786 155.292 71.0096 155.188 70.7583 155.101C70.507 155.006 70.1343 154.915 69.6403 154.828C68.9816 154.707 68.4616 154.56 68.0803 154.386C67.7076 154.204 67.439 153.983 67.2743 153.723C67.1183 153.455 67.0403 153.138 67.0403 152.774C67.0403 152.159 67.2656 151.656 67.7163 151.266C68.167 150.868 68.8083 150.668 69.6403 150.668C70.2036 150.668 70.676 150.772 71.0573 150.98C71.4473 151.18 71.7506 151.448 71.9673 151.786C72.1926 152.116 72.34 152.48 72.4093 152.878L71.2653 152.956C71.2133 152.714 71.118 152.501 70.9793 152.319C70.8406 152.129 70.6586 151.981 70.4333 151.877C70.208 151.765 69.9393 151.708 69.6273 151.708C69.1333 151.708 68.7693 151.804 68.5353 151.994C68.3013 152.185 68.1843 152.428 68.1843 152.722C68.1843 152.948 68.2363 153.134 68.3403 153.281C68.453 153.42 68.6306 153.537 68.8733 153.632C69.116 153.719 69.441 153.797 69.8483 153.866C70.5503 153.988 71.0963 154.135 71.4863 154.308C71.8763 154.482 72.1493 154.694 72.3053 154.945C72.4613 155.197 72.5393 155.504 72.5393 155.868C72.5393 156.293 72.418 156.657 72.1753 156.96C71.9413 157.255 71.6206 157.48 71.2133 157.636C70.8146 157.792 70.3596 157.87 69.8483 157.87Z" fill="#717489"/>
<path d="M33.8332 190.805V181.575H39.6312V182.667H34.3922L34.9512 182.095V186.333L34.3922 185.761H39.3972V186.827H34.3922L34.9512 186.255V190.805H33.8332ZM43.2136 190.961C42.529 190.961 41.9786 190.732 41.5626 190.272C41.1553 189.804 40.9516 189.163 40.9516 188.348V183.915H42.0436V188.049C42.0436 188.717 42.1606 189.211 42.3946 189.531C42.6373 189.843 43.0056 189.999 43.4996 189.999C44.0456 189.999 44.4746 189.826 44.7866 189.479C45.0986 189.124 45.2546 188.639 45.2546 188.023V183.915H46.3466V190.805H45.3066V189.102L45.4756 189.193C45.337 189.757 45.0726 190.194 44.6826 190.506C44.2926 190.81 43.803 190.961 43.2136 190.961ZM48.4292 190.805V183.915H49.4302L49.4692 185.67L49.3392 185.553C49.4258 185.146 49.5775 184.812 49.7942 184.552C50.0108 184.284 50.2708 184.084 50.5742 183.954C50.8862 183.824 51.2198 183.759 51.5752 183.759C52.1038 183.759 52.5372 183.876 52.8752 184.11C53.2218 184.344 53.4775 184.661 53.6422 185.059C53.8155 185.449 53.9022 185.887 53.9022 186.372V190.805H52.8102V186.684C52.8102 186.26 52.7582 185.904 52.6542 185.618C52.5588 185.324 52.4028 185.103 52.1862 184.955C51.9695 184.799 51.6878 184.721 51.3412 184.721C50.8125 184.721 50.3748 184.89 50.0282 185.228C49.6902 185.558 49.5212 186.043 49.5212 186.684V190.805H48.4292ZM55.729 190.805V183.915H56.73L56.769 185.67L56.639 185.553C56.7256 185.146 56.8773 184.812 57.094 184.552C57.3106 184.284 57.5706 184.084 57.874 183.954C58.186 183.824 58.5196 183.759 58.875 183.759C59.4036 183.759 59.837 183.876 60.175 184.11C60.5216 184.344 60.7773 184.661 60.942 185.059C61.1153 185.449 61.202 185.887 61.202 186.372V190.805H60.11V186.684C60.11 186.26 60.058 185.904 59.954 185.618C59.8586 185.324 59.7026 185.103 59.486 184.955C59.2693 184.799 58.9876 184.721 58.641 184.721C58.1123 184.721 57.6746 184.89 57.328 185.228C56.99 185.558 56.821 186.043 56.821 186.684V190.805H55.729ZM65.8213 190.961C65.1713 190.961 64.608 190.814 64.1313 190.519C63.6633 190.225 63.2993 189.809 63.0393 189.271C62.788 188.725 62.6623 188.088 62.6623 187.36C62.6623 186.632 62.788 186 63.0393 185.462C63.2993 184.925 63.659 184.509 64.1183 184.214C64.5863 183.911 65.1367 183.759 65.7693 183.759C66.3673 183.759 66.896 183.902 67.3553 184.188C67.8147 184.466 68.17 184.873 68.4213 185.41C68.6813 185.948 68.8113 186.602 68.8113 187.373V187.698H63.8063C63.8497 188.435 64.0447 188.99 64.3913 189.362C64.7467 189.735 65.2233 189.921 65.8213 189.921C66.272 189.921 66.6403 189.817 66.9263 189.609C67.221 189.393 67.4247 189.111 67.5373 188.764L68.7073 188.855C68.5253 189.471 68.1787 189.978 67.6673 190.376C67.1647 190.766 66.5493 190.961 65.8213 190.961ZM63.8063 186.736H67.6153C67.5633 186.069 67.3683 185.579 67.0303 185.267C66.701 184.955 66.2807 184.799 65.7693 184.799C65.2407 184.799 64.803 184.964 64.4563 185.293C64.1183 185.614 63.9017 186.095 63.8063 186.736ZM71.706 190.805C71.3073 190.805 70.9823 190.701 70.731 190.493C70.4796 190.285 70.354 189.956 70.354 189.505V181.575H71.446V189.414C71.446 189.553 71.4806 189.661 71.55 189.739C71.628 189.809 71.7363 189.843 71.875 189.843H72.473V190.805H71.706ZM76.2526 190.961C75.6373 190.961 75.1129 190.862 74.6796 190.662C74.2549 190.463 73.9213 190.19 73.6786 189.843C73.4446 189.488 73.3103 189.085 73.2756 188.634L74.4196 188.556C74.4889 188.972 74.6666 189.306 74.9526 189.557C75.2386 189.8 75.6719 189.921 76.2526 189.921C76.7206 189.921 77.0933 189.848 77.3706 189.7C77.6566 189.544 77.7996 189.297 77.7996 188.959C77.7996 188.777 77.7563 188.626 77.6696 188.504C77.5829 188.383 77.4139 188.279 77.1626 188.192C76.9113 188.097 76.5386 188.006 76.0446 187.919C75.3859 187.798 74.8659 187.651 74.4846 187.477C74.1119 187.295 73.8433 187.074 73.6786 186.814C73.5226 186.546 73.4446 186.229 73.4446 185.865C73.4446 185.25 73.6699 184.747 74.1206 184.357C74.5713 183.959 75.2126 183.759 76.0446 183.759C76.6079 183.759 77.0803 183.863 77.4616 184.071C77.8516 184.271 78.1549 184.539 78.3716 184.877C78.5969 185.207 78.7443 185.571 78.8136 185.969L77.6696 186.047C77.6176 185.805 77.5223 185.592 77.3836 185.41C77.2449 185.22 77.0629 185.072 76.8376 184.968C76.6123 184.856 76.3436 184.799 76.0316 184.799C75.5376 184.799 75.1736 184.895 74.9396 185.085C74.7056 185.276 74.5886 185.519 74.5886 185.813C74.5886 186.039 74.6406 186.225 74.7446 186.372C74.8573 186.511 75.0349 186.628 75.2776 186.723C75.5203 186.81 75.8453 186.888 76.2526 186.957C76.9546 187.079 77.5006 187.226 77.8906 187.399C78.2806 187.573 78.5536 187.785 78.7096 188.036C78.8656 188.288 78.9436 188.595 78.9436 188.959C78.9436 189.384 78.8223 189.748 78.5796 190.051C78.3456 190.346 78.0249 190.571 77.6176 190.727C77.2189 190.883 76.7639 190.961 76.2526 190.961Z" fill="#717489"/>
<path d="M33.8332 223.896V214.666H37.1482C38.1795 214.666 38.9812 214.913 39.5532 215.407C40.1252 215.901 40.4112 216.586 40.4112 217.461C40.4112 218.05 40.2812 218.562 40.0212 218.995C39.7612 219.42 39.3885 219.745 38.9032 219.97C38.4179 220.195 37.8329 220.308 37.1482 220.308H34.9512V223.896H33.8332ZM34.9512 219.216H37.1482C37.8415 219.216 38.3615 219.069 38.7082 218.774C39.0635 218.479 39.2412 218.042 39.2412 217.461C39.2412 216.898 39.0635 216.473 38.7082 216.187C38.3615 215.901 37.8415 215.758 37.1482 215.758H34.9512V219.216ZM43.6993 224.052C42.9886 224.052 42.421 223.887 41.9963 223.558C41.5803 223.229 41.3723 222.769 41.3723 222.18C41.3723 221.591 41.5456 221.127 41.8923 220.789C42.239 220.451 42.7893 220.213 43.5433 220.074L45.9873 219.619C45.9873 219.038 45.8486 218.605 45.5713 218.319C45.3026 218.033 44.8953 217.89 44.3493 217.89C43.8726 217.89 43.4956 217.998 43.2183 218.215C42.941 218.423 42.7503 218.726 42.6463 219.125L41.4893 219.034C41.6193 218.384 41.9313 217.86 42.4253 217.461C42.928 217.054 43.5693 216.85 44.3493 216.85C45.2333 216.85 45.9093 217.101 46.3773 217.604C46.8453 218.098 47.0793 218.783 47.0793 219.658V222.505C47.0793 222.661 47.1053 222.774 47.1573 222.843C47.218 222.904 47.3133 222.934 47.4433 222.934H47.7163V223.896C47.6816 223.905 47.6253 223.909 47.5473 223.909C47.4693 223.918 47.387 223.922 47.3003 223.922C46.9883 223.922 46.7326 223.874 46.5333 223.779C46.3426 223.675 46.204 223.519 46.1173 223.311C46.0306 223.094 45.9873 222.813 45.9873 222.466L46.1173 222.492C46.0566 222.787 45.9093 223.055 45.6753 223.298C45.4413 223.532 45.151 223.718 44.8043 223.857C44.4576 223.987 44.0893 224.052 43.6993 224.052ZM43.8033 223.09C44.2626 223.09 44.6526 223.003 44.9733 222.83C45.3026 222.648 45.554 222.405 45.7273 222.102C45.9006 221.79 45.9873 221.443 45.9873 221.062V220.568L43.7513 220.984C43.2833 221.071 42.9583 221.205 42.7763 221.387C42.603 221.56 42.5163 221.79 42.5163 222.076C42.5163 222.397 42.629 222.648 42.8543 222.83C43.0883 223.003 43.4046 223.09 43.8033 223.09ZM51.5373 226.002C51.0433 226.002 50.5969 225.92 50.1983 225.755C49.7996 225.59 49.4659 225.356 49.1973 225.053C48.9286 224.75 48.7466 224.399 48.6513 224L49.7953 223.922C49.8993 224.243 50.0813 224.494 50.3413 224.676C50.6099 224.867 51.0086 224.962 51.5373 224.962C52.1613 224.962 52.6379 224.836 52.9673 224.585C53.3053 224.334 53.4743 223.957 53.4743 223.454V222.336C53.3096 222.7 53.0453 222.99 52.6813 223.207C52.3173 223.424 51.9099 223.532 51.4593 223.532C50.8786 223.532 50.3586 223.389 49.8993 223.103C49.4486 222.817 49.0933 222.423 48.8333 221.92C48.5819 221.417 48.4563 220.841 48.4563 220.191C48.4563 219.532 48.5819 218.956 48.8333 218.462C49.0846 217.959 49.4313 217.565 49.8733 217.279C50.3239 216.993 50.8353 216.85 51.4073 216.85C51.8926 216.85 52.3259 216.963 52.7073 217.188C53.0973 217.413 53.3703 217.717 53.5263 218.098V217.006H54.5663V223.428C54.5663 223.965 54.4449 224.425 54.2023 224.806C53.9596 225.196 53.6129 225.491 53.1623 225.69C52.7116 225.898 52.1699 226.002 51.5373 226.002ZM51.5113 222.492C52.1006 222.492 52.5729 222.288 52.9283 221.881C53.2836 221.465 53.4656 220.902 53.4743 220.191C53.4829 219.714 53.4049 219.307 53.2403 218.969C53.0843 218.622 52.8546 218.358 52.5513 218.176C52.2566 217.985 51.9099 217.89 51.5113 217.89C50.9046 217.89 50.4323 218.098 50.0943 218.514C49.7649 218.921 49.6003 219.48 49.6003 220.191C49.6003 220.902 49.7693 221.465 50.1073 221.881C50.4539 222.288 50.9219 222.492 51.5113 222.492ZM59.2071 224.052C58.5571 224.052 57.9937 223.905 57.5171 223.61C57.0491 223.315 56.6851 222.899 56.4251 222.362C56.1737 221.816 56.0481 221.179 56.0481 220.451C56.0481 219.723 56.1737 219.09 56.4251 218.553C56.6851 218.016 57.0447 217.6 57.5041 217.305C57.9721 217.002 58.5224 216.85 59.1551 216.85C59.7531 216.85 60.2817 216.993 60.7411 217.279C61.2004 217.556 61.5557 217.964 61.8071 218.501C62.0671 219.038 62.1971 219.693 62.1971 220.464V220.789H57.1921C57.2354 221.526 57.4304 222.08 57.7771 222.453C58.1324 222.826 58.6091 223.012 59.2071 223.012C59.6577 223.012 60.0261 222.908 60.3121 222.7C60.6067 222.483 60.8104 222.202 60.9231 221.855L62.0931 221.946C61.9111 222.561 61.5644 223.068 61.0531 223.467C60.5504 223.857 59.9351 224.052 59.2071 224.052ZM57.1921 219.827H61.0011C60.9491 219.16 60.7541 218.67 60.4161 218.358C60.0867 218.046 59.6664 217.89 59.1551 217.89C58.6264 217.89 58.1887 218.055 57.8421 218.384C57.5041 218.705 57.2874 219.186 57.1921 219.827ZM65.2281 223.896L62.7191 217.006H63.9151L65.9171 222.778L67.9191 217.006H69.1151L66.6061 223.896H65.2281ZM70.3159 223.896V217.006H71.4079V223.896H70.3159ZM70.2899 215.927V214.653H71.4339V215.927H70.2899ZM76.0538 224.052C75.4038 224.052 74.8404 223.905 74.3638 223.61C73.8958 223.315 73.5318 222.899 73.2718 222.362C73.0204 221.816 72.8948 221.179 72.8948 220.451C72.8948 219.723 73.0204 219.09 73.2718 218.553C73.5318 218.016 73.8914 217.6 74.3508 217.305C74.8188 217.002 75.3691 216.85 76.0018 216.85C76.5998 216.85 77.1284 216.993 77.5878 217.279C78.0471 217.556 78.4024 217.964 78.6538 218.501C78.9138 219.038 79.0438 219.693 79.0438 220.464V220.789H74.0388C74.0821 221.526 74.2771 222.08 74.6238 222.453C74.9791 222.826 75.4558 223.012 76.0538 223.012C76.5044 223.012 76.8728 222.908 77.1588 222.7C77.4534 222.483 77.6571 222.202 77.7698 221.855L78.9398 221.946C78.7578 222.561 78.4111 223.068 77.8998 223.467C77.3971 223.857 76.7818 224.052 76.0538 224.052ZM74.0388 219.827H77.8478C77.7958 219.16 77.6008 218.67 77.2628 218.358C76.9334 218.046 76.5131 217.89 76.0018 217.89C75.4731 217.89 75.0354 218.055 74.6888 218.384C74.3508 218.705 74.1341 219.186 74.0388 219.827ZM81.6978 223.896L79.5658 217.006H80.7618L82.3738 222.752L84.0118 217.006H85.1818L86.8198 222.752L88.4448 217.006H89.6408L87.5088 223.896H86.1308L84.5968 218.657L83.0628 223.896H81.6978ZM93.1374 224.052C92.522 224.052 91.9977 223.952 91.5644 223.753C91.1397 223.554 90.806 223.281 90.5634 222.934C90.3294 222.579 90.195 222.176 90.1604 221.725L91.3044 221.647C91.3737 222.063 91.5514 222.397 91.8374 222.648C92.1234 222.891 92.5567 223.012 93.1374 223.012C93.6054 223.012 93.978 222.938 94.2554 222.791C94.5414 222.635 94.6844 222.388 94.6844 222.05C94.6844 221.868 94.641 221.716 94.5544 221.595C94.4677 221.474 94.2987 221.37 94.0474 221.283C93.796 221.188 93.4234 221.097 92.9294 221.01C92.2707 220.889 91.7507 220.741 91.3694 220.568C90.9967 220.386 90.728 220.165 90.5634 219.905C90.4074 219.636 90.3294 219.32 90.3294 218.956C90.3294 218.341 90.5547 217.838 91.0054 217.448C91.456 217.049 92.0974 216.85 92.9294 216.85C93.4927 216.85 93.965 216.954 94.3464 217.162C94.7364 217.361 95.0397 217.63 95.2564 217.968C95.4817 218.297 95.629 218.661 95.6984 219.06L94.5544 219.138C94.5024 218.895 94.407 218.683 94.2684 218.501C94.1297 218.31 93.9477 218.163 93.7224 218.059C93.497 217.946 93.2284 217.89 92.9164 217.89C92.4224 217.89 92.0584 217.985 91.8244 218.176C91.5904 218.367 91.4734 218.609 91.4734 218.904C91.4734 219.129 91.5254 219.316 91.6294 219.463C91.742 219.602 91.9197 219.719 92.1624 219.814C92.405 219.901 92.73 219.979 93.1374 220.048C93.8394 220.169 94.3854 220.317 94.7754 220.49C95.1654 220.663 95.4384 220.876 95.5944 221.127C95.7504 221.378 95.8284 221.686 95.8284 222.05C95.8284 222.475 95.707 222.839 95.4644 223.142C95.2304 223.437 94.9097 223.662 94.5024 223.818C94.1037 223.974 93.6487 224.052 93.1374 224.052Z" fill="#717489"/>
<path d="M32.8972 256.987L36.2252 247.757H37.7332L41.0612 256.987H39.8392L38.9162 254.361H35.0422L34.1192 256.987H32.8972ZM35.4192 253.269H38.5392L36.9792 248.732L35.4192 253.269ZM44.8233 257.143C44.182 257.143 43.623 256.995 43.1463 256.701C42.6783 256.406 42.3143 255.99 42.0543 255.453C41.7943 254.907 41.6643 254.27 41.6643 253.542C41.6643 252.814 41.7943 252.181 42.0543 251.644C42.3143 251.106 42.6783 250.69 43.1463 250.396C43.623 250.092 44.182 249.941 44.8233 249.941C45.352 249.941 45.82 250.036 46.2273 250.227C46.6433 250.409 46.9813 250.677 47.2413 251.033C47.5013 251.388 47.6703 251.821 47.7483 252.333L46.6043 252.411C46.5263 251.951 46.327 251.6 46.0063 251.358C45.6856 251.106 45.2913 250.981 44.8233 250.981C44.1906 250.981 43.6966 251.21 43.3413 251.67C42.986 252.12 42.8083 252.744 42.8083 253.542C42.8083 254.339 42.986 254.967 43.3413 255.427C43.6966 255.877 44.1906 256.103 44.8233 256.103C45.2913 256.103 45.6856 255.973 46.0063 255.713C46.327 255.453 46.5263 255.063 46.6043 254.543L47.7483 254.621C47.6703 255.132 47.5013 255.578 47.2413 255.96C46.9813 256.332 46.6433 256.623 46.2273 256.831C45.82 257.039 45.352 257.143 44.8233 257.143ZM54.757 258.937H53.665V255.505L53.821 255.687C53.743 255.981 53.5957 256.237 53.379 256.454C53.171 256.67 52.911 256.839 52.599 256.961C52.2957 257.082 51.9663 257.143 51.611 257.143C50.9263 257.143 50.363 256.974 49.921 256.636C49.4877 256.298 49.1627 255.856 48.946 255.31C48.738 254.764 48.634 254.174 48.634 253.542C48.634 252.909 48.738 252.32 48.946 251.774C49.1627 251.228 49.4877 250.786 49.921 250.448C50.363 250.11 50.9263 249.941 51.611 249.941C52.1483 249.941 52.6163 250.075 53.015 250.344C53.4223 250.604 53.7083 250.989 53.873 251.501L53.717 251.579L53.743 250.097H54.757V258.937ZM51.715 256.103C52.1223 256.103 52.469 256.007 52.755 255.817C53.0497 255.626 53.275 255.34 53.431 254.959C53.587 254.577 53.665 254.105 53.665 253.542C53.665 252.978 53.5827 252.506 53.418 252.125C53.262 251.743 53.0367 251.457 52.742 251.267C52.456 251.076 52.1137 250.981 51.715 250.981C51.117 250.981 50.6447 251.206 50.298 251.657C49.9513 252.107 49.778 252.736 49.778 253.542C49.778 254.348 49.9513 254.976 50.298 255.427C50.6447 255.877 51.117 256.103 51.715 256.103ZM59.0955 257.143C58.4108 257.143 57.8605 256.913 57.4445 256.454C57.0371 255.986 56.8335 255.344 56.8335 254.53V250.097H57.9255V254.231C57.9255 254.898 58.0425 255.392 58.2765 255.713C58.5191 256.025 58.8875 256.181 59.3815 256.181C59.9275 256.181 60.3565 256.007 60.6685 255.661C60.9805 255.305 61.1365 254.82 61.1365 254.205V250.097H62.2285V256.987H61.1885V255.284L61.3575 255.375C61.2188 255.938 60.9545 256.376 60.5645 256.688C60.1745 256.991 59.6848 257.143 59.0955 257.143ZM64.1206 256.987V250.097H65.2126V256.987H64.1206ZM64.0946 249.018V247.744H65.2386V249.018H64.0946ZM69.6764 257.143C69.0611 257.143 68.5368 257.043 68.1034 256.844C67.6788 256.644 67.3451 256.371 67.1024 256.025C66.8684 255.669 66.7341 255.266 66.6994 254.816L67.8434 254.738C67.9128 255.154 68.0904 255.487 68.3764 255.739C68.6624 255.981 69.0958 256.103 69.6764 256.103C70.1444 256.103 70.5171 256.029 70.7944 255.882C71.0804 255.726 71.2234 255.479 71.2234 255.141C71.2234 254.959 71.1801 254.807 71.0934 254.686C71.0068 254.564 70.8378 254.46 70.5864 254.374C70.3351 254.278 69.9624 254.187 69.4684 254.101C68.8098 253.979 68.2898 253.832 67.9084 253.659C67.5358 253.477 67.2671 253.256 67.1024 252.996C66.9464 252.727 66.8684 252.411 66.8684 252.047C66.8684 251.431 67.0938 250.929 67.5444 250.539C67.9951 250.14 68.6364 249.941 69.4684 249.941C70.0318 249.941 70.5041 250.045 70.8854 250.253C71.2754 250.452 71.5788 250.721 71.7954 251.059C72.0208 251.388 72.1681 251.752 72.2374 252.151L71.0934 252.229C71.0414 251.986 70.9461 251.774 70.8074 251.592C70.6688 251.401 70.4868 251.254 70.2614 251.15C70.0361 251.037 69.7674 250.981 69.4554 250.981C68.9614 250.981 68.5974 251.076 68.3634 251.267C68.1294 251.457 68.0124 251.7 68.0124 251.995C68.0124 252.22 68.0644 252.406 68.1684 252.554C68.2811 252.692 68.4588 252.809 68.7014 252.905C68.9441 252.991 69.2691 253.069 69.6764 253.139C70.3784 253.26 70.9244 253.407 71.3144 253.581C71.7044 253.754 71.9774 253.966 72.1334 254.218C72.2894 254.469 72.3674 254.777 72.3674 255.141C72.3674 255.565 72.2461 255.929 72.0034 256.233C71.7694 256.527 71.4488 256.753 71.0414 256.909C70.6428 257.065 70.1878 257.143 69.6764 257.143ZM73.8579 256.987V250.097H74.9499V256.987H73.8579ZM73.8319 249.018V247.744H74.9759V249.018H73.8319ZM79.0332 256.987C78.4092 256.987 77.9455 256.844 77.6422 256.558C77.3475 256.272 77.2002 255.825 77.2002 255.219V248.485H78.2922V255.193C78.2922 255.505 78.3615 255.721 78.5002 255.843C78.6389 255.964 78.8512 256.025 79.1372 256.025H80.1252V256.987H79.0332ZM76.1862 251.059V250.097H80.1252V251.059H76.1862ZM81.5258 256.987V250.097H82.6178V256.987H81.5258ZM81.4998 249.018V247.744H82.6438V249.018H81.4998ZM87.2637 257.143C86.631 257.143 86.0764 256.995 85.5997 256.701C85.123 256.406 84.7547 255.99 84.4947 255.453C84.2347 254.907 84.1047 254.27 84.1047 253.542C84.1047 252.805 84.2347 252.168 84.4947 251.631C84.7547 251.093 85.123 250.677 85.5997 250.383C86.0764 250.088 86.631 249.941 87.2637 249.941C87.8964 249.941 88.4467 250.088 88.9147 250.383C89.3914 250.677 89.7597 251.093 90.0197 251.631C90.2797 252.168 90.4097 252.805 90.4097 253.542C90.4097 254.27 90.2797 254.907 90.0197 255.453C89.7597 255.99 89.3914 256.406 88.9147 256.701C88.4467 256.995 87.8964 257.143 87.2637 257.143ZM87.2637 256.103C87.8964 256.103 88.386 255.877 88.7327 255.427C89.088 254.967 89.2657 254.339 89.2657 253.542C89.2657 252.744 89.088 252.12 88.7327 251.67C88.386 251.21 87.8964 250.981 87.2637 250.981C86.631 250.981 86.137 251.21 85.7817 251.67C85.4264 252.12 85.2487 252.744 85.2487 253.542C85.2487 254.339 85.4264 254.967 85.7817 255.427C86.137 255.877 86.631 256.103 87.2637 256.103ZM91.8979 256.987V250.097H92.8989L92.9379 251.852L92.8079 251.735C92.8946 251.327 93.0462 250.994 93.2629 250.734C93.4796 250.465 93.7396 250.266 94.0429 250.136C94.3549 250.006 94.6886 249.941 95.0439 249.941C95.5726 249.941 96.0059 250.058 96.3439 250.292C96.6906 250.526 96.9462 250.842 97.1109 251.241C97.2842 251.631 97.3709 252.068 97.3709 252.554V256.987H96.2789V252.866C96.2789 252.441 96.2269 252.086 96.1229 251.8C96.0276 251.505 95.8716 251.284 95.6549 251.137C95.4382 250.981 95.1566 250.903 94.8099 250.903C94.2812 250.903 93.8436 251.072 93.4969 251.41C93.1589 251.739 92.9899 252.224 92.9899 252.866V256.987H91.8979ZM101.808 257.143C101.193 257.143 100.669 257.043 100.235 256.844C99.8106 256.644 99.4769 256.371 99.2343 256.025C99.0003 255.669 98.8659 255.266 98.8313 254.816L99.9753 254.738C100.045 255.154 100.222 255.487 100.508 255.739C100.794 255.981 101.228 256.103 101.808 256.103C102.276 256.103 102.649 256.029 102.926 255.882C103.212 255.726 103.355 255.479 103.355 255.141C103.355 254.959 103.312 254.807 103.225 254.686C103.139 254.564 102.97 254.46 102.718 254.374C102.467 254.278 102.094 254.187 101.6 254.101C100.942 253.979 100.422 253.832 100.04 253.659C99.6676 253.477 99.3989 253.256 99.2343 252.996C99.0783 252.727 99.0003 252.411 99.0003 252.047C99.0003 251.431 99.2256 250.929 99.6763 250.539C100.127 250.14 100.768 249.941 101.6 249.941C102.164 249.941 102.636 250.045 103.017 250.253C103.407 250.452 103.711 250.721 103.927 251.059C104.153 251.388 104.3 251.752 104.369 252.151L103.225 252.229C103.173 251.986 103.078 251.774 102.939 251.592C102.801 251.401 102.619 251.254 102.393 251.15C102.168 251.037 101.899 250.981 101.587 250.981C101.093 250.981 100.729 251.076 100.495 251.267C100.261 251.457 100.144 251.7 100.144 251.995C100.144 252.22 100.196 252.406 100.3 252.554C100.413 252.692 100.591 252.809 100.833 252.905C101.076 252.991 101.401 253.069 101.808 253.139C102.51 253.26 103.056 253.407 103.446 253.581C103.836 253.754 104.109 253.966 104.265 254.218C104.421 254.469 104.499 254.777 104.499 255.141C104.499 255.565 104.378 255.929 104.135 256.233C103.901 256.527 103.581 256.753 103.173 256.909C102.775 257.065 102.32 257.143 101.808 257.143Z" fill="#717489"/>
<path d="M33.8332 289.956V280.726H34.9512V289.436L34.3922 288.864H39.5662V289.956H33.8332ZM40.5708 289.956V283.066H41.6628V289.956H40.5708ZM40.5448 281.987V280.713H41.6888V281.987H40.5448ZM45.3726 289.956L42.8636 283.066H44.0596L46.0616 288.838L48.0636 283.066H49.2596L46.7506 289.956H45.3726ZM52.9356 290.112C52.2856 290.112 51.7223 289.964 51.2456 289.67C50.7776 289.375 50.4136 288.959 50.1536 288.422C49.9023 287.876 49.7766 287.239 49.7766 286.511C49.7766 285.783 49.9023 285.15 50.1536 284.613C50.4136 284.075 50.7733 283.659 51.2326 283.365C51.7006 283.061 52.2509 282.91 52.8836 282.91C53.4816 282.91 54.0103 283.053 54.4696 283.339C54.9289 283.616 55.2843 284.023 55.5356 284.561C55.7956 285.098 55.9256 285.752 55.9256 286.524V286.849H50.9206C50.9639 287.585 51.1589 288.14 51.5056 288.513C51.8609 288.885 52.3376 289.072 52.9356 289.072C53.3863 289.072 53.7546 288.968 54.0406 288.76C54.3353 288.543 54.5389 288.261 54.6516 287.915L55.8216 288.006C55.6396 288.621 55.2929 289.128 54.7816 289.527C54.2789 289.917 53.6636 290.112 52.9356 290.112ZM50.9206 285.887H54.7296C54.6776 285.219 54.4826 284.73 54.1446 284.418C53.8153 284.106 53.3949 283.95 52.8836 283.95C52.3549 283.95 51.9173 284.114 51.5706 284.444C51.2326 284.764 51.0159 285.245 50.9206 285.887Z" fill="#3D3F4A"/>
<path d="M37.6732 323.133C36.9625 323.133 36.3428 322.998 35.8142 322.73C35.2855 322.461 34.8652 322.093 34.5532 321.625C34.2498 321.148 34.0722 320.598 34.0202 319.974L35.1902 319.896C35.2508 320.355 35.3852 320.745 35.5932 321.066C35.8012 321.386 36.0785 321.629 36.4252 321.794C36.7805 321.958 37.2052 322.041 37.6992 322.041C38.1325 322.041 38.5008 321.984 38.8042 321.872C39.1075 321.759 39.3372 321.594 39.4932 321.378C39.6578 321.161 39.7402 320.897 39.7402 320.585C39.7402 320.299 39.6708 320.047 39.5322 319.831C39.4022 319.605 39.1465 319.402 38.7652 319.22C38.3925 319.029 37.8378 318.843 37.1012 318.661C36.3905 318.479 35.8228 318.279 35.3982 318.063C34.9822 317.846 34.6788 317.582 34.4882 317.27C34.3062 316.958 34.2152 316.572 34.2152 316.113C34.2152 315.593 34.3365 315.138 34.5792 314.748C34.8305 314.349 35.1858 314.041 35.6452 313.825C36.1045 313.599 36.6505 313.487 37.2832 313.487C37.9592 313.487 38.5398 313.617 39.0252 313.877C39.5105 314.128 39.8962 314.475 40.1822 314.917C40.4682 315.359 40.6458 315.861 40.7152 316.425L39.5452 316.503C39.4932 316.13 39.3718 315.801 39.1812 315.515C38.9992 315.22 38.7478 314.99 38.4272 314.826C38.1065 314.661 37.7165 314.579 37.2572 314.579C36.6852 314.579 36.2302 314.717 35.8922 314.995C35.5542 315.263 35.3852 315.619 35.3852 316.061C35.3852 316.347 35.4502 316.585 35.5802 316.776C35.7188 316.958 35.9615 317.122 36.3082 317.27C36.6548 317.408 37.1532 317.56 37.8032 317.725C38.5745 317.915 39.1855 318.145 39.6362 318.414C40.0955 318.674 40.4205 318.977 40.6112 319.324C40.8105 319.67 40.9102 320.065 40.9102 320.507C40.9102 321.044 40.7715 321.512 40.4942 321.911C40.2168 322.301 39.8355 322.604 39.3502 322.821C38.8648 323.029 38.3058 323.133 37.6732 323.133ZM45.5293 323.081C44.8793 323.081 44.316 322.933 43.8393 322.639C43.3713 322.344 43.0073 321.928 42.7473 321.391C42.496 320.845 42.3703 320.208 42.3703 319.48C42.3703 318.752 42.496 318.119 42.7473 317.582C43.0073 317.044 43.367 316.628 43.8263 316.334C44.2943 316.03 44.8447 315.879 45.4773 315.879C46.0753 315.879 46.604 316.022 47.0633 316.308C47.5227 316.585 47.878 316.992 48.1293 317.53C48.3893 318.067 48.5193 318.721 48.5193 319.493V319.818H43.5143C43.5577 320.554 43.7527 321.109 44.0993 321.482C44.4547 321.854 44.9313 322.041 45.5293 322.041C45.98 322.041 46.3483 321.937 46.6343 321.729C46.929 321.512 47.1327 321.23 47.2453 320.884L48.4153 320.975C48.2333 321.59 47.8867 322.097 47.3753 322.496C46.8727 322.886 46.2573 323.081 45.5293 323.081ZM43.5143 318.856H47.3233C47.2713 318.188 47.0763 317.699 46.7383 317.387C46.409 317.075 45.9887 316.919 45.4773 316.919C44.9487 316.919 44.511 317.083 44.1643 317.413C43.8263 317.733 43.6097 318.214 43.5143 318.856ZM52.2539 322.925C51.6299 322.925 51.1662 322.782 50.8629 322.496C50.5682 322.21 50.4209 321.763 50.4209 321.157V314.423H51.5129V321.131C51.5129 321.443 51.5822 321.659 51.7209 321.781C51.8596 321.902 52.0719 321.963 52.3579 321.963H53.3459V322.925H52.2539ZM49.4069 316.997V316.035H53.3459V316.997H49.4069ZM56.1669 322.925C55.5429 322.925 55.0792 322.782 54.7759 322.496C54.4812 322.21 54.3339 321.763 54.3339 321.157V314.423H55.4259V321.131C55.4259 321.443 55.4952 321.659 55.6339 321.781C55.7726 321.902 55.9849 321.963 56.2709 321.963H57.2589V322.925H56.1669ZM53.3199 316.997V316.035H57.2589V316.997H53.3199ZM58.6694 322.925V316.035H59.7614V322.925H58.6694ZM58.6434 314.956V313.682H59.7874V314.956H58.6434ZM61.9702 322.925V316.035H62.9712L63.0102 317.79L62.8802 317.673C62.9668 317.265 63.1185 316.932 63.3352 316.672C63.5518 316.403 63.8118 316.204 64.1152 316.074C64.4272 315.944 64.7608 315.879 65.1162 315.879C65.6448 315.879 66.0782 315.996 66.4162 316.23C66.7628 316.464 67.0185 316.78 67.1832 317.179C67.3565 317.569 67.4432 318.006 67.4432 318.492V322.925H66.3512V318.804C66.3512 318.379 66.2992 318.024 66.1952 317.738C66.0998 317.443 65.9438 317.222 65.7272 317.075C65.5105 316.919 65.2288 316.841 64.8822 316.841C64.3535 316.841 63.9158 317.01 63.5692 317.348C63.2312 317.677 63.0622 318.162 63.0622 318.804V322.925H61.9702ZM71.9845 325.031C71.4905 325.031 71.0442 324.948 70.6455 324.784C70.2469 324.619 69.9132 324.385 69.6445 324.082C69.3759 323.778 69.1939 323.427 69.0985 323.029L70.2425 322.951C70.3465 323.271 70.5285 323.523 70.7885 323.705C71.0572 323.895 71.4559 323.991 71.9845 323.991C72.6085 323.991 73.0852 323.865 73.4145 323.614C73.7525 323.362 73.9215 322.985 73.9215 322.483V321.365C73.7569 321.729 73.4925 322.019 73.1285 322.236C72.7645 322.452 72.3572 322.561 71.9065 322.561C71.3259 322.561 70.8059 322.418 70.3465 322.132C69.8959 321.846 69.5405 321.451 69.2805 320.949C69.0292 320.446 68.9035 319.87 68.9035 319.22C68.9035 318.561 69.0292 317.985 69.2805 317.491C69.5319 316.988 69.8785 316.594 70.3205 316.308C70.7712 316.022 71.2825 315.879 71.8545 315.879C72.3399 315.879 72.7732 315.991 73.1545 316.217C73.5445 316.442 73.8175 316.745 73.9735 317.127V316.035H75.0135V322.457C75.0135 322.994 74.8922 323.453 74.6495 323.835C74.4069 324.225 74.0602 324.519 73.6095 324.719C73.1589 324.927 72.6172 325.031 71.9845 325.031ZM71.9585 321.521C72.5479 321.521 73.0202 321.317 73.3755 320.91C73.7309 320.494 73.9129 319.93 73.9215 319.22C73.9302 318.743 73.8522 318.336 73.6875 317.998C73.5315 317.651 73.3019 317.387 72.9985 317.205C72.7039 317.014 72.3572 316.919 71.9585 316.919C71.3519 316.919 70.8795 317.127 70.5415 317.543C70.2122 317.95 70.0475 318.509 70.0475 319.22C70.0475 319.93 70.2165 320.494 70.5545 320.91C70.9012 321.317 71.3692 321.521 71.9585 321.521ZM79.4723 323.081C78.857 323.081 78.3327 322.981 77.8993 322.782C77.4747 322.582 77.141 322.309 76.8983 321.963C76.6643 321.607 76.53 321.204 76.4953 320.754L77.6393 320.676C77.7087 321.092 77.8863 321.425 78.1723 321.677C78.4583 321.919 78.8917 322.041 79.4723 322.041C79.9403 322.041 80.313 321.967 80.5903 321.82C80.8763 321.664 81.0193 321.417 81.0193 321.079C81.0193 320.897 80.976 320.745 80.8893 320.624C80.8027 320.502 80.6337 320.398 80.3823 320.312C80.131 320.216 79.7583 320.125 79.2643 320.039C78.6057 319.917 78.0857 319.77 77.7043 319.597C77.3317 319.415 77.063 319.194 76.8983 318.934C76.7423 318.665 76.6643 318.349 76.6643 317.985C76.6643 317.369 76.8897 316.867 77.3403 316.477C77.791 316.078 78.4323 315.879 79.2643 315.879C79.8277 315.879 80.3 315.983 80.6813 316.191C81.0713 316.39 81.3747 316.659 81.5913 316.997C81.8167 317.326 81.964 317.69 82.0333 318.089L80.8893 318.167C80.8373 317.924 80.742 317.712 80.6033 317.53C80.4647 317.339 80.2827 317.192 80.0573 317.088C79.832 316.975 79.5633 316.919 79.2513 316.919C78.7573 316.919 78.3933 317.014 78.1593 317.205C77.9253 317.395 77.8083 317.638 77.8083 317.933C77.8083 318.158 77.8603 318.344 77.9643 318.492C78.077 318.63 78.2547 318.747 78.4973 318.843C78.74 318.929 79.065 319.007 79.4723 319.077C80.1743 319.198 80.7203 319.345 81.1103 319.519C81.5003 319.692 81.7733 319.904 81.9293 320.156C82.0853 320.407 82.1633 320.715 82.1633 321.079C82.1633 321.503 82.042 321.867 81.7993 322.171C81.5653 322.465 81.2447 322.691 80.8373 322.847C80.4387 323.003 79.9837 323.081 79.4723 323.081Z" fill="#717489"/>
<path d="M9.24561 84.7197H21.2456M13.2456 92.7197V84.7197M10.5789 80.7197H19.9123C20.6487 80.7197 21.2456 81.3167 21.2456 82.0531V91.3864C21.2456 92.1228 20.6487 92.7197 19.9123 92.7197H10.5789C9.84256 92.7197 9.24561 92.1228 9.24561 91.3864V82.0531C9.24561 81.3167 9.84256 80.7197 10.5789 80.7197Z" stroke="white" stroke-linecap="round" stroke-linejoin="round"/>
<path d="M16.5881 113.79H19.9214M19.9214 113.79V117.123M19.9214 113.79L15.9214 117.79M11.2547 113.79H7.92139M7.92139 113.79V117.123M7.92139 113.79L13.1401 119.009C13.3912 119.26 13.5897 119.558 13.7239 119.887C13.858 120.216 13.9252 120.568 13.9214 120.923V126.457" stroke="#717489" stroke-linecap="round" stroke-linejoin="round"/>
<path d="M11.1129 147.214L11.6235 149.065M9.77245 150.916L7.92139 150.406M15.4533 148.427L14.1767 149.64M10.3469 153.47L9.13415 154.746M12.2618 151.555L15.4533 159.214L16.6022 155.895L19.9214 154.746L12.2618 151.555Z" stroke="#717489" stroke-linecap="round" stroke-linejoin="round"/>
<path d="M21.9076 180.31H8.5835L13.9131 186.612V190.969L16.578 192.301V186.612L21.9076 180.31Z" stroke="#717489" stroke-linecap="round" stroke-linejoin="round"/>
<path d="M8.62488 219.606C8.57491 219.47 8.57491 219.321 8.62488 219.186C9.11154 218 9.93762 216.985 10.9984 216.271C12.0592 215.557 13.3068 215.176 14.5833 215.176C15.8597 215.176 17.1074 215.557 18.1682 216.271C19.2289 216.985 20.055 218 20.5417 219.186C20.5917 219.321 20.5917 219.47 20.5417 219.606C20.055 220.792 19.2289 221.807 18.1682 222.52C17.1074 223.234 15.8597 223.615 14.5833 223.615C13.3068 223.615 12.0592 223.234 10.9984 222.52C9.93762 221.807 9.11154 220.792 8.62488 219.606Z" stroke="#717489" stroke-linecap="round" stroke-linejoin="round"/>
<path d="M14.5833 221.204C15.5767 221.204 16.382 220.395 16.382 219.396C16.382 218.397 15.5767 217.587 14.5833 217.587C13.5899 217.587 12.7846 218.397 12.7846 219.396C12.7846 220.395 13.5899 221.204 14.5833 221.204Z" stroke="#717489" stroke-linecap="round" stroke-linejoin="round"/>
<path d="M10.4808 252.487L8.5874 246.775L20.5791 252.487M10.4808 252.487L8.5874 258.198L20.5791 252.487M10.4808 252.487H20.5791" stroke="#717489" stroke-linecap="round" stroke-linejoin="round"/>
<path d="M19.6454 287.256H16.9214C16.6031 287.256 16.2979 287.382 16.0729 287.607C15.8478 287.832 15.7214 288.137 15.7214 288.456V291.18M10.9214 280.26V281.256C10.9214 281.733 11.111 282.191 11.4486 282.528C11.7862 282.866 12.244 283.056 12.7214 283.056C13.0396 283.056 13.3449 283.182 13.5699 283.407C13.795 283.632 13.9214 283.937 13.9214 284.256C13.9214 284.916 14.4614 285.456 15.1214 285.456C15.4396 285.456 15.7449 285.329 15.9699 285.104C16.195 284.879 16.3214 284.574 16.3214 284.256C16.3214 283.596 16.8614 283.056 17.5214 283.056H19.4234M13.3214 291.426V289.056C13.3214 288.737 13.195 288.432 12.9699 288.207C12.7449 287.982 12.4396 287.856 12.1214 287.856C11.8031 287.856 11.4979 287.729 11.2729 287.504C11.0478 287.279 10.9214 286.974 10.9214 286.656V286.056C10.9214 285.737 10.795 285.432 10.5699 285.207C10.3449 284.982 10.0396 284.856 9.72139 284.856H7.95139M19.9214 285.456C19.9214 288.769 17.2351 291.456 13.9214 291.456C10.6077 291.456 7.92139 288.769 7.92139 285.456C7.92139 282.142 10.6077 279.456 13.9214 279.456C17.2351 279.456 19.9214 282.142 19.9214 285.456Z" stroke="#3D3F4A" stroke-linecap="round" stroke-linejoin="round"/>
<path d="M14.7255 311.962H14.4412C14.0983 311.962 13.7696 312.098 13.5272 312.341C13.2848 312.583 13.1486 312.912 13.1486 313.254V313.371C13.1483 313.597 13.0885 313.82 12.9751 314.016C12.8616 314.213 12.6986 314.376 12.5023 314.489L12.2244 314.65C12.0279 314.764 11.805 314.824 11.5781 314.824C11.3512 314.824 11.1283 314.764 10.9318 314.65L10.8349 314.599C10.5383 314.428 10.1859 314.381 9.85508 314.47C9.52429 314.558 9.24211 314.774 9.07049 315.071L8.92831 315.316C8.75721 315.613 8.71079 315.965 8.79925 316.296C8.8877 316.627 9.1038 316.909 9.4001 317.081L9.49704 317.145C9.6924 317.258 9.85484 317.42 9.96822 317.615C10.0816 317.81 10.142 318.031 10.1433 318.257V318.586C10.1442 318.814 10.0849 319.038 9.97144 319.236C9.85795 319.433 9.69429 319.597 9.49704 319.711L9.4001 319.769C9.1038 319.941 8.8877 320.223 8.79925 320.554C8.71079 320.884 8.75721 321.237 8.92831 321.533L9.07049 321.779C9.24211 322.075 9.52429 322.291 9.85508 322.38C10.1859 322.468 10.5383 322.422 10.8349 322.251L10.9318 322.199C11.1283 322.086 11.3512 322.026 11.5781 322.026C11.805 322.026 12.0279 322.086 12.2244 322.199L12.5023 322.361C12.6986 322.474 12.8616 322.637 12.9751 322.833C13.0885 323.029 13.1483 323.252 13.1486 323.479V323.595C13.1486 323.938 13.2848 324.267 13.5272 324.509C13.7696 324.752 14.0983 324.888 14.4412 324.888H14.7255C15.0683 324.888 15.3971 324.752 15.6395 324.509C15.8819 324.267 16.0181 323.938 16.0181 323.595V323.479C16.0183 323.252 16.0782 323.029 16.1916 322.833C16.305 322.637 16.4681 322.474 16.6644 322.361L16.9423 322.199C17.1388 322.086 17.3617 322.026 17.5886 322.026C17.8155 322.026 18.0384 322.086 18.2349 322.199L18.3318 322.251C18.6284 322.422 18.9808 322.468 19.3116 322.38C19.6424 322.291 19.9246 322.075 20.0962 321.779L20.2384 321.527C20.4095 321.23 20.4559 320.878 20.3674 320.547C20.279 320.216 20.0629 319.934 19.7666 319.763L19.6696 319.711C19.4724 319.597 19.3087 319.433 19.1952 319.236C19.0817 319.038 19.0224 318.814 19.0233 318.586V318.263C19.0224 318.035 19.0817 317.812 19.1952 317.614C19.3087 317.417 19.4724 317.253 19.6696 317.139L19.7666 317.081C20.0629 316.909 20.279 316.627 20.3674 316.296C20.4559 315.965 20.4095 315.613 20.2384 315.316L20.0962 315.071C19.9246 314.774 19.6424 314.558 19.3116 314.47C18.9808 314.381 18.6284 314.428 18.3318 314.599L18.2349 314.65C18.0384 314.764 17.8155 314.824 17.5886 314.824C17.3617 314.824 17.1388 314.764 16.9423 314.65L16.6644 314.489C16.4681 314.376 16.305 314.213 16.1916 314.016C16.0782 313.82 16.0183 313.597 16.0181 313.371V313.254C16.0181 312.912 15.8819 312.583 15.6395 312.341C15.3971 312.098 15.0683 311.962 14.7255 311.962Z" stroke="#717489" stroke-linecap="round" stroke-linejoin="round"/>
<path d="M14.5833 320.364C15.6541 320.364 16.5222 319.496 16.5222 318.425C16.5222 317.354 15.6541 316.486 14.5833 316.486C13.5125 316.486 12.6445 317.354 12.6445 318.425C12.6445 319.496 13.5125 320.364 14.5833 320.364Z" stroke="#717489" stroke-linecap="round" stroke-linejoin="round"/>
</svg>
