<svg width="1942" height="60" viewBox="0 0 1942 60" fill="none" xmlns="http://www.w3.org/2000/svg">
<g style="mix-blend-mode:luminosity">
<path d="M26.9023 30.9287C26.9023 30.9287 29.1708 27.1787 34.4023 27.1787C39.2796 27.1787 41.9023 30.9287 41.9023 30.9287C41.9023 30.9287 39.6093 34.6787 34.4023 34.6787C29.5553 34.6787 26.9023 30.9287 26.9023 30.9287Z" fill="url(#paint0_linear_369_67)"/>
</g>
<g style="mix-blend-mode:luminosity">
<path d="M43.7773 36.5537C43.7773 41.0844 40.2628 45.9287 34.4023 45.9287V34.6787C34.4023 34.6787 39.1081 34.9117 41.9023 30.9287C43.3274 32.8348 43.7773 34.8246 43.7773 36.5537Z" fill="url(#paint1_linear_369_67)"/>
</g>
<path d="M25.0273 36.5537C25.0273 41.0844 28.5419 45.9287 34.4023 45.9287V34.6787C34.4023 34.6787 30.0143 34.924 26.9023 30.9287C25.4773 32.8348 25.0273 34.8246 25.0273 36.5537Z" fill="url(#paint2_linear_369_67)"/>
<path d="M25.0273 25.3037C25.0273 20.773 28.5419 15.9287 34.4023 15.9287L34.4023 27.1787C34.4023 27.1787 29.6966 26.9457 26.9023 30.9287C25.4773 29.0226 25.0273 27.0328 25.0273 25.3037Z" fill="url(#paint3_linear_369_67)"/>
<path d="M43.7773 25.3037C43.7773 20.773 40.2628 15.9287 34.4023 15.9287L34.4023 27.1787C34.4023 27.1787 38.8283 26.9501 41.9023 30.9287C43.3274 29.0226 43.7773 27.0328 43.7773 25.3037Z" fill="url(#paint4_linear_369_67)"/>
<circle cx="79.1768" cy="30.9287" r="6.5" fill="url(#paint5_radial_369_67)"/>
<path d="M94.9904 35.4287V26.1987H98.1624C99.2544 26.1987 100.073 26.398 100.619 26.7967C101.165 27.1954 101.438 27.8237 101.438 28.6817C101.438 29.0804 101.352 29.4314 101.178 29.7347C101.005 30.038 100.758 30.2764 100.437 30.4497C100.117 30.6144 99.7354 30.6967 99.2934 30.6967L99.2804 30.6187C100.069 30.6187 100.689 30.831 101.139 31.2557C101.599 31.6717 101.828 32.2177 101.828 32.8937C101.828 33.7344 101.555 34.367 101.009 34.7917C100.463 35.2164 99.6878 35.4287 98.6824 35.4287H94.9904ZM96.1084 34.3367H98.6824C99.3151 34.3367 99.8004 34.2067 100.138 33.9467C100.485 33.6867 100.658 33.314 100.658 32.8287C100.658 32.3434 100.485 31.9664 100.138 31.6977C99.8004 31.4204 99.3151 31.2817 98.6824 31.2817H96.1084V34.3367ZM96.1084 30.1897H98.1624C98.8384 30.1897 99.3584 30.064 99.7224 29.8127C100.086 29.5527 100.268 29.193 100.268 28.7337C100.268 28.2484 100.091 27.8887 99.7354 27.6547C99.3888 27.412 98.8644 27.2907 98.1624 27.2907H96.1084V30.1897ZM103.569 35.4287V26.1987H104.661V32.2437L108.015 28.5387H109.471L106.754 31.4637L109.588 35.4287H108.262L106.013 32.2047L104.661 33.6347V35.4287H103.569ZM112.132 35.4287C111.733 35.4287 111.408 35.3247 111.157 35.1167C110.905 34.9087 110.78 34.5794 110.78 34.1287V26.1987H111.872V34.0377C111.872 34.1764 111.906 34.2847 111.976 34.3627C112.054 34.432 112.162 34.4667 112.301 34.4667H112.899V35.4287H112.132ZM114.144 35.4287V28.5387H115.236V35.4287H114.144ZM114.118 27.4597V26.1857H115.262V27.4597H114.118ZM119.319 35.4287C118.695 35.4287 118.232 35.2857 117.928 34.9997C117.634 34.7137 117.486 34.2674 117.486 33.6607V26.9267H118.578V33.6347C118.578 33.9467 118.648 34.1634 118.786 34.2847C118.925 34.406 119.137 34.4667 119.423 34.4667H120.411V35.4287H119.319ZM116.472 29.5007V28.5387H120.411V29.5007H116.472ZM125.294 35.4287V26.1987H128.154C129.575 26.1987 130.667 26.6017 131.43 27.4077C132.201 28.205 132.587 29.3447 132.587 30.8267C132.587 32.3 132.21 33.4354 131.456 34.2327C130.702 35.03 129.627 35.4287 128.232 35.4287H125.294ZM126.412 34.3367H128.154C129.237 34.3367 130.052 34.0464 130.598 33.4657C131.144 32.8764 131.417 31.9967 131.417 30.8267C131.417 29.6394 131.144 28.7554 130.598 28.1747C130.052 27.5854 129.237 27.2907 128.154 27.2907H126.412V34.3367ZM137.084 35.5847C136.434 35.5847 135.871 35.4374 135.394 35.1427C134.926 34.848 134.562 34.432 134.302 33.8947C134.051 33.3487 133.925 32.7117 133.925 31.9837C133.925 31.2557 134.051 30.623 134.302 30.0857C134.562 29.5484 134.922 29.1324 135.381 28.8377C135.849 28.5344 136.399 28.3827 137.032 28.3827C137.63 28.3827 138.159 28.5257 138.618 28.8117C139.077 29.089 139.433 29.4964 139.684 30.0337C139.944 30.571 140.074 31.2254 140.074 31.9967V32.3217H135.069C135.112 33.0584 135.307 33.613 135.654 33.9857C136.009 34.3584 136.486 34.5447 137.084 34.5447C137.535 34.5447 137.903 34.4407 138.189 34.2327C138.484 34.016 138.687 33.7344 138.8 33.3877L139.97 33.4787C139.788 34.094 139.441 34.601 138.93 34.9997C138.427 35.3897 137.812 35.5847 137.084 35.5847ZM135.069 31.3597H138.878C138.826 30.6924 138.631 30.2027 138.293 29.8907C137.964 29.5787 137.543 29.4227 137.032 29.4227C136.503 29.4227 136.066 29.5874 135.719 29.9167C135.381 30.2374 135.164 30.7184 135.069 31.3597ZM141.553 35.4287V28.5387H142.554L142.593 30.2807L142.437 30.2287C142.515 29.8474 142.65 29.5224 142.84 29.2537C143.04 28.9764 143.282 28.764 143.568 28.6167C143.854 28.4607 144.171 28.3827 144.517 28.3827C145.115 28.3827 145.601 28.5474 145.973 28.8767C146.355 29.206 146.593 29.6654 146.688 30.2547L146.48 30.2417C146.55 29.843 146.675 29.5094 146.857 29.2407C147.048 28.9634 147.291 28.751 147.585 28.6037C147.88 28.4564 148.218 28.3827 148.599 28.3827C149.093 28.3827 149.509 28.4867 149.847 28.6947C150.185 28.894 150.441 29.1887 150.614 29.5787C150.788 29.9687 150.874 30.441 150.874 30.9957V35.4287H149.782V31.2297C149.782 30.6057 149.661 30.1377 149.418 29.8257C149.176 29.505 148.816 29.3447 148.339 29.3447C148.019 29.3447 147.737 29.4227 147.494 29.5787C147.26 29.7347 147.078 29.96 146.948 30.2547C146.818 30.5407 146.753 30.8917 146.753 31.3077V35.4287H145.661V31.3077C145.661 30.6924 145.553 30.2114 145.336 29.8647C145.12 29.518 144.756 29.3447 144.244 29.3447C143.924 29.3447 143.642 29.4227 143.399 29.5787C143.165 29.7347 142.979 29.96 142.84 30.2547C142.71 30.5494 142.645 30.9004 142.645 31.3077V35.4287H141.553ZM155.492 35.5847C154.86 35.5847 154.305 35.4374 153.828 35.1427C153.352 34.848 152.983 34.432 152.723 33.8947C152.463 33.3487 152.333 32.7117 152.333 31.9837C152.333 31.247 152.463 30.61 152.723 30.0727C152.983 29.5354 153.352 29.1194 153.828 28.8247C154.305 28.53 154.86 28.3827 155.492 28.3827C156.125 28.3827 156.675 28.53 157.143 28.8247C157.62 29.1194 157.988 29.5354 158.248 30.0727C158.508 30.61 158.638 31.247 158.638 31.9837C158.638 32.7117 158.508 33.3487 158.248 33.8947C157.988 34.432 157.62 34.848 157.143 35.1427C156.675 35.4374 156.125 35.5847 155.492 35.5847ZM155.492 34.5447C156.125 34.5447 156.615 34.3194 156.961 33.8687C157.317 33.4094 157.494 32.781 157.494 31.9837C157.494 31.1864 157.317 30.5624 156.961 30.1117C156.615 29.6524 156.125 29.4227 155.492 29.4227C154.86 29.4227 154.366 29.6524 154.01 30.1117C153.655 30.5624 153.477 31.1864 153.477 31.9837C153.477 32.781 153.655 33.4094 154.01 33.8687C154.366 34.3194 154.86 34.5447 155.492 34.5447Z" fill="white"/>
<path d="M222.912 32.9564L225.99 36.0512L229.067 32.9564M222.912 29.2427L225.99 26.1479L229.067 29.2427" stroke="#707388" stroke-linecap="round" stroke-linejoin="round"/>
<rect x="166.412" y="20.9287" width="34" height="20" rx="7" fill="#E6FFAF"/>
<path d="M175.424 34.4287V26.6187H178.229C179.101 26.6187 179.78 26.8277 180.264 27.2457C180.748 27.6637 180.99 28.243 180.99 28.9837C180.99 29.4824 180.88 29.915 180.66 30.2817C180.44 30.641 180.124 30.916 179.714 31.1067C179.303 31.2974 178.808 31.3927 178.229 31.3927H176.37V34.4287H175.424ZM176.37 30.4687H178.229C178.815 30.4687 179.255 30.344 179.549 30.0947C179.849 29.8454 180 29.475 180 28.9837C180 28.507 179.849 28.1477 179.549 27.9057C179.255 27.6637 178.815 27.5427 178.229 27.5427H176.37V30.4687ZM182.338 34.4287V28.5987H183.152L183.196 30.0727L183.108 30.0397C183.182 29.541 183.339 29.178 183.581 28.9507C183.831 28.716 184.161 28.5987 184.571 28.5987H185.143V29.4787H184.582C184.289 29.4787 184.043 29.5337 183.845 29.6437C183.655 29.7464 183.508 29.904 183.405 30.1167C183.31 30.322 183.262 30.586 183.262 30.9087V34.4287H182.338ZM188.343 34.5607C187.808 34.5607 187.338 34.436 186.935 34.1867C186.532 33.9374 186.22 33.5854 186 33.1307C185.78 32.6687 185.67 32.1297 185.67 31.5137C185.67 30.8904 185.78 30.3514 186 29.8967C186.22 29.442 186.532 29.09 186.935 28.8407C187.338 28.5914 187.808 28.4667 188.343 28.4667C188.878 28.4667 189.344 28.5914 189.74 28.8407C190.143 29.09 190.455 29.442 190.675 29.8967C190.895 30.3514 191.005 30.8904 191.005 31.5137C191.005 32.1297 190.895 32.6687 190.675 33.1307C190.455 33.5854 190.143 33.9374 189.74 34.1867C189.344 34.436 188.878 34.5607 188.343 34.5607ZM188.343 33.6807C188.878 33.6807 189.293 33.49 189.586 33.1087C189.887 32.72 190.037 32.1884 190.037 31.5137C190.037 30.839 189.887 30.311 189.586 29.9297C189.293 29.541 188.878 29.3467 188.343 29.3467C187.808 29.3467 187.39 29.541 187.089 29.9297C186.788 30.311 186.638 30.839 186.638 31.5137C186.638 32.1884 186.788 32.72 187.089 33.1087C187.39 33.49 187.808 33.6807 188.343 33.6807Z" fill="#3B4619"/>
<rect x="1657.92" y="15.2178" width="173.622" height="31" rx="4.5" fill="#0F1014" stroke="#1D1E27"/>
<path d="M1695.22 35.7681C1694.5 35.7681 1693.89 35.6337 1693.36 35.3651C1692.83 35.0964 1692.41 34.7281 1692.1 34.2601C1691.79 33.7834 1691.61 33.2331 1691.56 32.6091L1692.73 32.5311C1692.79 32.9904 1692.93 33.3804 1693.14 33.7011C1693.34 34.0217 1693.62 34.2644 1693.97 34.4291C1694.32 34.5937 1694.75 34.6761 1695.24 34.6761C1695.67 34.6761 1696.04 34.6197 1696.35 34.5071C1696.65 34.3944 1696.88 34.2297 1697.04 34.0131C1697.2 33.7964 1697.28 33.5321 1697.28 33.2201C1697.28 32.9341 1697.21 32.6827 1697.07 32.4661C1696.94 32.2407 1696.69 32.0371 1696.31 31.8551C1695.93 31.6644 1695.38 31.4781 1694.64 31.2961C1693.93 31.1141 1693.37 30.9147 1692.94 30.6981C1692.52 30.4814 1692.22 30.2171 1692.03 29.9051C1691.85 29.5931 1691.76 29.2074 1691.76 28.7481C1691.76 28.2281 1691.88 27.7731 1692.12 27.3831C1692.37 26.9844 1692.73 26.6767 1693.19 26.4601C1693.65 26.2347 1694.19 26.1221 1694.83 26.1221C1695.5 26.1221 1696.08 26.2521 1696.57 26.5121C1697.05 26.7634 1697.44 27.1101 1697.72 27.5521C1698.01 27.9941 1698.19 28.4967 1698.26 29.0601L1697.09 29.1381C1697.04 28.7654 1696.91 28.4361 1696.72 28.1501C1696.54 27.8554 1696.29 27.6257 1695.97 27.4611C1695.65 27.2964 1695.26 27.2141 1694.8 27.2141C1694.23 27.2141 1693.77 27.3527 1693.43 27.6301C1693.1 27.8987 1692.93 28.2541 1692.93 28.6961C1692.93 28.9821 1692.99 29.2204 1693.12 29.4111C1693.26 29.5931 1693.5 29.7577 1693.85 29.9051C1694.2 30.0437 1694.7 30.1954 1695.35 30.3601C1696.12 30.5507 1696.73 30.7804 1697.18 31.0491C1697.64 31.3091 1697.96 31.6124 1698.15 31.9591C1698.35 32.3057 1698.45 32.7001 1698.45 33.1421C1698.45 33.6794 1698.31 34.1474 1698.04 34.5461C1697.76 34.9361 1697.38 35.2394 1696.89 35.4561C1696.41 35.6641 1695.85 35.7681 1695.22 35.7681ZM1703.07 35.7161C1702.42 35.7161 1701.86 35.5687 1701.38 35.2741C1700.91 34.9794 1700.55 34.5634 1700.29 34.0261C1700.04 33.4801 1699.91 32.8431 1699.91 32.1151C1699.91 31.3871 1700.04 30.7544 1700.29 30.2171C1700.55 29.6797 1700.91 29.2637 1701.37 28.9691C1701.84 28.6657 1702.39 28.5141 1703.02 28.5141C1703.62 28.5141 1704.15 28.6571 1704.61 28.9431C1705.07 29.2204 1705.42 29.6277 1705.67 30.1651C1705.93 30.7024 1706.06 31.3567 1706.06 32.1281V32.4531H1701.06C1701.1 33.1897 1701.3 33.7444 1701.64 34.1171C1702 34.4897 1702.47 34.6761 1703.07 34.6761C1703.52 34.6761 1703.89 34.5721 1704.18 34.3641C1704.47 34.1474 1704.68 33.8657 1704.79 33.5191L1705.96 33.6101C1705.78 34.2254 1705.43 34.7324 1704.92 35.1311C1704.42 35.5211 1703.8 35.7161 1703.07 35.7161ZM1701.06 31.4911H1704.87C1704.81 30.8237 1704.62 30.3341 1704.28 30.0221C1703.95 29.7101 1703.53 29.5541 1703.02 29.5541C1702.49 29.5541 1702.05 29.7187 1701.71 30.0481C1701.37 30.3687 1701.15 30.8497 1701.06 31.4911ZM1709.58 35.7161C1708.87 35.7161 1708.3 35.5514 1707.87 35.2221C1707.46 34.8927 1707.25 34.4334 1707.25 33.8441C1707.25 33.2547 1707.42 32.7911 1707.77 32.4531C1708.12 32.1151 1708.67 31.8767 1709.42 31.7381L1711.87 31.2831C1711.87 30.7024 1711.73 30.2691 1711.45 29.9831C1711.18 29.6971 1710.77 29.5541 1710.23 29.5541C1709.75 29.5541 1709.37 29.6624 1709.1 29.8791C1708.82 30.0871 1708.63 30.3904 1708.52 30.7891L1707.37 30.6981C1707.5 30.0481 1707.81 29.5237 1708.3 29.1251C1708.81 28.7177 1709.45 28.5141 1710.23 28.5141C1711.11 28.5141 1711.79 28.7654 1712.26 29.2681C1712.72 29.7621 1712.96 30.4467 1712.96 31.3221V34.1691C1712.96 34.3251 1712.98 34.4377 1713.04 34.5071C1713.1 34.5677 1713.19 34.5981 1713.32 34.5981H1713.59V35.5601C1713.56 35.5687 1713.5 35.5731 1713.43 35.5731C1713.35 35.5817 1713.27 35.5861 1713.18 35.5861C1712.87 35.5861 1712.61 35.5384 1712.41 35.4431C1712.22 35.3391 1712.08 35.1831 1712 34.9751C1711.91 34.7584 1711.87 34.4767 1711.87 34.1301L1712 34.1561C1711.94 34.4507 1711.79 34.7194 1711.55 34.9621C1711.32 35.1961 1711.03 35.3824 1710.68 35.5211C1710.34 35.6511 1709.97 35.7161 1709.58 35.7161ZM1709.68 34.7541C1710.14 34.7541 1710.53 34.6674 1710.85 34.4941C1711.18 34.3121 1711.43 34.0694 1711.61 33.7661C1711.78 33.4541 1711.87 33.1074 1711.87 32.7261V32.2321L1709.63 32.6481C1709.16 32.7347 1708.84 32.8691 1708.65 33.0511C1708.48 33.2244 1708.39 33.4541 1708.39 33.7401C1708.39 34.0607 1708.51 34.3121 1708.73 34.4941C1708.97 34.6674 1709.28 34.7541 1709.68 34.7541ZM1714.83 35.5601V28.6701H1715.79L1715.84 30.4121L1715.74 30.3731C1715.82 29.7837 1716.01 29.3547 1716.3 29.0861C1716.59 28.8087 1716.98 28.6701 1717.47 28.6701H1718.14V29.7101H1717.48C1717.13 29.7101 1716.84 29.7751 1716.61 29.9051C1716.38 30.0264 1716.21 30.2127 1716.09 30.4641C1715.98 30.7067 1715.92 31.0187 1715.92 31.4001V35.5601H1714.83ZM1721.92 35.7161C1721.28 35.7161 1720.72 35.5687 1720.25 35.2741C1719.78 34.9794 1719.42 34.5634 1719.16 34.0261C1718.9 33.4801 1718.77 32.8431 1718.77 32.1151C1718.77 31.3871 1718.9 30.7544 1719.16 30.2171C1719.42 29.6797 1719.78 29.2637 1720.25 28.9691C1720.72 28.6657 1721.28 28.5141 1721.92 28.5141C1722.45 28.5141 1722.92 28.6094 1723.33 28.8001C1723.74 28.9821 1724.08 29.2507 1724.34 29.6061C1724.6 29.9614 1724.77 30.3947 1724.85 30.9061L1723.71 30.9841C1723.63 30.5247 1723.43 30.1737 1723.11 29.9311C1722.79 29.6797 1722.39 29.5541 1721.92 29.5541C1721.29 29.5541 1720.8 29.7837 1720.44 30.2431C1720.09 30.6937 1719.91 31.3177 1719.91 32.1151C1719.91 32.9124 1720.09 33.5407 1720.44 34.0001C1720.8 34.4507 1721.29 34.6761 1721.92 34.6761C1722.39 34.6761 1722.79 34.5461 1723.11 34.2861C1723.43 34.0261 1723.63 33.6361 1723.71 33.1161L1724.85 33.1941C1724.77 33.7054 1724.6 34.1517 1724.34 34.5331C1724.08 34.9057 1723.74 35.1961 1723.33 35.4041C1722.92 35.6121 1722.45 35.7161 1721.92 35.7161ZM1726.2 35.5601V26.3301H1727.3V30.1911L1727.17 30.1651C1727.25 29.7837 1727.4 29.4717 1727.61 29.2291C1727.82 28.9864 1728.07 28.8087 1728.37 28.6961C1728.68 28.5747 1729.01 28.5141 1729.38 28.5141C1729.87 28.5141 1730.29 28.6267 1730.62 28.8521C1730.97 29.0687 1731.23 29.3764 1731.4 29.7751C1731.59 30.1651 1731.68 30.6157 1731.68 31.1271V35.5601H1730.58V31.4391C1730.58 30.7717 1730.46 30.2777 1730.22 29.9571C1729.99 29.6364 1729.63 29.4761 1729.14 29.4761C1728.59 29.4761 1728.14 29.6451 1727.8 29.9831C1727.46 30.3211 1727.3 30.8107 1727.3 31.4521V35.5601H1726.2ZM1733.29 35.5601V34.0911H1734.76V35.5601H1733.29ZM1735.9 35.5601V34.0911H1737.37V35.5601H1735.9ZM1738.52 35.5601V34.0911H1739.99V35.5601H1738.52Z" fill="#717489"/>
<path d="M1682 37.2646L1679.13 34.3822M1680.67 30.5613C1680.67 33.523 1678.28 35.9239 1675.33 35.9239C1672.39 35.9239 1670 33.523 1670 30.5613C1670 27.5996 1672.39 25.1987 1675.33 25.1987C1678.28 25.1987 1680.67 27.5996 1680.67 30.5613Z" stroke="#717489" stroke-linecap="round" stroke-linejoin="round"/>
<path d="M255.85 35.3501L259.501 31.6787L255.85 28.0073" stroke="#707388" stroke-linecap="round" stroke-linejoin="round"/>
<path d="M274.677 35.853V26.623H277.849C278.941 26.623 279.76 26.8224 280.306 27.221C280.852 27.6197 281.125 28.248 281.125 29.106C281.125 29.5047 281.038 29.8557 280.865 30.159C280.692 30.4624 280.445 30.7007 280.124 30.874C279.803 31.0387 279.422 31.121 278.98 31.121L278.967 31.043C279.756 31.043 280.375 31.2554 280.826 31.68C281.285 32.096 281.515 32.642 281.515 33.318C281.515 34.1587 281.242 34.7914 280.696 35.216C280.15 35.6407 279.374 35.853 278.369 35.853H274.677ZM275.795 34.761H278.369C279.002 34.761 279.487 34.631 279.825 34.371C280.172 34.111 280.345 33.7384 280.345 33.253C280.345 32.7677 280.172 32.3907 279.825 32.122C279.487 31.8447 279.002 31.706 278.369 31.706H275.795V34.761ZM275.795 30.614H277.849C278.525 30.614 279.045 30.4884 279.409 30.237C279.773 29.977 279.955 29.6174 279.955 29.158C279.955 28.6727 279.777 28.313 279.422 28.079C279.075 27.8364 278.551 27.715 277.849 27.715H275.795V30.614ZM283.255 35.853V26.623H284.347V32.668L287.701 28.963H289.157L286.44 31.888L289.274 35.853H287.948L285.699 32.629L284.347 34.059V35.853H283.255ZM291.818 35.853C291.42 35.853 291.095 35.749 290.843 35.541C290.592 35.333 290.466 35.0037 290.466 34.553V26.623H291.558V34.462C291.558 34.6007 291.593 34.709 291.662 34.787C291.74 34.8564 291.849 34.891 291.987 34.891H292.585V35.853H291.818ZM293.831 35.853V28.963H294.923V35.853H293.831ZM293.805 27.884V26.61H294.949V27.884H293.805ZM299.006 35.853C298.382 35.853 297.918 35.71 297.615 35.424C297.32 35.138 297.173 34.6917 297.173 34.085V27.351H298.265V34.059C298.265 34.371 298.334 34.5877 298.473 34.709C298.612 34.8304 298.824 34.891 299.11 34.891H300.098V35.853H299.006ZM296.159 29.925V28.963H300.098V29.925H296.159ZM304.981 35.853V26.623H308.296C309.327 26.623 310.129 26.87 310.701 27.364C311.273 27.858 311.559 28.5427 311.559 29.418C311.559 30.0074 311.429 30.5187 311.169 30.952C310.909 31.3767 310.536 31.7017 310.051 31.927C309.565 32.1524 308.98 32.265 308.296 32.265H306.099V35.853H304.981ZM306.099 31.173H308.296C308.989 31.173 309.509 31.0257 309.856 30.731C310.211 30.4364 310.389 29.9987 310.389 29.418C310.389 28.8547 310.211 28.43 309.856 28.144C309.509 27.858 308.989 27.715 308.296 27.715H306.099V31.173ZM314.632 35.853C314.233 35.853 313.908 35.749 313.657 35.541C313.405 35.333 313.28 35.0037 313.28 34.553V26.623H314.372V34.462C314.372 34.6007 314.406 34.709 314.476 34.787C314.554 34.8564 314.662 34.891 314.801 34.891H315.399V35.853H314.632ZM318.605 36.009C317.894 36.009 317.326 35.8444 316.902 35.515C316.486 35.1857 316.278 34.7264 316.278 34.137C316.278 33.5477 316.451 33.084 316.798 32.746C317.144 32.408 317.695 32.1697 318.449 32.031L320.893 31.576C320.893 30.9954 320.754 30.562 320.477 30.276C320.208 29.99 319.801 29.847 319.255 29.847C318.778 29.847 318.401 29.9554 318.124 30.172C317.846 30.38 317.656 30.6834 317.552 31.082L316.395 30.991C316.525 30.341 316.837 29.8167 317.331 29.418C317.833 29.0107 318.475 28.807 319.255 28.807C320.139 28.807 320.815 29.0584 321.283 29.561C321.751 30.055 321.985 30.7397 321.985 31.615V34.462C321.985 34.618 322.011 34.7307 322.063 34.8C322.123 34.8607 322.219 34.891 322.349 34.891H322.622V35.853C322.587 35.8617 322.531 35.866 322.453 35.866C322.375 35.8747 322.292 35.879 322.206 35.879C321.894 35.879 321.638 35.8314 321.439 35.736C321.248 35.632 321.109 35.476 321.023 35.268C320.936 35.0514 320.893 34.7697 320.893 34.423L321.023 34.449C320.962 34.7437 320.815 35.0124 320.581 35.255C320.347 35.489 320.056 35.6754 319.71 35.814C319.363 35.944 318.995 36.009 318.605 36.009ZM318.709 35.047C319.168 35.047 319.558 34.9604 319.879 34.787C320.208 34.605 320.459 34.3624 320.633 34.059C320.806 33.747 320.893 33.4004 320.893 33.019V32.525L318.657 32.941C318.189 33.0277 317.864 33.162 317.682 33.344C317.508 33.5174 317.422 33.747 317.422 34.033C317.422 34.3537 317.534 34.605 317.76 34.787C317.994 34.9604 318.31 35.047 318.709 35.047ZM323.887 37.803V36.841H324.68C324.923 36.841 325.101 36.802 325.213 36.724C325.335 36.6547 325.426 36.5377 325.486 36.373L325.733 35.723H325.356L322.834 28.963H324.03L326.084 34.709L328.047 28.963H329.243L326.448 36.724C326.318 37.0967 326.123 37.3697 325.863 37.543C325.603 37.7164 325.244 37.803 324.784 37.803H323.887ZM332.841 37.959C332.347 37.959 331.901 37.8767 331.502 37.712C331.103 37.5474 330.77 37.3134 330.501 37.01C330.232 36.7067 330.05 36.3557 329.955 35.957L331.099 35.879C331.203 36.1997 331.385 36.451 331.645 36.633C331.914 36.8237 332.312 36.919 332.841 36.919C333.465 36.919 333.942 36.7934 334.271 36.542C334.609 36.2907 334.778 35.9137 334.778 35.411V34.293C334.613 34.657 334.349 34.9474 333.985 35.164C333.621 35.3807 333.214 35.489 332.763 35.489C332.182 35.489 331.662 35.346 331.203 35.06C330.752 34.774 330.397 34.3797 330.137 33.877C329.886 33.3744 329.76 32.798 329.76 32.148C329.76 31.4894 329.886 30.913 330.137 30.419C330.388 29.9164 330.735 29.522 331.177 29.236C331.628 28.95 332.139 28.807 332.711 28.807C333.196 28.807 333.63 28.9197 334.011 29.145C334.401 29.3704 334.674 29.6737 334.83 30.055V28.963H335.87V35.385C335.87 35.9224 335.749 36.3817 335.506 36.763C335.263 37.153 334.917 37.4477 334.466 37.647C334.015 37.855 333.474 37.959 332.841 37.959ZM332.815 34.449C333.404 34.449 333.877 34.2454 334.232 33.838C334.587 33.422 334.769 32.8587 334.778 32.148C334.787 31.6714 334.709 31.264 334.544 30.926C334.388 30.5794 334.158 30.315 333.855 30.133C333.56 29.9424 333.214 29.847 332.815 29.847C332.208 29.847 331.736 30.055 331.398 30.471C331.069 30.8784 330.904 31.4374 330.904 32.148C330.904 32.8587 331.073 33.422 331.411 33.838C331.758 34.2454 332.226 34.449 332.815 34.449ZM337.947 35.853V28.963H338.909L338.961 30.705L338.857 30.666C338.943 30.0767 339.13 29.6477 339.416 29.379C339.71 29.1017 340.1 28.963 340.586 28.963H341.262V30.003H340.599C340.252 30.003 339.962 30.068 339.728 30.198C339.502 30.3194 339.329 30.5057 339.208 30.757C339.095 30.9997 339.039 31.3117 339.039 31.693V35.853H337.947ZM345.043 36.009C344.41 36.009 343.856 35.8617 343.379 35.567C342.902 35.2724 342.534 34.8564 342.274 34.319C342.014 33.773 341.884 33.136 341.884 32.408C341.884 31.6714 342.014 31.0344 342.274 30.497C342.534 29.9597 342.902 29.5437 343.379 29.249C343.856 28.9544 344.41 28.807 345.043 28.807C345.676 28.807 346.226 28.9544 346.694 29.249C347.171 29.5437 347.539 29.9597 347.799 30.497C348.059 31.0344 348.189 31.6714 348.189 32.408C348.189 33.136 348.059 33.773 347.799 34.319C347.539 34.8564 347.171 35.2724 346.694 35.567C346.226 35.8617 345.676 36.009 345.043 36.009ZM345.043 34.969C345.676 34.969 346.165 34.7437 346.512 34.293C346.867 33.8337 347.045 33.2054 347.045 32.408C347.045 31.6107 346.867 30.9867 346.512 30.536C346.165 30.0767 345.676 29.847 345.043 29.847C344.41 29.847 343.916 30.0767 343.561 30.536C343.206 30.9867 343.028 31.6107 343.028 32.408C343.028 33.2054 343.206 33.8337 343.561 34.293C343.916 34.7437 344.41 34.969 345.043 34.969ZM351.939 36.009C351.255 36.009 350.704 35.7794 350.288 35.32C349.881 34.852 349.677 34.2107 349.677 33.396V28.963H350.769V33.097C350.769 33.7644 350.886 34.2584 351.12 34.579C351.363 34.891 351.731 35.047 352.225 35.047C352.771 35.047 353.2 34.8737 353.512 34.527C353.824 34.1717 353.98 33.6864 353.98 33.071V28.963H355.072V35.853H354.032V34.15L354.201 34.241C354.063 34.8044 353.798 35.242 353.408 35.554C353.018 35.8574 352.529 36.009 351.939 36.009ZM357.155 35.853V28.963H358.156L358.195 30.718L358.065 30.601C358.151 30.1937 358.303 29.86 358.52 29.6C358.736 29.3314 358.996 29.132 359.3 29.002C359.612 28.872 359.945 28.807 360.301 28.807C360.829 28.807 361.263 28.924 361.601 29.158C361.947 29.392 362.203 29.7084 362.368 30.107C362.541 30.497 362.628 30.9347 362.628 31.42V35.853H361.536V31.732C361.536 31.3074 361.484 30.952 361.38 30.666C361.284 30.3714 361.128 30.1504 360.912 30.003C360.695 29.847 360.413 29.769 360.067 29.769C359.538 29.769 359.1 29.938 358.754 30.276C358.416 30.6054 358.247 31.0907 358.247 31.732V35.853H357.155ZM367 36.009C366.402 36.009 365.882 35.8617 365.44 35.567C365.007 35.2724 364.673 34.8564 364.439 34.319C364.205 33.7817 364.088 33.1447 364.088 32.408C364.088 31.6714 364.205 31.0344 364.439 30.497C364.673 29.9597 365.007 29.5437 365.44 29.249C365.882 28.9544 366.402 28.807 367 28.807C367.459 28.807 367.88 28.9067 368.261 29.106C368.642 29.2967 368.928 29.5697 369.119 29.925V26.623H370.211V35.853H369.223L369.184 34.813C368.993 35.1857 368.703 35.4804 368.313 35.697C367.923 35.905 367.485 36.009 367 36.009ZM367.221 34.969C367.628 34.969 367.971 34.865 368.248 34.657C368.534 34.449 368.751 34.1544 368.898 33.773C369.045 33.383 369.119 32.928 369.119 32.408C369.119 31.8707 369.045 31.4114 368.898 31.03C368.751 30.6487 368.534 30.3584 368.248 30.159C367.971 29.951 367.628 29.847 367.221 29.847C366.614 29.847 366.129 30.0767 365.765 30.536C365.41 30.9867 365.232 31.6107 365.232 32.408C365.232 33.1967 365.41 33.8207 365.765 34.28C366.129 34.7394 366.614 34.969 367.221 34.969Z" fill="white"/>
<path d="M393.245 32.9564L396.323 36.0512L399.4 32.9564M393.245 29.2427L396.323 26.1479L399.4 29.2427" stroke="#707388" stroke-linecap="round" stroke-linejoin="round"/>
<rect x="1845.32" y="15.2178" width="31" height="31" rx="4.5" fill="#0F1014" stroke="#1D1E27"/>
<path d="M1859.69 37.263C1859.8 37.4671 1859.96 37.6373 1860.16 37.7558C1860.36 37.8744 1860.59 37.9369 1860.82 37.9369C1861.05 37.9369 1861.28 37.8744 1861.48 37.7558C1861.68 37.6373 1861.84 37.4671 1861.95 37.263M1856.82 28.5488C1856.82 27.4821 1857.24 26.4591 1857.99 25.7049C1858.74 24.9506 1859.76 24.5269 1860.82 24.5269C1861.88 24.5269 1862.9 24.9506 1863.65 25.7049C1864.4 26.4591 1864.82 27.4821 1864.82 28.5488C1864.82 33.2411 1866.82 34.5817 1866.82 34.5817H1854.82C1854.82 34.5817 1856.82 33.2411 1856.82 28.5488Z" stroke="#717489" stroke-linecap="round" stroke-linejoin="round"/>
<circle cx="1904.74" cy="31.0527" r="15.5" fill="url(#paint6_radial_369_67)" stroke="#1D1E27"/>
<defs>
<linearGradient id="paint0_linear_369_67" x1="41.9023" y1="30.9287" x2="26.9023" y2="30.9287" gradientUnits="userSpaceOnUse">
<stop stop-color="white"/>
<stop offset="0.482775" stop-color="white" stop-opacity="0.8"/>
<stop offset="1" stop-color="white"/>
</linearGradient>
<linearGradient id="paint1_linear_369_67" x1="34.4023" y1="45.9287" x2="43.7773" y2="27.2086" gradientUnits="userSpaceOnUse">
<stop stop-color="white"/>
<stop offset="1" stop-color="white" stop-opacity="0.5"/>
</linearGradient>
<linearGradient id="paint2_linear_369_67" x1="34.4023" y1="45.9287" x2="25.0273" y2="27.2086" gradientUnits="userSpaceOnUse">
<stop stop-color="#787878" stop-opacity="0"/>
<stop offset="0.745192" stop-color="#787878" stop-opacity="0.5"/>
</linearGradient>
<linearGradient id="paint3_linear_369_67" x1="34.4023" y1="15.9287" x2="25.0273" y2="34.6488" gradientUnits="userSpaceOnUse">
<stop stop-color="white"/>
<stop offset="1" stop-color="white" stop-opacity="0.5"/>
</linearGradient>
<linearGradient id="paint4_linear_369_67" x1="34.4023" y1="15.9287" x2="43.7773" y2="34.6488" gradientUnits="userSpaceOnUse">
<stop stop-color="#787878" stop-opacity="0"/>
<stop offset="0.75" stop-color="#787878" stop-opacity="0.5"/>
</linearGradient>
<radialGradient id="paint5_radial_369_67" cx="0" cy="0" r="1" gradientUnits="userSpaceOnUse" gradientTransform="translate(75.7541 27.6267) rotate(47.6195) scale(10.751)">
<stop stop-color="#00FBFF"/>
<stop offset="1" stop-color="#251E74"/>
</radialGradient>
<radialGradient id="paint6_radial_369_67" cx="0" cy="0" r="1" gradientUnits="userSpaceOnUse" gradientTransform="translate(1895.94 20.8411) rotate(49.0957) scale(30.633)">
<stop stop-color="#18CDFF"/>
<stop offset="1" stop-color="#002E79"/>
</radialGradient>
</defs>
</svg>
