<svg width="120" height="41" viewBox="0 0 120 41" fill="none" xmlns="http://www.w3.org/2000/svg">
<path d="M115.657 28.1744V24.0977H120V28.1744H115.657Z" fill="white"/>
<path d="M109.621 28.1746C108.146 28.1746 107.063 27.8371 106.37 27.1621C105.677 26.4693 105.331 25.3768 105.331 23.8847V10.5352H109.327V23.405C109.327 24.0978 109.47 24.5686 109.754 24.8173C110.056 25.0659 110.5 25.1903 111.086 25.1903H113.084V28.1746H109.621ZM103.039 16.8768V13.8925H113.084V16.8768H103.039Z" fill="white"/>
<path d="M96.9916 28.1747V13.8926H100.988V28.1747H96.9916ZM96.9116 12.134V8.93652H101.042V12.134H96.9116Z" fill="white"/>
<path d="M92.5776 28.1743C91.4052 28.1743 90.4903 27.8812 89.8331 27.295C89.1758 26.7088 88.8472 25.7584 88.8472 24.4439V9.25586H92.844V24.0176C92.844 24.4439 92.9417 24.7459 93.1371 24.9235C93.3325 25.1012 93.6168 25.19 93.9898 25.19H94.949V28.1743H92.5776Z" fill="white"/>
<path d="M72.9219 28.1743V9.25586H76.9187V19.7543L82.2212 13.8922H87.0175L81.4751 19.7809L87.1773 28.1743H82.8074L78.8905 22.0458L76.9187 24.1508V28.1743H72.9219Z" fill="white"/>
<path d="M54.6079 28.1743V9.25586H61.9621C64.3069 9.25586 66.1011 9.67331 67.3446 10.5082C68.588 11.3253 69.2098 12.6221 69.2098 14.3985C69.2098 15.1801 69.0499 15.864 68.7301 16.4502C68.4104 17.0186 67.9396 17.4716 67.3179 17.8091C66.7139 18.1466 65.9767 18.3509 65.1063 18.422V18.3687C66.6873 18.4753 67.8952 18.9371 68.7301 19.7543C69.5828 20.5536 70.0091 21.6195 70.0091 22.9518C70.0091 24.7104 69.3874 26.0249 68.1439 26.8953C66.9182 27.748 65.1596 28.1743 62.8681 28.1743H54.6079ZM58.6581 24.8702H62.6816C63.6586 24.8702 64.4402 24.6748 65.0264 24.284C65.6304 23.8755 65.9323 23.2715 65.9323 22.4721C65.9323 21.6728 65.6304 21.0688 65.0264 20.6602C64.4402 20.2339 63.6586 20.0207 62.6816 20.0207H58.6581V24.8702ZM58.6581 17.0897H61.8555C62.8503 17.0897 63.6408 16.8943 64.227 16.5035C64.831 16.1127 65.133 15.5531 65.133 14.8248C65.133 14.0432 64.8399 13.4748 64.2537 13.1195C63.6852 12.7464 62.8858 12.5599 61.8555 12.5599H58.6581V17.0897Z" fill="white"/>
<rect x="20.0938" y="0.000488281" width="7.10417" height="7.10417" transform="rotate(45 20.0938 0.000488281)" fill="#D9D9D9"/>
<rect opacity="0.8" x="25.1172" y="5.02344" width="7.10417" height="7.10417" transform="rotate(45 25.1172 5.02344)" fill="#D9D9D9"/>
<rect opacity="0.6" x="30.1406" y="10.0469" width="7.10417" height="7.10417" transform="rotate(45 30.1406 10.0469)" fill="#D9D9D9"/>
<rect opacity="0.4" x="35.1636" y="15.0703" width="7.10417" height="7.10417" transform="rotate(45 35.1636 15.0703)" fill="#D9D9D9"/>
<rect opacity="0.8" x="15.0703" y="5.02344" width="7.10417" height="7.10417" transform="rotate(45 15.0703 5.02344)" fill="#D9D9D9"/>
<rect opacity="0.6" x="20.0938" y="10.0469" width="7.10417" height="7.10417" transform="rotate(45 20.0938 10.0469)" fill="#D9D9D9"/>
<rect opacity="0.4" x="25.1172" y="15.0703" width="7.10417" height="7.10417" transform="rotate(45 25.1172 15.0703)" fill="#D9D9D9"/>
<rect opacity="0.2" x="30.1406" y="20.0938" width="7.10417" height="7.10417" transform="rotate(45 30.1406 20.0938)" fill="#D9D9D9"/>
<rect opacity="0.6" x="10.0469" y="10.0469" width="7.10417" height="7.10417" transform="rotate(45 10.0469 10.0469)" fill="#D9D9D9"/>
<rect opacity="0.4" x="15.0703" y="15.0703" width="7.10417" height="7.10417" transform="rotate(45 15.0703 15.0703)" fill="#D9D9D9"/>
<rect opacity="0.2" x="20.0938" y="20.0938" width="7.10417" height="7.10417" transform="rotate(45 20.0938 20.0938)" fill="#D9D9D9"/>
<rect opacity="0.1" x="25.1172" y="25.1172" width="7.10417" height="7.10417" transform="rotate(45 25.1172 25.1172)" fill="#D9D9D9"/>
<rect opacity="0.4" x="5.02344" y="15.0703" width="7.10417" height="7.10417" transform="rotate(45 5.02344 15.0703)" fill="#D9D9D9"/>
<rect opacity="0.2" x="10.0469" y="20.0938" width="7.10417" height="7.10417" transform="rotate(45 10.0469 20.0938)" fill="#D9D9D9"/>
<rect opacity="0.1" x="15.0703" y="25.1172" width="7.10417" height="7.10417" transform="rotate(45 15.0703 25.1172)" fill="#D9D9D9"/>
</svg>
