<svg width="473" height="256" viewBox="0 0 473 256" fill="none" xmlns="http://www.w3.org/2000/svg">
<g clip-path="url(#clip0_375_64)">
<g style="mix-blend-mode:luminosity">
<path d="M78.166 127.905C78.166 127.905 86.7628 113.693 106.589 113.693C125.073 113.693 135.013 127.905 135.013 127.905C135.013 127.905 126.323 142.117 106.589 142.117C88.2203 142.117 78.166 127.905 78.166 127.905Z" fill="url(#paint0_linear_375_64)"/>
</g>
<g style="mix-blend-mode:luminosity">
<path d="M142.119 149.223C142.119 166.393 128.8 184.752 106.59 184.752V142.117C106.59 142.117 124.424 143 135.013 127.905C140.414 135.129 142.119 142.67 142.119 149.223Z" fill="url(#paint1_linear_375_64)"/>
</g>
<path d="M71.0607 149.223C71.0607 166.393 84.38 184.752 106.59 184.752V142.117C106.59 142.117 89.96 143.047 78.1665 127.905C72.766 135.129 71.0607 142.67 71.0607 149.223Z" fill="url(#paint2_linear_375_64)"/>
<path d="M71.0607 106.588C71.0607 89.4173 84.38 71.0586 106.59 71.0586L106.59 113.694C106.59 113.694 88.7559 112.81 78.1665 127.905C72.766 120.682 71.0607 113.141 71.0607 106.588Z" fill="url(#paint3_linear_375_64)"/>
<path d="M142.119 106.588C142.119 89.4173 128.8 71.0586 106.59 71.0586L106.59 113.694C106.59 113.694 123.363 112.827 135.013 127.905C140.414 120.682 142.119 113.141 142.119 106.588Z" fill="url(#paint4_linear_375_64)"/>
<path d="M387.344 157.664V144.067H401.83V157.664H387.344Z" fill="white"/>
<path d="M367.211 157.665C362.293 157.665 358.679 156.539 356.369 154.288C354.058 151.977 352.903 148.333 352.903 143.357V98.832H366.233V141.757C366.233 144.068 366.707 145.638 367.655 146.467C368.663 147.297 370.144 147.711 372.099 147.711H378.764V157.665H367.211ZM345.26 119.983V110.03H378.764V119.983H345.26Z" fill="white"/>
<path d="M325.093 157.664V110.029H338.424V157.664H325.093ZM324.826 104.164V93.499H338.601V104.164H324.826Z" fill="white"/>
<path d="M310.366 157.664C306.455 157.664 303.404 156.687 301.212 154.731C299.02 152.776 297.924 149.607 297.924 145.222V94.5654H311.255V143.8C311.255 145.222 311.58 146.229 312.232 146.822C312.884 147.414 313.832 147.711 315.076 147.711H318.275V157.664H310.366Z" fill="white"/>
<path d="M244.811 157.664V94.5654H258.141V129.581L275.827 110.029H291.824L273.338 129.67L292.357 157.664H277.782L264.718 137.224L258.141 144.245V157.664H244.811Z" fill="white"/>
<path d="M183.727 157.664V94.5654H208.255C216.076 94.5654 222.06 95.9577 226.207 98.7424C230.354 101.468 232.428 105.793 232.428 111.718C232.428 114.325 231.895 116.606 230.828 118.561C229.762 120.457 228.192 121.967 226.118 123.093C224.104 124.219 221.645 124.9 218.742 125.137V124.959C224.015 125.315 228.044 126.855 230.828 129.581C233.672 132.247 235.094 135.802 235.094 140.245C235.094 146.111 233.021 150.495 228.873 153.398C224.785 156.242 218.92 157.664 211.277 157.664H183.727ZM197.235 146.644H210.655C213.913 146.644 216.52 145.992 218.475 144.689C220.49 143.326 221.497 141.312 221.497 138.646C221.497 135.98 220.49 133.965 218.475 132.602C216.52 131.18 213.913 130.47 210.655 130.47H197.235V146.644ZM197.235 120.694H207.9C211.217 120.694 213.854 120.042 215.809 118.738C217.824 117.435 218.831 115.569 218.831 113.14C218.831 110.533 217.853 108.637 215.898 107.452C214.002 106.208 211.336 105.585 207.9 105.585H197.235V120.694Z" fill="white"/>
<g opacity="0.2">
<path d="M35.5293 70.0586V71.0586C35.1952 71.0586 34.8622 71.0521 34.5303 71.043L34.5576 70.0449C34.8804 70.0538 35.2043 70.0586 35.5293 70.0586ZM36.5273 71.043C36.1958 71.0521 35.8631 71.0586 35.5293 71.0586V70.0586C35.8542 70.0586 36.1782 70.0538 36.501 70.0449L36.5273 71.043ZM30.6982 69.7236C31.3343 69.8126 31.9763 69.8846 32.623 69.9385L32.5811 70.4355L32.54 70.9316C31.8745 70.8762 31.2142 70.8026 30.5596 70.7109L30.6982 69.7236ZM40.3604 69.7236L40.4971 70.7109C39.8427 70.8025 39.1828 70.8762 38.5176 70.9316L38.4766 70.4365L38.4355 69.9385C39.0823 69.8846 39.7243 69.8126 40.3604 69.7236ZM26.9014 68.9727C27.5239 69.1328 28.1534 69.2756 28.7891 69.4014L28.5957 70.3799C27.9411 70.2504 27.2925 70.1054 26.6514 69.9404L26.9014 68.9727ZM44.4062 69.9404C43.7651 70.1053 43.1165 70.2504 42.4619 70.3799L42.2695 69.4014C42.9052 69.2756 43.5347 69.1328 44.1572 68.9727L44.4062 69.9404ZM23.2119 67.7969C23.8134 68.0266 24.423 68.24 25.04 68.4365L24.7969 69.1982L24.7363 69.3867C24.1013 69.1845 23.4745 68.964 22.8555 68.7275L23.2119 67.7969ZM48.2021 68.7275C47.5831 68.964 46.9564 69.1845 46.3213 69.3867L46.2617 69.1982L46.0186 68.4365C46.6356 68.24 47.2452 68.0266 47.8467 67.7969L48.2021 68.7275ZM19.6787 66.2139C20.2509 66.51 20.8326 66.7911 21.4229 67.0557L21.0137 67.9658C20.4061 67.6935 19.8077 67.4045 19.2188 67.0996L19.6787 66.2139ZM51.8389 67.0996C51.2499 67.4045 50.6516 67.6935 50.0439 67.9658L49.6357 67.0557C50.226 66.7911 50.8077 66.51 51.3799 66.2139L51.8389 67.0996ZM16.3447 64.2432C16.8807 64.602 17.4278 64.9464 17.9844 65.2754L17.4766 66.1338C16.9038 65.7952 16.3406 65.4425 15.7891 65.0732L16.3447 64.2432ZM54.9922 64.6592L55.2686 65.0732C54.717 65.4425 54.1538 65.7952 53.5811 66.1338L53.0742 65.2754C53.6308 64.9464 54.1779 64.602 54.7139 64.2432L54.9922 64.6592ZM13.252 61.9121C13.7449 62.3288 14.2496 62.7321 14.7656 63.1211L14.165 63.918C13.6338 63.5175 13.1149 63.1018 12.6074 62.6729L13.252 61.9121ZM58.4502 62.6729C57.9427 63.1018 57.4238 63.5175 56.8926 63.918L56.293 63.1211C56.809 62.7321 57.3137 62.3288 57.8066 61.9121L58.4502 62.6729ZM10.4375 59.251C10.8813 59.7203 11.3383 60.1773 11.8076 60.6211L11.1211 61.3457C10.6384 60.8891 10.1685 60.4193 9.71191 59.9365L10.4375 59.251ZM61.3457 59.9365C60.8891 60.4193 60.4193 60.8891 59.9365 61.3457L59.251 60.6211C59.7203 60.1773 60.1773 59.7203 60.6211 59.251L61.3457 59.9365ZM7.9375 56.293C8.32646 56.809 8.7298 57.3137 9.14648 57.8066L8.38477 58.4502C7.95582 57.9427 7.54006 57.4238 7.13965 56.8926L7.9375 56.293ZM63.918 56.8926C63.5175 57.4238 63.1018 57.9427 62.6729 58.4502L61.9121 57.8066C62.3288 57.3137 62.7321 56.809 63.1211 56.293L63.918 56.8926ZM5.7832 53.0742C6.11221 53.6308 6.45662 54.1779 6.81543 54.7139L5.98438 55.2686C5.61516 54.717 5.26239 54.1538 4.92383 53.5811L5.7832 53.0742ZM66.1338 53.5811C65.7952 54.1538 65.4425 54.717 65.0732 55.2686L64.2432 54.7139C64.602 54.1779 64.9464 53.6308 65.2754 53.0742L66.1338 53.5811ZM4.00293 49.6357C4.26746 50.226 4.54855 50.8077 4.84473 51.3799L4.40039 51.6094L3.95801 51.8389C3.65315 51.2499 3.36409 50.6515 3.0918 50.0439L4.00293 49.6357ZM67.9658 50.0439C67.6935 50.6516 67.4045 51.2499 67.0996 51.8389L66.6572 51.6104L66.2139 51.3799C66.51 50.8077 66.7911 50.226 67.0557 49.6357L67.9658 50.0439ZM2.62207 46.0186C2.81858 46.6356 3.03199 47.2452 3.26172 47.8467L2.33008 48.2021C2.09366 47.5832 1.87314 46.9563 1.6709 46.3213L2.62207 46.0186ZM69.3867 46.3213C69.1845 46.9564 68.964 47.5831 68.7275 48.2021L68.2637 48.0254L67.7969 47.8467C68.0266 47.2452 68.24 46.6356 68.4365 46.0186L69.3867 46.3213ZM1.65723 42.2695C1.78298 42.9052 1.92582 43.5347 2.08594 44.1572L1.11719 44.4062C0.952286 43.7651 0.807211 43.1165 0.677734 42.4619L1.65723 42.2695ZM70.3799 42.4619C70.2504 43.1165 70.1053 43.7651 69.9404 44.4062L68.9727 44.1572C69.1328 43.5347 69.2756 42.9052 69.4014 42.2695L70.3799 42.4619ZM70.9316 38.5176C70.8762 39.1832 70.8026 39.8434 70.7109 40.498L69.7236 40.3604C69.8126 39.7243 69.8846 39.0823 69.9385 38.4355L70.9316 38.5176ZM1.12012 38.4355C1.17399 39.0823 1.24595 39.7243 1.33496 40.3604L0.838867 40.4287L0.839844 40.4297L0.34668 40.4971C0.255128 39.8427 0.181379 39.1828 0.125977 38.5176L1.12012 38.4355ZM0 35.5293C0 35.1952 0.0054849 34.8622 0.0146484 34.5303L1.01367 34.5576C1.00476 34.8804 1 35.2043 1 35.5293C1 35.8542 1.00476 36.1782 1.01367 36.501L0.0146484 36.5273C0.0055028 36.1958 0 35.8631 0 35.5293ZM71.0586 35.5293C71.0586 35.8631 71.0521 36.1958 71.043 36.5273L70.0449 36.501C70.0538 36.1782 70.0586 35.8542 70.0586 35.5293C70.0586 35.2044 70.0538 34.8804 70.0449 34.5576L71.043 34.5303C71.0521 34.8622 71.0586 35.1952 71.0586 35.5293ZM1.33496 30.6982C1.24595 31.3343 1.17399 31.9763 1.12012 32.623L0.62207 32.5811L0.125977 32.54C0.181424 31.8745 0.255048 31.2142 0.34668 30.5596L1.33496 30.6982ZM70.7109 30.5605C70.8025 31.2149 70.8762 31.8748 70.9316 32.54L70.4365 32.582L70.4355 32.5811L69.9385 32.623C69.8846 31.9763 69.8126 31.3343 69.7236 30.6982L70.2188 30.6289L70.7109 30.5605ZM1.11816 26.6523L2.08594 26.9014C1.92581 27.5239 1.78298 28.1534 1.65723 28.7891L0.677734 28.5957C0.807228 27.9411 0.95227 27.2925 1.11719 26.6514L1.11816 26.6523ZM69.9404 26.6514C70.1054 27.2925 70.2504 27.9411 70.3799 28.5957L69.4014 28.7891C69.2756 28.1534 69.1328 27.5239 68.9727 26.9014L69.9404 26.6514ZM3.26172 23.2119C3.03199 23.8134 2.81858 24.423 2.62207 25.04L1.6709 24.7363C1.87315 24.1013 2.09364 23.4744 2.33008 22.8555L3.26172 23.2119ZM68.7275 22.8555C68.964 23.4745 69.1845 24.1013 69.3867 24.7363L68.4365 25.04C68.24 24.423 68.0266 23.8134 67.7969 23.2119L68.7275 22.8555ZM4.40137 19.4482L4.84473 19.6787C4.54856 20.2509 4.26746 20.8326 4.00293 21.4229L3.0918 21.0137C3.36411 20.4061 3.65314 19.8077 3.95801 19.2188L4.40137 19.4482ZM67.0996 19.2188C67.4045 19.8077 67.6935 20.4061 67.9658 21.0137L67.0557 21.4229C66.7911 20.8326 66.51 20.2509 66.2139 19.6787L67.0996 19.2188ZM6.81543 16.3447C6.45662 16.8807 6.11221 17.4278 5.7832 17.9844L4.92383 17.4766C5.26239 16.9038 5.61516 16.3406 5.98438 15.7891L6.81543 16.3447ZM65.0732 15.7891C65.4425 16.3406 65.7952 16.9038 66.1338 17.4766L65.2754 17.9844C64.9464 17.4278 64.602 16.8807 64.2432 16.3447L65.0732 15.7891ZM9.14648 13.252C8.7298 13.7449 8.32646 14.2496 7.9375 14.7656L7.13965 14.165C7.54006 13.6338 7.95582 13.1149 8.38477 12.6074L9.14648 13.252ZM62.6729 12.6074C63.1018 13.1149 63.5175 13.6338 63.918 14.165L63.1211 14.7656C62.7321 14.2496 62.3288 13.7449 61.9121 13.252L62.6729 12.6074ZM11.8076 10.4375C11.3383 10.8813 10.8813 11.3383 10.4375 11.8076L9.71191 11.1211C10.1685 10.6384 10.6384 10.1685 11.1211 9.71191L11.8076 10.4375ZM59.9365 9.71191C60.4193 10.1685 60.8891 10.6384 61.3457 11.1211L60.6211 11.8076C60.1773 11.3383 59.7203 10.8813 59.251 10.4375L59.9365 9.71191ZM14.7656 7.9375C14.2496 8.32646 13.7449 8.7298 13.252 9.14648L12.6074 8.38477C13.1149 7.95582 13.6338 7.54006 14.165 7.13965L14.7656 7.9375ZM56.8926 7.13965C57.4238 7.54006 57.9427 7.95582 58.4502 8.38477L57.8066 9.14648C57.3137 8.7298 56.809 8.32646 56.293 7.9375L56.8926 7.13965ZM17.9844 5.7832C17.4278 6.11221 16.8807 6.45662 16.3447 6.81543L15.7891 5.98438C16.3406 5.61516 16.9038 5.26239 17.4766 4.92383L17.9844 5.7832ZM53.5811 4.92383C54.1538 5.26239 54.717 5.61516 55.2686 5.98438L54.7139 6.81543C54.1779 6.45662 53.6308 6.11221 53.0742 5.7832L53.5811 4.92383ZM21.4229 4.00293C20.8326 4.26746 20.2509 4.54855 19.6787 4.84473L19.2188 3.95801C19.8077 3.65314 20.4061 3.36411 21.0137 3.0918L21.4229 4.00293ZM50.0439 3.0918C50.6515 3.36409 51.2499 3.65315 51.8389 3.95801L51.6104 4.40137L51.6094 4.40039L51.3799 4.84473C50.8077 4.54856 50.226 4.26746 49.6357 4.00293L50.0439 3.0918ZM25.04 2.62207C24.423 2.81858 23.8134 3.03199 23.2119 3.26172L22.8555 2.33008C23.4744 2.09364 24.1013 1.87315 24.7363 1.6709L25.04 2.62207ZM46.3213 1.6709C46.9563 1.87314 47.5832 2.09366 48.2021 2.33008L47.8467 3.26172C47.2452 3.03199 46.6356 2.81858 46.0186 2.62207L46.3213 1.6709ZM28.7891 1.65723C28.1534 1.78298 27.5239 1.92582 26.9014 2.08594L26.6523 1.11816L26.6514 1.11719C27.2925 0.95227 27.9411 0.807228 28.5957 0.677734L28.7891 1.65723ZM42.4619 0.677734C43.1165 0.807211 43.7651 0.952286 44.4062 1.11719L44.1572 2.08594C43.5347 1.92581 42.9052 1.78298 42.2695 1.65723L42.4619 0.677734ZM32.623 1.12012C31.9763 1.17399 31.3343 1.24595 30.6982 1.33496L30.6289 0.838867L30.5605 0.34668C31.2149 0.25511 31.8748 0.181396 32.54 0.125977L32.623 1.12012ZM38.5176 0.125977C39.1831 0.181406 39.8434 0.255066 40.498 0.34668L40.3604 1.33496C39.7243 1.24595 39.0823 1.17399 38.4355 1.12012L38.4863 0.513672L38.5176 0.125977ZM35.5293 0C35.8631 0 36.1958 0.0055028 36.5273 0.0146484L36.501 1.01367C36.1782 1.00476 35.8542 1 35.5293 1C35.2044 1 34.8804 1.00476 34.5576 1.01367L34.5303 0.0146484C34.8622 0.0054849 35.1952 0 35.5293 0Z" fill="white"/>
<path d="M437.359 70.0586V71.0586C437.025 71.0586 436.692 71.0521 436.36 71.043L436.388 70.0449C436.71 70.0538 437.034 70.0586 437.359 70.0586ZM438.357 71.043C438.026 71.0521 437.693 71.0586 437.359 71.0586V70.0586C437.684 70.0586 438.008 70.0538 438.331 70.0449L438.357 71.043ZM432.528 69.7236C433.164 69.8126 433.806 69.8846 434.453 69.9385L434.411 70.4355L434.37 70.9316C433.705 70.8762 433.044 70.8026 432.39 70.7109L432.528 69.7236ZM442.19 69.7236L442.327 70.7109C441.673 70.8025 441.013 70.8762 440.348 70.9316L440.307 70.4365L440.266 69.9385C440.912 69.8846 441.554 69.8126 442.19 69.7236ZM428.731 68.9727C429.354 69.1328 429.983 69.2756 430.619 69.4014L430.426 70.3799C429.771 70.2504 429.123 70.1054 428.481 69.9404L428.731 68.9727ZM446.236 69.9404C445.595 70.1053 444.947 70.2504 444.292 70.3799L444.1 69.4014C444.735 69.2756 445.365 69.1328 445.987 68.9727L446.236 69.9404ZM425.042 67.7969C425.643 68.0266 426.253 68.24 426.87 68.4365L426.627 69.1982L426.566 69.3867C425.931 69.1845 425.305 68.964 424.686 68.7275L425.042 67.7969ZM450.032 68.7275C449.413 68.964 448.786 69.1845 448.151 69.3867L448.092 69.1982L447.849 68.4365C448.466 68.24 449.075 68.0266 449.677 67.7969L450.032 68.7275ZM421.509 66.2139C422.081 66.51 422.663 66.7911 423.253 67.0557L422.844 67.9658C422.236 67.6935 421.638 67.4045 421.049 67.0996L421.509 66.2139ZM453.669 67.0996C453.08 67.4045 452.482 67.6935 451.874 67.9658L451.466 67.0557C452.056 66.7911 452.638 66.51 453.21 66.2139L453.669 67.0996ZM418.175 64.2432C418.711 64.602 419.258 64.9464 419.814 65.2754L419.307 66.1338C418.734 65.7952 418.171 65.4425 417.619 65.0732L418.175 64.2432ZM456.822 64.6592L457.099 65.0732C456.547 65.4425 455.984 65.7952 455.411 66.1338L454.904 65.2754C455.461 64.9464 456.008 64.602 456.544 64.2432L456.822 64.6592ZM415.082 61.9121C415.575 62.3288 416.08 62.7321 416.596 63.1211L415.995 63.918C415.464 63.5175 414.945 63.1018 414.438 62.6729L415.082 61.9121ZM460.28 62.6729C459.773 63.1018 459.254 63.5175 458.723 63.918L458.123 63.1211C458.639 62.7321 459.144 62.3288 459.637 61.9121L460.28 62.6729ZM412.268 59.251C412.711 59.7203 413.168 60.1773 413.638 60.6211L412.951 61.3457C412.468 60.8891 411.999 60.4193 411.542 59.9365L412.268 59.251ZM463.176 59.9365C462.719 60.4193 462.249 60.8891 461.767 61.3457L461.081 60.6211C461.55 60.1773 462.007 59.7203 462.451 59.251L463.176 59.9365ZM409.768 56.293C410.157 56.809 410.56 57.3137 410.977 57.8066L410.215 58.4502C409.786 57.9427 409.37 57.4238 408.97 56.8926L409.768 56.293ZM465.748 56.8926C465.348 57.4238 464.932 57.9427 464.503 58.4502L463.742 57.8066C464.159 57.3137 464.562 56.809 464.951 56.293L465.748 56.8926ZM407.613 53.0742C407.942 53.6308 408.287 54.1779 408.646 54.7139L407.814 55.2686C407.445 54.717 407.092 54.1538 406.754 53.5811L407.613 53.0742ZM467.964 53.5811C467.625 54.1538 467.273 54.717 466.903 55.2686L466.073 54.7139C466.432 54.1779 466.776 53.6308 467.105 53.0742L467.964 53.5811ZM405.833 49.6357C406.098 50.226 406.379 50.8077 406.675 51.3799L406.23 51.6094L405.788 51.8389C405.483 51.2499 405.194 50.6515 404.922 50.0439L405.833 49.6357ZM469.796 50.0439C469.524 50.6516 469.235 51.2499 468.93 51.8389L468.487 51.6104L468.044 51.3799C468.34 50.8077 468.621 50.226 468.886 49.6357L469.796 50.0439ZM404.452 46.0186C404.649 46.6356 404.862 47.2452 405.092 47.8467L404.16 48.2021C403.924 47.5832 403.703 46.9563 403.501 46.3213L404.452 46.0186ZM471.217 46.3213C471.015 46.9564 470.794 47.5831 470.558 48.2021L470.094 48.0254L469.627 47.8467C469.857 47.2452 470.07 46.6356 470.267 46.0186L471.217 46.3213ZM403.487 42.2695C403.613 42.9052 403.756 43.5347 403.916 44.1572L402.947 44.4062C402.782 43.7651 402.637 43.1165 402.508 42.4619L403.487 42.2695ZM472.21 42.4619C472.08 43.1165 471.935 43.7651 471.771 44.4062L470.803 44.1572C470.963 43.5347 471.106 42.9052 471.231 42.2695L472.21 42.4619ZM472.762 38.5176C472.706 39.1832 472.633 39.8434 472.541 40.498L471.554 40.3604C471.643 39.7243 471.715 39.0823 471.769 38.4355L472.762 38.5176ZM402.95 38.4355C403.004 39.0823 403.076 39.7243 403.165 40.3604L402.669 40.4287L402.67 40.4297L402.177 40.4971C402.085 39.8427 402.011 39.1828 401.956 38.5176L402.95 38.4355ZM401.83 35.5293C401.83 35.1952 401.836 34.8622 401.845 34.5303L402.844 34.5576C402.835 34.8804 402.83 35.2043 402.83 35.5293C402.83 35.8542 402.835 36.1782 402.844 36.501L401.845 36.5273C401.836 36.1958 401.83 35.8631 401.83 35.5293ZM472.889 35.5293C472.889 35.8631 472.882 36.1958 472.873 36.5273L471.875 36.501C471.884 36.1782 471.889 35.8542 471.889 35.5293C471.889 35.2044 471.884 34.8804 471.875 34.5576L472.873 34.5303C472.882 34.8622 472.889 35.1952 472.889 35.5293ZM403.165 30.6982C403.076 31.3343 403.004 31.9763 402.95 32.623L402.452 32.5811L401.956 32.54C402.012 31.8745 402.085 31.2142 402.177 30.5596L403.165 30.6982ZM472.541 30.5605C472.633 31.2149 472.706 31.8748 472.762 32.54L472.267 32.582L472.266 32.5811L471.769 32.623C471.715 31.9763 471.643 31.3343 471.554 30.6982L472.049 30.6289L472.541 30.5605ZM402.948 26.6523L403.916 26.9014C403.756 27.5239 403.613 28.1534 403.487 28.7891L402.508 28.5957C402.637 27.9411 402.782 27.2925 402.947 26.6514L402.948 26.6523ZM471.771 26.6514C471.935 27.2925 472.08 27.9411 472.21 28.5957L471.231 28.7891C471.106 28.1534 470.963 27.5239 470.803 26.9014L471.771 26.6514ZM405.092 23.2119C404.862 23.8134 404.649 24.423 404.452 25.04L403.501 24.7363C403.703 24.1013 403.924 23.4744 404.16 22.8555L405.092 23.2119ZM470.558 22.8555C470.794 23.4745 471.015 24.1013 471.217 24.7363L470.267 25.04C470.07 24.423 469.857 23.8134 469.627 23.2119L470.558 22.8555ZM406.231 19.4482L406.675 19.6787C406.379 20.2509 406.098 20.8326 405.833 21.4229L404.922 21.0137C405.194 20.4061 405.483 19.8077 405.788 19.2188L406.231 19.4482ZM468.93 19.2188C469.235 19.8077 469.524 20.4061 469.796 21.0137L468.886 21.4229C468.621 20.8326 468.34 20.2509 468.044 19.6787L468.93 19.2188ZM408.646 16.3447C408.287 16.8807 407.942 17.4278 407.613 17.9844L406.754 17.4766C407.092 16.9038 407.445 16.3406 407.814 15.7891L408.646 16.3447ZM466.903 15.7891C467.273 16.3406 467.625 16.9038 467.964 17.4766L467.105 17.9844C466.776 17.4278 466.432 16.8807 466.073 16.3447L466.903 15.7891ZM410.977 13.252C410.56 13.7449 410.157 14.2496 409.768 14.7656L408.97 14.165C409.37 13.6338 409.786 13.1149 410.215 12.6074L410.977 13.252ZM464.503 12.6074C464.932 13.1149 465.348 13.6338 465.748 14.165L464.951 14.7656C464.562 14.2496 464.159 13.7449 463.742 13.252L464.503 12.6074ZM413.638 10.4375C413.168 10.8813 412.711 11.3383 412.268 11.8076L411.542 11.1211C411.999 10.6384 412.468 10.1685 412.951 9.71191L413.638 10.4375ZM461.767 9.71191C462.249 10.1685 462.719 10.6384 463.176 11.1211L462.451 11.8076C462.007 11.3383 461.55 10.8813 461.081 10.4375L461.767 9.71191ZM416.596 7.9375C416.08 8.32646 415.575 8.7298 415.082 9.14648L414.438 8.38477C414.945 7.95582 415.464 7.54006 415.995 7.13965L416.596 7.9375ZM458.723 7.13965C459.254 7.54006 459.773 7.95582 460.28 8.38477L459.637 9.14648C459.144 8.7298 458.639 8.32646 458.123 7.9375L458.723 7.13965ZM419.814 5.7832C419.258 6.11221 418.711 6.45662 418.175 6.81543L417.619 5.98438C418.171 5.61516 418.734 5.26239 419.307 4.92383L419.814 5.7832ZM455.411 4.92383C455.984 5.26239 456.547 5.61516 457.099 5.98438L456.544 6.81543C456.008 6.45662 455.461 6.11221 454.904 5.7832L455.411 4.92383ZM423.253 4.00293C422.663 4.26746 422.081 4.54855 421.509 4.84473L421.049 3.95801C421.638 3.65314 422.236 3.36411 422.844 3.0918L423.253 4.00293ZM451.874 3.0918C452.482 3.36409 453.08 3.65315 453.669 3.95801L453.44 4.40137L453.439 4.40039L453.21 4.84473C452.638 4.54856 452.056 4.26746 451.466 4.00293L451.874 3.0918ZM426.87 2.62207C426.253 2.81858 425.643 3.03199 425.042 3.26172L424.686 2.33008C425.305 2.09364 425.931 1.87315 426.566 1.6709L426.87 2.62207ZM448.151 1.6709C448.786 1.87314 449.413 2.09366 450.032 2.33008L449.677 3.26172C449.075 3.03199 448.466 2.81858 447.849 2.62207L448.151 1.6709ZM430.619 1.65723C429.983 1.78298 429.354 1.92582 428.731 2.08594L428.482 1.11816L428.481 1.11719C429.123 0.95227 429.771 0.807228 430.426 0.677734L430.619 1.65723ZM444.292 0.677734C444.947 0.807211 445.595 0.952286 446.236 1.11719L445.987 2.08594C445.365 1.92581 444.735 1.78298 444.1 1.65723L444.292 0.677734ZM434.453 1.12012C433.806 1.17399 433.164 1.24595 432.528 1.33496L432.459 0.838867L432.391 0.34668C433.045 0.25511 433.705 0.181396 434.37 0.125977L434.453 1.12012ZM440.348 0.125977C441.013 0.181406 441.673 0.255066 442.328 0.34668L442.19 1.33496C441.554 1.24595 440.912 1.17399 440.266 1.12012L440.316 0.513672L440.348 0.125977ZM437.359 0C437.693 0 438.026 0.0055028 438.357 0.0146484L438.331 1.01367C438.008 1.00476 437.684 1 437.359 1C437.034 1 436.71 1.00476 436.388 1.01367L436.36 0.0146484C436.692 0.0054849 437.025 0 437.359 0Z" fill="white"/>
<path d="M437.359 254.811V255.811C437.025 255.811 436.692 255.804 436.36 255.795L436.388 254.797C436.71 254.806 437.034 254.811 437.359 254.811ZM438.357 255.795C438.026 255.804 437.693 255.811 437.359 255.811V254.811C437.684 254.811 438.008 254.806 438.331 254.797L438.357 255.795ZM432.528 254.476C433.164 254.565 433.806 254.637 434.453 254.69L434.411 255.188L434.37 255.684C433.705 255.628 433.044 255.555 432.39 255.463L432.528 254.476ZM442.19 254.476L442.327 255.463C441.673 255.554 441.013 255.628 440.348 255.684L440.307 255.188L440.266 254.69C440.912 254.637 441.554 254.565 442.19 254.476ZM428.731 253.725C429.354 253.885 429.983 254.028 430.619 254.153L430.426 255.132C429.771 255.002 429.123 254.857 428.481 254.692L428.731 253.725ZM446.236 254.692C445.595 254.857 444.947 255.002 444.292 255.132L444.1 254.153C444.735 254.028 445.365 253.885 445.987 253.725L446.236 254.692ZM425.042 252.549C425.643 252.779 426.253 252.992 426.87 253.188L426.627 253.95L426.566 254.139C425.931 253.936 425.305 253.716 424.686 253.479L425.042 252.549ZM450.032 253.479C449.413 253.716 448.786 253.936 448.151 254.139L448.092 253.95L447.849 253.188C448.466 252.992 449.075 252.779 449.677 252.549L450.032 253.479ZM421.509 250.966C422.081 251.262 422.663 251.543 423.253 251.808L422.844 252.718C422.236 252.445 421.638 252.156 421.049 251.852L421.509 250.966ZM453.669 251.852C453.08 252.156 452.482 252.445 451.874 252.718L451.466 251.808C452.056 251.543 452.638 251.262 453.21 250.966L453.669 251.852ZM418.175 248.995C418.711 249.354 419.258 249.698 419.814 250.027L419.307 250.886C418.734 250.547 418.171 250.194 417.619 249.825L418.175 248.995ZM456.822 249.411L457.099 249.825C456.547 250.194 455.984 250.547 455.411 250.886L454.904 250.027C455.461 249.698 456.008 249.354 456.544 248.995L456.822 249.411ZM415.082 246.664C415.575 247.081 416.08 247.484 416.596 247.873L415.995 248.67C415.464 248.269 414.945 247.854 414.438 247.425L415.082 246.664ZM460.28 247.425C459.773 247.854 459.254 248.269 458.723 248.67L458.123 247.873C458.639 247.484 459.144 247.081 459.637 246.664L460.28 247.425ZM412.268 244.003C412.711 244.472 413.168 244.929 413.638 245.373L412.951 246.098C412.468 245.641 411.999 245.171 411.542 244.688L412.268 244.003ZM463.176 244.688C462.719 245.171 462.249 245.641 461.767 246.098L461.081 245.373C461.55 244.929 462.007 244.472 462.451 244.003L463.176 244.688ZM409.768 241.045C410.157 241.561 410.56 242.066 410.977 242.559L410.215 243.202C409.786 242.695 409.37 242.176 408.97 241.645L409.768 241.045ZM465.748 241.645C465.348 242.176 464.932 242.695 464.503 243.202L463.742 242.559C464.159 242.066 464.562 241.561 464.951 241.045L465.748 241.645ZM407.613 237.826C407.942 238.383 408.287 238.93 408.646 239.466L407.814 240.021C407.445 239.469 407.092 238.906 406.754 238.333L407.613 237.826ZM467.964 238.333C467.625 238.906 467.273 239.469 466.903 240.021L466.073 239.466C466.432 238.93 466.776 238.383 467.105 237.826L467.964 238.333ZM405.833 234.388C406.098 234.978 406.379 235.56 406.675 236.132L406.23 236.361L405.788 236.591C405.483 236.002 405.194 235.403 404.922 234.796L405.833 234.388ZM469.796 234.796C469.524 235.404 469.235 236.002 468.93 236.591L468.487 236.362L468.044 236.132C468.34 235.56 468.621 234.978 468.886 234.388L469.796 234.796ZM404.452 230.771C404.649 231.388 404.862 231.997 405.092 232.599L404.16 232.954C403.924 232.335 403.703 231.708 403.501 231.073L404.452 230.771ZM471.217 231.073C471.015 231.708 470.794 232.335 470.558 232.954L470.094 232.777L469.627 232.599C469.857 231.997 470.07 231.388 470.267 230.771L471.217 231.073ZM403.487 227.021C403.613 227.657 403.756 228.287 403.916 228.909L402.947 229.158C402.782 228.517 402.637 227.868 402.508 227.214L403.487 227.021ZM472.21 227.214C472.08 227.868 471.935 228.517 471.771 229.158L470.803 228.909C470.963 228.287 471.106 227.657 471.231 227.021L472.21 227.214ZM472.762 223.27C472.706 223.935 472.633 224.595 472.541 225.25L471.554 225.112C471.643 224.476 471.715 223.834 471.769 223.188L472.762 223.27ZM402.95 223.188C403.004 223.834 403.076 224.476 403.165 225.112L402.669 225.181L402.67 225.182L402.177 225.249C402.085 224.595 402.011 223.935 401.956 223.27L402.95 223.188ZM401.83 220.281C401.83 219.947 401.836 219.614 401.845 219.282L402.844 219.31C402.835 219.632 402.83 219.956 402.83 220.281C402.83 220.606 402.835 220.93 402.844 221.253L401.845 221.279C401.836 220.948 401.83 220.615 401.83 220.281ZM472.889 220.281C472.889 220.615 472.882 220.948 472.873 221.279L471.875 221.253C471.884 220.93 471.889 220.606 471.889 220.281C471.889 219.956 471.884 219.632 471.875 219.31L472.873 219.282C472.882 219.614 472.889 219.947 472.889 220.281ZM403.165 215.45C403.076 216.086 403.004 216.728 402.95 217.375L402.452 217.333L401.956 217.292C402.012 216.626 402.085 215.966 402.177 215.312L403.165 215.45ZM472.541 215.312C472.633 215.967 472.706 216.627 472.762 217.292L472.267 217.334L472.266 217.333L471.769 217.375C471.715 216.728 471.643 216.086 471.554 215.45L472.049 215.381L472.541 215.312ZM402.948 211.404L403.916 211.653C403.756 212.276 403.613 212.905 403.487 213.541L402.508 213.348C402.637 212.693 402.782 212.044 402.947 211.403L402.948 211.404ZM471.771 211.403C471.935 212.044 472.08 212.693 472.21 213.348L471.231 213.541C471.106 212.905 470.963 212.276 470.803 211.653L471.771 211.403ZM405.092 207.964C404.862 208.565 404.649 209.175 404.452 209.792L403.501 209.488C403.703 208.853 403.924 208.226 404.16 207.607L405.092 207.964ZM470.558 207.607C470.794 208.226 471.015 208.853 471.217 209.488L470.267 209.792C470.07 209.175 469.857 208.565 469.627 207.964L470.558 207.607ZM406.231 204.2L406.675 204.431C406.379 205.003 406.098 205.585 405.833 206.175L404.922 205.766C405.194 205.158 405.483 204.56 405.788 203.971L406.231 204.2ZM468.93 203.971C469.235 204.56 469.524 205.158 469.796 205.766L468.886 206.175C468.621 205.585 468.34 205.003 468.044 204.431L468.93 203.971ZM408.646 201.097C408.287 201.633 407.942 202.18 407.613 202.736L406.754 202.229C407.092 201.656 407.445 201.093 407.814 200.541L408.646 201.097ZM466.903 200.541C467.273 201.093 467.625 201.656 467.964 202.229L467.105 202.736C466.776 202.18 466.432 201.633 466.073 201.097L466.903 200.541ZM410.977 198.004C410.56 198.497 410.157 199.002 409.768 199.518L408.97 198.917C409.37 198.386 409.786 197.867 410.215 197.359L410.977 198.004ZM464.503 197.359C464.932 197.867 465.348 198.386 465.748 198.917L464.951 199.518C464.562 199.002 464.159 198.497 463.742 198.004L464.503 197.359ZM413.638 195.189C413.168 195.633 412.711 196.09 412.268 196.56L411.542 195.873C411.999 195.39 412.468 194.92 412.951 194.464L413.638 195.189ZM461.767 194.464C462.249 194.92 462.719 195.39 463.176 195.873L462.451 196.56C462.007 196.09 461.55 195.633 461.081 195.189L461.767 194.464ZM416.596 192.689C416.08 193.078 415.575 193.482 415.082 193.898L414.438 193.137C414.945 192.708 415.464 192.292 415.995 191.892L416.596 192.689ZM458.723 191.892C459.254 192.292 459.773 192.708 460.28 193.137L459.637 193.898C459.144 193.482 458.639 193.078 458.123 192.689L458.723 191.892ZM419.814 190.535C419.258 190.864 418.711 191.209 418.175 191.567L417.619 190.736C418.171 190.367 418.734 190.014 419.307 189.676L419.814 190.535ZM455.411 189.676C455.984 190.014 456.547 190.367 457.099 190.736L456.544 191.567C456.008 191.209 455.461 190.864 454.904 190.535L455.411 189.676ZM423.253 188.755C422.663 189.019 422.081 189.301 421.509 189.597L421.049 188.71C421.638 188.405 422.236 188.116 422.844 187.844L423.253 188.755ZM451.874 187.844C452.482 188.116 453.08 188.405 453.669 188.71L453.44 189.153L453.439 189.152L453.21 189.597C452.638 189.301 452.056 189.019 451.466 188.755L451.874 187.844ZM426.87 187.374C426.253 187.571 425.643 187.784 425.042 188.014L424.686 187.082C425.305 186.846 425.931 186.625 426.566 186.423L426.87 187.374ZM448.151 186.423C448.786 186.625 449.413 186.846 450.032 187.082L449.677 188.014C449.075 187.784 448.466 187.571 447.849 187.374L448.151 186.423ZM430.619 186.409C429.983 186.535 429.354 186.678 428.731 186.838L428.482 185.87L428.481 185.869C429.123 185.704 429.771 185.559 430.426 185.43L430.619 186.409ZM444.292 185.43C444.947 185.559 445.595 185.704 446.236 185.869L445.987 186.838C445.365 186.678 444.735 186.535 444.1 186.409L444.292 185.43ZM434.453 185.872C433.806 185.926 433.164 185.998 432.528 186.087L432.459 185.591L432.391 185.099C433.045 185.007 433.705 184.933 434.37 184.878L434.453 185.872ZM440.348 184.878C441.013 184.933 441.673 185.007 442.328 185.099L442.19 186.087C441.554 185.998 440.912 185.926 440.266 185.872L440.316 185.266L440.348 184.878ZM437.359 184.752C437.693 184.752 438.026 184.757 438.357 184.767L438.331 185.766C438.008 185.757 437.684 185.752 437.359 185.752C437.034 185.752 436.71 185.757 436.388 185.766L436.36 184.767C436.692 184.757 437.025 184.752 437.359 184.752Z" fill="white"/>
<path d="M35.5293 254.957V255.957C35.1952 255.957 34.8622 255.951 34.5303 255.941L34.5576 254.943C34.8804 254.952 35.2043 254.957 35.5293 254.957ZM36.5273 255.941C36.1958 255.951 35.8631 255.957 35.5293 255.957V254.957C35.8542 254.957 36.1782 254.952 36.501 254.943L36.5273 255.941ZM30.6982 254.622C31.3343 254.711 31.9763 254.783 32.623 254.837L32.5811 255.334L32.54 255.83C31.8745 255.775 31.2142 255.701 30.5596 255.609L30.6982 254.622ZM40.3604 254.622L40.4971 255.609C39.8427 255.701 39.1828 255.775 38.5176 255.83L38.4766 255.335L38.4355 254.837C39.0823 254.783 39.7243 254.711 40.3604 254.622ZM26.9014 253.871C27.5239 254.031 28.1534 254.174 28.7891 254.3L28.5957 255.278C27.9411 255.149 27.2925 255.004 26.6514 254.839L26.9014 253.871ZM44.4062 254.839C43.7651 255.004 43.1165 255.149 42.4619 255.278L42.2695 254.3C42.9052 254.174 43.5347 254.031 44.1572 253.871L44.4062 254.839ZM23.2119 252.695C23.8134 252.925 24.423 253.138 25.04 253.335L24.7969 254.097L24.7363 254.285C24.1013 254.083 23.4745 253.862 22.8555 253.626L23.2119 252.695ZM48.2021 253.626C47.5831 253.862 46.9564 254.083 46.3213 254.285L46.2617 254.097L46.0186 253.335C46.6356 253.138 47.2452 252.925 47.8467 252.695L48.2021 253.626ZM19.6787 251.112C20.2509 251.408 20.8326 251.69 21.4229 251.954L21.0137 252.864C20.4061 252.592 19.8077 252.303 19.2188 251.998L19.6787 251.112ZM51.8389 251.998C51.2499 252.303 50.6516 252.592 50.0439 252.864L49.6357 251.954C50.226 251.69 50.8077 251.408 51.3799 251.112L51.8389 251.998ZM16.3447 249.142C16.8807 249.5 17.4278 249.845 17.9844 250.174L17.4766 251.032C16.9038 250.694 16.3406 250.341 15.7891 249.972L16.3447 249.142ZM54.9922 249.558L55.2686 249.972C54.717 250.341 54.1538 250.694 53.5811 251.032L53.0742 250.174C53.6308 249.845 54.1779 249.5 54.7139 249.142L54.9922 249.558ZM13.252 246.811C13.7449 247.227 14.2496 247.631 14.7656 248.02L14.165 248.816C13.6338 248.416 13.1149 248 12.6074 247.571L13.252 246.811ZM58.4502 247.571C57.9427 248 57.4238 248.416 56.8926 248.816L56.293 248.02C56.809 247.631 57.3137 247.227 57.8066 246.811L58.4502 247.571ZM10.4375 244.149C10.8813 244.619 11.3383 245.076 11.8076 245.52L11.1211 246.244C10.6384 245.788 10.1685 245.318 9.71191 244.835L10.4375 244.149ZM61.3457 244.835C60.8891 245.318 60.4193 245.788 59.9365 246.244L59.251 245.52C59.7203 245.076 60.1773 244.619 60.6211 244.149L61.3457 244.835ZM7.9375 241.191C8.32646 241.707 8.7298 242.212 9.14648 242.705L8.38477 243.349C7.95582 242.841 7.54006 242.322 7.13965 241.791L7.9375 241.191ZM63.918 241.791C63.5175 242.322 63.1018 242.841 62.6729 243.349L61.9121 242.705C62.3288 242.212 62.7321 241.707 63.1211 241.191L63.918 241.791ZM5.7832 237.973C6.11221 238.529 6.45662 239.076 6.81543 239.612L5.98438 240.167C5.61516 239.615 5.26239 239.052 4.92383 238.479L5.7832 237.973ZM66.1338 238.479C65.7952 239.052 65.4425 239.615 65.0732 240.167L64.2432 239.612C64.602 239.076 64.9464 238.529 65.2754 237.973L66.1338 238.479ZM4.00293 234.534C4.26746 235.124 4.54855 235.706 4.84473 236.278L4.40039 236.508L3.95801 236.737C3.65315 236.148 3.36409 235.55 3.0918 234.942L4.00293 234.534ZM67.9658 234.942C67.6935 235.55 67.4045 236.148 67.0996 236.737L66.6572 236.509L66.2139 236.278C66.51 235.706 66.7911 235.124 67.0557 234.534L67.9658 234.942ZM2.62207 230.917C2.81858 231.534 3.03199 232.144 3.26172 232.745L2.33008 233.101C2.09366 232.482 1.87314 231.855 1.6709 231.22L2.62207 230.917ZM69.3867 231.22C69.1845 231.855 68.964 232.482 68.7275 233.101L68.2637 232.924L67.7969 232.745C68.0266 232.144 68.24 231.534 68.4365 230.917L69.3867 231.22ZM1.65723 227.168C1.78298 227.804 1.92582 228.433 2.08594 229.056L1.11719 229.305C0.952286 228.664 0.807211 228.015 0.677734 227.36L1.65723 227.168ZM70.3799 227.36C70.2504 228.015 70.1053 228.664 69.9404 229.305L68.9727 229.056C69.1328 228.433 69.2756 227.804 69.4014 227.168L70.3799 227.36ZM70.9316 223.416C70.8762 224.082 70.8026 224.742 70.7109 225.396L69.7236 225.259C69.8126 224.623 69.8846 223.981 69.9385 223.334L70.9316 223.416ZM1.12012 223.334C1.17399 223.981 1.24595 224.623 1.33496 225.259L0.838867 225.327L0.839844 225.328L0.34668 225.396C0.255128 224.741 0.181379 224.081 0.125977 223.416L1.12012 223.334ZM0 220.428C0 220.094 0.0054849 219.761 0.0146484 219.429L1.01367 219.456C1.00476 219.779 1 220.103 1 220.428C1 220.753 1.00476 221.077 1.01367 221.399L0.0146484 221.426C0.0055028 221.094 0 220.762 0 220.428ZM71.0586 220.428C71.0586 220.762 71.0521 221.094 71.043 221.426L70.0449 221.399C70.0538 221.077 70.0586 220.753 70.0586 220.428C70.0586 220.103 70.0538 219.779 70.0449 219.456L71.043 219.429C71.0521 219.761 71.0586 220.094 71.0586 220.428ZM1.33496 215.597C1.24595 216.233 1.17399 216.875 1.12012 217.521L0.62207 217.479L0.125977 217.438C0.181424 216.773 0.255048 216.113 0.34668 215.458L1.33496 215.597ZM70.7109 215.459C70.8025 216.113 70.8762 216.773 70.9316 217.438L70.4365 217.48L70.4355 217.479L69.9385 217.521C69.8846 216.875 69.8126 216.233 69.7236 215.597L70.2188 215.527L70.7109 215.459ZM1.11816 211.551L2.08594 211.8C1.92581 212.422 1.78298 213.052 1.65723 213.688L0.677734 213.494C0.807228 212.84 0.95227 212.191 1.11719 211.55L1.11816 211.551ZM69.9404 211.55C70.1054 212.191 70.2504 212.84 70.3799 213.494L69.4014 213.688C69.2756 213.052 69.1328 212.422 68.9727 211.8L69.9404 211.55ZM3.26172 208.11C3.03199 208.712 2.81858 209.321 2.62207 209.938L1.6709 209.635C1.87315 209 2.09364 208.373 2.33008 207.754L3.26172 208.11ZM68.7275 207.754C68.964 208.373 69.1845 209 69.3867 209.635L68.4365 209.938C68.24 209.321 68.0266 208.712 67.7969 208.11L68.7275 207.754ZM4.40137 204.347L4.84473 204.577C4.54856 205.149 4.26746 205.731 4.00293 206.321L3.0918 205.912C3.36411 205.305 3.65314 204.706 3.95801 204.117L4.40137 204.347ZM67.0996 204.117C67.4045 204.706 67.6935 205.305 67.9658 205.912L67.0557 206.321C66.7911 205.731 66.51 205.149 66.2139 204.577L67.0996 204.117ZM6.81543 201.243C6.45662 201.779 6.11221 202.326 5.7832 202.883L4.92383 202.375C5.26239 201.802 5.61516 201.239 5.98438 200.688L6.81543 201.243ZM65.0732 200.688C65.4425 201.239 65.7952 201.802 66.1338 202.375L65.2754 202.883C64.9464 202.326 64.602 201.779 64.2432 201.243L65.0732 200.688ZM9.14648 198.15C8.7298 198.643 8.32646 199.148 7.9375 199.664L7.13965 199.063C7.54006 198.532 7.95582 198.013 8.38477 197.506L9.14648 198.15ZM62.6729 197.506C63.1018 198.013 63.5175 198.532 63.918 199.063L63.1211 199.664C62.7321 199.148 62.3288 198.643 61.9121 198.15L62.6729 197.506ZM11.8076 195.336C11.3383 195.78 10.8813 196.237 10.4375 196.706L9.71191 196.02C10.1685 195.537 10.6384 195.067 11.1211 194.61L11.8076 195.336ZM59.9365 194.61C60.4193 195.067 60.8891 195.537 61.3457 196.02L60.6211 196.706C60.1773 196.237 59.7203 195.78 59.251 195.336L59.9365 194.61ZM14.7656 192.836C14.2496 193.225 13.7449 193.628 13.252 194.045L12.6074 193.283C13.1149 192.854 13.6338 192.438 14.165 192.038L14.7656 192.836ZM56.8926 192.038C57.4238 192.438 57.9427 192.854 58.4502 193.283L57.8066 194.045C57.3137 193.628 56.809 193.225 56.293 192.836L56.8926 192.038ZM17.9844 190.682C17.4278 191.011 16.8807 191.355 16.3447 191.714L15.7891 190.883C16.3406 190.514 16.9038 190.161 17.4766 189.822L17.9844 190.682ZM53.5811 189.822C54.1538 190.161 54.717 190.514 55.2686 190.883L54.7139 191.714C54.1779 191.355 53.6308 191.011 53.0742 190.682L53.5811 189.822ZM21.4229 188.901C20.8326 189.166 20.2509 189.447 19.6787 189.743L19.2188 188.856C19.8077 188.552 20.4061 188.263 21.0137 187.99L21.4229 188.901ZM50.0439 187.99C50.6515 188.263 51.2499 188.552 51.8389 188.856L51.6104 189.3L51.6094 189.299L51.3799 189.743C50.8077 189.447 50.226 189.166 49.6357 188.901L50.0439 187.99ZM25.04 187.521C24.423 187.717 23.8134 187.93 23.2119 188.16L22.8555 187.229C23.4744 186.992 24.1013 186.772 24.7363 186.569L25.04 187.521ZM46.3213 186.569C46.9563 186.772 47.5832 186.992 48.2021 187.229L47.8467 188.16C47.2452 187.93 46.6356 187.717 46.0186 187.521L46.3213 186.569ZM28.7891 186.556C28.1534 186.681 27.5239 186.824 26.9014 186.984L26.6523 186.017L26.6514 186.016C27.2925 185.851 27.9411 185.706 28.5957 185.576L28.7891 186.556ZM42.4619 185.576C43.1165 185.706 43.7651 185.851 44.4062 186.016L44.1572 186.984C43.5347 186.824 42.9052 186.681 42.2695 186.556L42.4619 185.576ZM32.623 186.019C31.9763 186.072 31.3343 186.144 30.6982 186.233L30.6289 185.737L30.5605 185.245C31.2149 185.154 31.8748 185.08 32.54 185.024L32.623 186.019ZM38.5176 185.024C39.1831 185.08 39.8434 185.154 40.498 185.245L40.3604 186.233C39.7243 186.144 39.0823 186.072 38.4355 186.019L38.4863 185.412L38.5176 185.024ZM35.5293 184.898C35.8631 184.898 36.1958 184.904 36.5273 184.913L36.501 185.912C36.1782 185.903 35.8542 185.898 35.5293 185.898C35.2044 185.898 34.8804 185.903 34.5576 185.912L34.5303 184.913C34.8622 184.904 35.1952 184.898 35.5293 184.898Z" fill="white"/>
<path d="M1 254.811V254.816H1.00195V255.811H0V254.811H1ZM5.01074 254.816V255.811H3.00684V254.816H5.01074ZM9.01953 254.816V255.811H7.01465V254.816H9.01953ZM13.0273 254.816V255.811H11.0234V254.816H13.0273ZM17.0361 254.816V255.811H15.0322V254.816H17.0361ZM21.0449 254.816V255.811H19.04V254.816H21.0449ZM25.0527 254.816V255.811H23.0488V254.816H25.0527ZM29.0615 254.816V255.811H27.0576V254.816H29.0615ZM33.0703 254.816V255.811H31.0654V254.816H33.0703ZM37.0781 254.816V255.811H35.0742V254.816H37.0781ZM41.0869 254.816V255.811H39.083V254.816H41.0869ZM45.0957 254.816V255.811H43.0908V254.816H45.0957ZM49.1035 254.816V255.811H47.0996V254.816H49.1035ZM53.1123 254.816V255.811H51.1084V254.816H53.1123ZM57.1211 254.816V255.811H55.1162V254.816H57.1211ZM61.1289 254.816V255.811H59.125V254.816H61.1289ZM65.1377 254.816V255.811H63.1338V254.816H65.1377ZM69.1465 254.816V255.811H67.1416V254.816H69.1465ZM73.1543 254.816V255.811H71.1504V254.816H73.1543ZM77.1631 254.816V255.811H75.1592V254.816H77.1631ZM81.1719 254.816V255.811H79.167V254.816H81.1719ZM85.1797 254.816V255.811H83.1758V254.816H85.1797ZM89.1885 254.816V255.811H87.1846V254.816H89.1885ZM93.1973 254.816V255.811H91.1924V254.816H93.1973ZM97.2051 254.816V255.811H95.2012V254.816H97.2051ZM101.214 254.816V255.811H99.21V254.816H101.214ZM105.223 254.816V255.811H103.218V254.816H105.223ZM109.23 254.816V255.811H107.227V254.816H109.23ZM113.239 254.816V255.811H111.235V254.816H113.239ZM117.248 254.816V255.811H115.243V254.816H117.248ZM121.256 254.816V255.811H119.252V254.816H121.256ZM125.265 254.816V255.811H123.261V254.816H125.265ZM129.273 254.816V255.811H127.269V254.816H129.273ZM133.281 254.816V255.811H131.277V254.816H133.281ZM137.29 254.816V255.811H135.286V254.816H137.29ZM141.299 254.816V255.811H139.295V254.816H141.299ZM145.308 254.816V255.811H143.303V254.816H145.308ZM149.315 254.816V255.811H147.312V254.816H149.315ZM153.324 254.816V255.811H151.32V254.816H153.324ZM157.333 254.816V255.811H155.328V254.816H157.333ZM161.341 254.816V255.811H159.337V254.816H161.341ZM165.35 254.816V255.811H163.346V254.816H165.35ZM169.358 254.816V255.811H167.354V254.816H169.358ZM173.366 254.816V255.811H171.362V254.816H173.366ZM177.375 254.816V255.811H175.371V254.816H177.375ZM181.384 254.816V255.811H179.379V254.816H181.384ZM185.392 254.816V255.811H183.388V254.816H185.392ZM189.4 254.816V255.811H187.396V254.816H189.4ZM193.409 254.816V255.811H191.404V254.816H193.409ZM197.417 254.816V255.811H195.413V254.816H197.417ZM201.426 254.816V255.811H199.422V254.816H201.426ZM205.435 254.816V255.811H203.431V254.816H205.435ZM209.443 254.816V255.811H207.438V254.816H209.443ZM213.451 254.816V255.811H211.447V254.816H213.451ZM217.46 254.816V255.811H215.456V254.816H217.46ZM221.469 254.816V255.811H219.464V254.816H221.469ZM225.477 254.816V255.811H223.473V254.816H225.477ZM229.485 254.816V255.811H227.481V254.816H229.485ZM233.494 254.816V255.811H231.489V254.816H233.494ZM237.502 254.816V255.811H235.498V254.816H237.502ZM241.511 254.816V255.811H239.507V254.816H241.511ZM245.52 254.816V255.811H243.515V254.816H245.52ZM249.527 254.816V255.811H247.523V254.816H249.527ZM253.536 254.816V255.811H251.532V254.816H253.536ZM257.545 254.816V255.811H255.54V254.816H257.545ZM261.553 254.816V255.811H259.549V254.816H261.553ZM265.562 254.816V255.811H263.558V254.816H265.562ZM269.57 254.816V255.811H267.566V254.816H269.57ZM273.579 254.816V255.811H271.574V254.816H273.579ZM277.587 254.816V255.811H275.583V254.816H277.587ZM281.596 254.816V255.811H279.592V254.816H281.596ZM285.604 254.816V255.811H283.6V254.816H285.604ZM289.612 254.816V255.811H287.608V254.816H289.612ZM293.621 254.816V255.811H291.617V254.816H293.621ZM297.63 254.816V255.811H295.625V254.816H297.63ZM301.638 254.816V255.811H299.634V254.816H301.638ZM305.646 254.816V255.811H303.643V254.816H305.646ZM309.655 254.816V255.811H307.65V254.816H309.655ZM313.663 254.816V255.811H311.659V254.816H313.663ZM317.672 254.816V255.811H315.668V254.816H317.672ZM321.681 254.816V255.811H319.676V254.816H321.681ZM325.688 254.816V255.811H323.685V254.816H325.688ZM329.697 254.816V255.811H327.693V254.816H329.697ZM333.706 254.816V255.811H331.702V254.816H333.706ZM337.715 254.816V255.811H335.71V254.816H337.715ZM341.723 254.816V255.811H339.719V254.816H341.723ZM345.731 254.816V255.811H343.728V254.816H345.731ZM349.74 254.816V255.811H347.735V254.816H349.74ZM353.748 254.816V255.811H351.744V254.816H353.748ZM357.757 254.816V255.811H355.753V254.816H357.757ZM361.766 254.816V255.811H359.761V254.816H361.766ZM365.773 254.816V255.811H363.77V254.816H365.773ZM369.782 254.816V255.811H367.778V254.816H369.782ZM373.791 254.816V255.811H371.786V254.816H373.791ZM377.799 254.816V255.811H375.795V254.816H377.799ZM381.808 254.816V255.811H379.804V254.816H381.808ZM385.816 254.816V255.811H383.812V254.816H385.816ZM389.824 254.816V255.811H387.82V254.816H389.824ZM393.833 254.816V255.811H391.829V254.816H393.833ZM397.842 254.816V255.811H395.838V254.816H397.842ZM401.851 254.816V255.811H399.846V254.816H401.851ZM405.858 254.816V255.811H403.854V254.816H405.858ZM409.867 254.816V255.811H407.863V254.816H409.867ZM413.876 254.816V255.811H411.871V254.816H413.876ZM417.884 254.816V255.811H415.88V254.816H417.884ZM421.893 254.816V255.811H419.889V254.816H421.893ZM425.901 254.816V255.811H423.896V254.816H425.901ZM429.909 254.816V255.811H427.905V254.816H429.909ZM433.918 254.816V255.811H431.914V254.816H433.918ZM437.927 254.816V255.811H435.922V254.816H437.927ZM441.935 254.816V255.811H439.931V254.816H441.935ZM445.943 254.816V255.811H443.939V254.816H445.943ZM449.952 254.816V255.811H447.947V254.816H449.952ZM453.96 254.816V255.811H451.956V254.816H453.96ZM457.969 254.816V255.811H455.965V254.816H457.969ZM461.978 254.816V255.811H459.973V254.816H461.978ZM465.986 254.816V255.811H463.981V254.816H465.986ZM469.994 254.816V255.811H467.99V254.816H469.994ZM473 254.811V255.811H471.999V254.816H472V254.811H473ZM1 250.814V252.813H0V250.814H1ZM473 250.814V252.813H472V250.814H473ZM1 246.817V248.816H0V246.817H1ZM473 246.817V248.816H472V246.817H473ZM1 242.82V244.819H0V242.82H1ZM473 242.82V244.819H472V242.82H473ZM1 238.823V240.821H0V238.823H1ZM473 238.823V240.821H472V238.823H473ZM1 234.826V236.825H0V234.826H1ZM473 234.826V236.825H472V234.826H473ZM1 230.829V232.828H0V230.829H1ZM473 230.829V232.828H472V230.829H473ZM1 226.832V228.83H0V226.832H1ZM473 226.832V228.83H472V226.832H473ZM1 222.835V224.834H0V222.835H1ZM473 222.835V224.834H472V222.835H473ZM1 218.838V220.836H0V218.838H1ZM473 218.838V220.836H472V218.838H473ZM1 214.841V216.839H0V214.841H1ZM473 214.841V216.839H472V214.841H473ZM1 210.844V212.843H0V210.844H1ZM473 210.844V212.843H472V210.844H473ZM1 206.847V208.845H0V206.847H1ZM473 206.847V208.845H472V206.847H473ZM1 202.85V204.848H0V202.85H1ZM473 202.85V204.848H472V202.85H473ZM1 198.853V200.851H0V198.853H1ZM473 198.853V200.851H472V198.853H473ZM1 194.855V196.854H0V194.855H1ZM473 194.855V196.854H472V194.855H473ZM1 190.859V192.857H0V190.859H1ZM473 190.859V192.857H472V190.859H473ZM1 186.862V188.86H0V186.862H1ZM473 186.862V188.86H472V186.862H473ZM1 182.864V184.863H0V182.864H1ZM473 182.864V184.863H472V182.864H473ZM1 178.868V180.866H0V178.868H1ZM473 178.868V180.866H472V178.868H473ZM1 174.871V176.869H0V174.871H1ZM473 174.871V176.869H472V174.871H473ZM1 170.873V172.872H0V170.873H1ZM473 170.873V172.872H472V170.873H473ZM1 166.877V168.875H0V166.877H1ZM473 166.877V168.875H472V166.877H473ZM1 162.88V164.878H0V162.88H1ZM473 162.88V164.878H472V162.88H473ZM1 158.882V160.881H0V158.882H1ZM473 158.882V160.881H472V158.882H473ZM1 154.885V156.884H0V154.885H1ZM473 154.885V156.884H472V154.885H473ZM1 150.888V152.887H0V150.888H1ZM473 150.888V152.887H472V150.888H473ZM1 146.891V148.889H0V146.891H1ZM473 146.891V148.889H472V146.891H473ZM1 142.894V144.893H0V142.894H1ZM473 142.894V144.893H472V142.894H473ZM1 138.897V140.896H0V138.897H1ZM473 138.897V140.896H472V138.897H473ZM1 134.9V136.898H0V134.9H1ZM473 134.9V136.898H472V134.9H473ZM1 130.903V132.902H0V130.903H1ZM473 130.903V132.902H472V130.903H473ZM1 126.906V128.905H0V126.906H1ZM473 126.906V128.905H472V126.906H473ZM1 122.909V124.907H0V122.909H1ZM473 122.909V124.907H472V122.909H473ZM1 118.912V120.911H0V118.912H1ZM473 118.912V120.911H472V118.912H473ZM1 114.915V116.914H0V114.915H1ZM473 114.915V116.914H472V114.915H473ZM1 110.918V112.916H0V110.918H1ZM473 110.918V112.916H472V110.918H473ZM1 106.921V108.919H0V106.921H1ZM473 106.921V108.919H472V106.921H473ZM1 102.923V104.923H0V102.923H1ZM473 102.923V104.923H472V102.923H473ZM1 98.9267V100.925H0V98.9267H1ZM473 98.9267V100.925H472V98.9267H473ZM1 94.93V96.9284H0V94.93H1ZM473 94.93V96.9284H472V94.93H473ZM1 90.9323V92.9307H0V90.9323H1ZM473 90.9323V92.9307H472V90.9323H473ZM1 86.9356V88.934H0V86.9356H1ZM473 86.9356V88.934H472V86.9356H473ZM1 82.9389V84.9373H0V82.9389H1ZM473 82.9389V84.9373H472V82.9389H473ZM1 78.9413V80.9396H0V78.9413H1ZM473 78.9413V80.9396H472V78.9413H473ZM1 74.9445V76.9429H0V74.9445H1ZM473 74.9445V76.9429H472V74.9445H473ZM1 70.9478V72.9462H0V70.9478H1ZM473 70.9478V72.9462H472V70.9478H473ZM1 66.9502V68.9485H0V66.9502H1ZM473 66.9502V68.9485H472V66.9502H473ZM1 62.9535V64.9518H0V62.9535H1ZM473 62.9535V64.9518H472V62.9535H473ZM1 58.9568V60.9551H0V58.9568H1ZM473 58.9568V60.9551H472V58.9568H473ZM1 54.9591V56.9574H0V54.9591H1ZM473 54.9591V56.9574H472V54.9591H473ZM1 50.9624V52.9607H0V50.9624H1ZM473 50.9624V52.9607H472V50.9624H473ZM1 46.9657V48.964H0V46.9657H1ZM473 46.9657V48.964H472V46.9657H473ZM1 42.968V44.9663H0V42.968H1ZM473 42.968V44.9663H472V42.968H473ZM1 38.9713V40.9696H0V38.9713H1ZM473 38.9713V40.9696H472V38.9713H473ZM1 34.9746V36.9729H0V34.9746H1ZM473 34.9746V36.9729H472V34.9746H473ZM1 30.9769V32.9753H0V30.9769H1ZM473 30.9769V32.9753H472V30.9769H473ZM1 26.9802V28.9785H0V26.9802H1ZM473 26.9802V28.9785H472V26.9802H473ZM1 22.9825V24.9818H0V22.9825H1ZM473 22.9825V24.9818H472V22.9825H473ZM1 18.9858V20.9842H0V18.9858H1ZM473 18.9858V20.9842H472V18.9858H473ZM1 14.9891V16.9875H0V14.9891H1ZM473 14.9891V16.9875H472V14.9891H473ZM1 10.9914V12.9908H0V10.9914H1ZM473 10.9914V12.9908H472V10.9914H473ZM1 6.99472V8.99307H0V6.99472H1ZM473 6.99472V8.99307H472V6.99472H473ZM1 2.99802V4.99637H0V2.99802H1ZM473 2.99802V4.99637H472V2.99802H473ZM1.00098 0V0.994805H1V0.999662H0V0H1.00098ZM473 0V0.999662H472V0.994805H471.998V0H473ZM5.00977 0V0.994805H3.00586V0H5.00977ZM9.01855 0V0.994805H7.01367V0H9.01855ZM13.0273 0V0.994805H11.0225V0H13.0273ZM17.0352 0V0.994805H15.0312V0H17.0352ZM21.0439 0V0.994805H19.04V0H21.0439ZM25.0527 0V0.994805H23.0479V0H25.0527ZM29.0605 0V0.994805H27.0566V0H29.0605ZM33.0693 0V0.994805H31.0654V0H33.0693ZM37.0781 0V0.994805H35.0732V0H37.0781ZM41.0859 0V0.994805H39.082V0H41.0859ZM45.0947 0V0.994805H43.0908V0H45.0947ZM49.1035 0V0.994805H47.0986V0H49.1035ZM53.1113 0V0.994805H51.1074V0H53.1113ZM57.1201 0V0.994805H55.1162V0H57.1201ZM61.1289 0V0.994805H59.124V0H61.1289ZM65.1367 0V0.994805H63.1328V0H65.1367ZM69.1455 0V0.994805H67.1416V0H69.1455ZM73.1543 0V0.994805H71.1494V0H73.1543ZM77.1621 0V0.994805H75.1582V0H77.1621ZM81.1709 0V0.994805H79.167V0H81.1709ZM85.1797 0V0.994805H83.1758V0H85.1797ZM89.1885 0V0.994805H87.1836V0H89.1885ZM93.1963 0V0.994805H91.1924V0H93.1963ZM97.2051 0V0.994805H95.2012V0H97.2051ZM101.214 0V0.994805H99.209V0H101.214ZM105.222 0V0.994805H103.218V0H105.222ZM109.23 0V0.994805H107.227V0H109.23ZM113.239 0V0.994805H111.234V0H113.239ZM117.247 0V0.994805H115.243V0H117.247ZM121.256 0V0.994805H119.252V0H121.256ZM125.265 0V0.994805H123.26V0H125.265ZM129.272 0V0.994805H127.269V0H129.272ZM133.281 0V0.994805H131.277V0H133.281ZM137.29 0V0.994805H135.285V0H137.29ZM141.298 0V0.994805H139.294V0H141.298ZM145.307 0V0.994805H143.303V0H145.307ZM149.315 0V0.994805H147.312V0H149.315ZM153.324 0V0.994805H151.319V0H153.324ZM157.332 0V0.994805H155.328V0H157.332ZM161.341 0V0.994805H159.337V0H161.341ZM165.35 0V0.994805H163.345V0H165.35ZM169.357 0V0.994805H167.354V0H169.357ZM173.366 0V0.994805H171.362V0H173.366ZM177.375 0V0.994805H175.37V0H177.375ZM181.383 0V0.994805H179.379V0H181.383ZM185.392 0V0.994805H183.388V0H185.392ZM189.4 0V0.994805H187.396V0H189.4ZM193.408 0V0.994805H191.404V0H193.408ZM197.417 0V0.994805H195.413V0H197.417ZM201.426 0V0.994805H199.421V0H201.426ZM205.434 0V0.994805H203.43V0H205.434ZM209.442 0V0.994805H207.438V0H209.442ZM213.451 0V0.994805H211.447V0H213.451ZM217.46 0V0.994805H215.455V0H217.46ZM221.468 0V0.994805H219.464V0H221.468ZM225.477 0V0.994805H223.473V0H225.477ZM229.485 0V0.994805H227.48V0H229.485ZM233.493 0V0.994805H231.489V0H233.493ZM237.502 0V0.994805H235.498V0H237.502ZM241.511 0V0.994805H239.506V0H241.511ZM245.519 0V0.994805H243.515V0H245.519ZM249.527 0V0.994805H247.523V0H249.527ZM253.536 0V0.994805H251.531V0H253.536ZM257.544 0V0.994805H255.54V0H257.544ZM261.553 0V0.994805H259.549V0H261.553ZM265.562 0V0.994805H263.557V0H265.562ZM269.569 0V0.994805H267.565V0H269.569ZM273.578 0V0.994805H271.574V0H273.578ZM277.587 0V0.994805H275.583V0H277.587ZM281.596 0V0.994805H279.591V0H281.596ZM285.604 0V0.994805H283.6V0H285.604ZM289.612 0V0.994805H287.608V0H289.612ZM293.621 0V0.994805H291.616V0H293.621ZM297.629 0V0.994805H295.625V0H297.629ZM301.638 0V0.994805H299.634V0H301.638ZM305.646 0V0.994805H303.642V0H305.646ZM309.654 0V0.994805H307.65V0H309.654ZM313.663 0V0.994805H311.659V0H313.663ZM317.672 0V0.994805H315.667V0H317.672ZM321.68 0V0.994805H319.676V0H321.68ZM325.688 0V0.994805H323.685V0H325.688ZM329.697 0V0.994805H327.692V0H329.697ZM333.705 0V0.994805H331.701V0H333.705ZM337.714 0V0.994805H335.71V0H337.714ZM341.723 0V0.994805H339.719V0H341.723ZM345.731 0V0.994805H343.727V0H345.731ZM349.739 0V0.994805H347.735V0H349.739ZM353.748 0V0.994805H351.744V0H353.748ZM357.757 0V0.994805H355.752V0H357.757ZM361.765 0V0.994805H359.761V0H361.765ZM365.773 0V0.994805H363.77V0H365.773ZM369.782 0V0.994805H367.777V0H369.782ZM373.79 0V0.994805H371.786V0H373.79ZM377.799 0V0.994805H375.795V0H377.799ZM381.808 0V0.994805H379.803V0H381.808ZM385.815 0V0.994805H383.812V0H385.815ZM389.824 0V0.994805H387.82V0H389.824ZM393.833 0V0.994805H391.828V0H393.833ZM397.841 0V0.994805H395.837V0H397.841ZM401.85 0V0.994805H399.846V0H401.85ZM405.858 0V0.994805H403.854V0H405.858ZM409.866 0V0.994805H407.862V0H409.866ZM413.875 0V0.994805H411.871V0H413.875ZM417.884 0V0.994805H415.879V0H417.884ZM421.892 0V0.994805H419.888V0H421.892ZM425.9 0V0.994805H423.896V0H425.9ZM429.909 0V0.994805H427.904V0H429.909ZM433.917 0V0.994805H431.913V0H433.917ZM437.926 0V0.994805H435.922V0H437.926ZM441.935 0V0.994805H439.93V0H441.935ZM445.942 0V0.994805H443.938V0H445.942ZM449.951 0V0.994805H447.947V0H449.951ZM453.96 0V0.994805H451.955V0H453.96ZM457.968 0V0.994805H455.964V0H457.968ZM461.977 0V0.994805H459.973V0H461.977ZM465.985 0V0.994805H463.98V0H465.985ZM469.993 0V0.994805H467.989V0H469.993Z" fill="white"/>
<path d="M71.0078 1.00391L70.0078 1.00391L70.0078 4.37114e-08L71.0078 0L71.0078 1.00391ZM71.0078 5.01953L70.0078 5.01953L70.0078 3.01172L71.0078 3.01172L71.0078 5.01953ZM71.0078 9.03516L70.0078 9.03516L70.0078 7.02734L71.0078 7.02734L71.0078 9.03516ZM71.0078 13.0508L70.0078 13.0508L70.0078 11.043L71.0078 11.043L71.0078 13.0508ZM71.0078 17.0664L70.0078 17.0664L70.0078 15.0586L71.0078 15.0586L71.0078 17.0664ZM71.0078 21.082L70.0078 21.082L70.0078 19.0742L71.0078 19.0742L71.0078 21.082ZM71.0078 25.0977L70.0078 25.0977L70.0078 23.0898L71.0078 23.0898L71.0078 25.0977ZM71.0078 29.1133L70.0078 29.1133L70.0078 27.1055L71.0078 27.1055L71.0078 29.1133ZM71.0078 33.1289L70.0078 33.1289L70.0078 31.1211L71.0078 31.1211L71.0078 33.1289ZM71.0078 37.1445L70.0078 37.1445L70.0078 35.1367L71.0078 35.1367L71.0078 37.1445ZM71.0078 41.1602L70.0078 41.1602L70.0078 39.1523L71.0078 39.1523L71.0078 41.1602ZM71.0078 45.1758L70.0078 45.1758L70.0078 43.168L71.0078 43.168L71.0078 45.1758ZM71.0078 49.1914L70.0078 49.1914L70.0078 47.1836L71.0078 47.1836L71.0078 49.1914ZM71.0078 53.207L70.0078 53.207L70.0078 51.1992L71.0078 51.1992L71.0078 53.207ZM71.0078 57.2227L70.0078 57.2227L70.0078 55.2148L71.0078 55.2148L71.0078 57.2227ZM71.0078 61.2383L70.0078 61.2383L70.0078 59.2305L71.0078 59.2305L71.0078 61.2383ZM71.0078 65.2539L70.0078 65.2539L70.0078 63.2461L71.0078 63.2461L71.0078 65.2539ZM71.0078 69.2695L70.0078 69.2695L70.0078 67.2617L71.0078 67.2617L71.0078 69.2695ZM71.0078 73.2852L70.0078 73.2852L70.0078 71.2773L71.0078 71.2773L71.0078 73.2852ZM71.0078 77.3008L70.0078 77.3008L70.0078 75.293L71.0078 75.293L71.0078 77.3008ZM71.0078 81.3164L70.0078 81.3164L70.0078 79.3086L71.0078 79.3086L71.0078 81.3164ZM71.0078 85.332L70.0078 85.332L70.0078 83.3242L71.0078 83.3242L71.0078 85.332ZM71.0078 89.3477L70.0078 89.3477L70.0078 87.3398L71.0078 87.3398L71.0078 89.3477ZM71.0078 93.3633L70.0078 93.3633L70.0078 91.3555L71.0078 91.3555L71.0078 93.3633ZM71.0078 97.3789L70.0078 97.3789L70.0078 95.3711L71.0078 95.3711L71.0078 97.3789ZM71.0078 101.395L70.0078 101.395L70.0078 99.3867L71.0078 99.3867L71.0078 101.395ZM71.0078 105.41L70.0078 105.41L70.0078 103.402L71.0078 103.402L71.0078 105.41ZM71.0078 109.426L70.0078 109.426L70.0078 107.418L71.0078 107.418L71.0078 109.426ZM71.0078 113.441L70.0078 113.441L70.0078 111.434L71.0078 111.434L71.0078 113.441ZM71.0078 117.457L70.0078 117.457L70.0078 115.449L71.0078 115.449L71.0078 117.457ZM71.0078 121.473L70.0078 121.473L70.0078 119.465L71.0078 119.465L71.0078 121.473ZM71.0078 125.488L70.0078 125.488L70.0078 123.48L71.0078 123.48L71.0078 125.488ZM71.0078 129.504L70.0078 129.504L70.0078 127.496L71.0078 127.496L71.0078 129.504ZM71.0078 133.52L70.0078 133.52L70.0078 131.512L71.0078 131.512L71.0078 133.52ZM71.0078 137.535L70.0078 137.535L70.0078 135.527L71.0078 135.527L71.0078 137.535ZM71.0078 141.551L70.0078 141.551L70.0078 139.543L71.0078 139.543L71.0078 141.551ZM71.0078 145.566L70.0078 145.566L70.0078 143.559L71.0078 143.559L71.0078 145.566ZM71.0078 149.582L70.0078 149.582L70.0078 147.574L71.0078 147.574L71.0078 149.582ZM71.0078 153.598L70.0078 153.598L70.0078 151.59L71.0078 151.59L71.0078 153.598ZM71.0078 157.613L70.0078 157.613L70.0078 155.605L71.0078 155.605L71.0078 157.613ZM71.0078 161.629L70.0078 161.629L70.0078 159.621L71.0078 159.621L71.0078 161.629ZM71.0078 165.645L70.0078 165.645L70.0078 163.637L71.0078 163.637L71.0078 165.645ZM71.0078 169.66L70.0078 169.66L70.0078 167.652L71.0078 167.652L71.0078 169.66ZM71.0078 173.676L70.0078 173.676L70.0078 171.668L71.0078 171.668L71.0078 173.676ZM71.0078 177.691L70.0078 177.691L70.0078 175.684L71.0078 175.684L71.0078 177.691ZM71.0078 181.707L70.0078 181.707L70.0078 179.699L71.0078 179.699L71.0078 181.707ZM71.0078 185.723L70.0078 185.723L70.0078 183.715L71.0078 183.715L71.0078 185.723ZM71.0078 189.738L70.0078 189.738L70.0078 187.73L71.0078 187.73L71.0078 189.738ZM71.0078 193.754L70.0078 193.754L70.0078 191.746L71.0078 191.746L71.0078 193.754ZM71.0078 197.77L70.0078 197.77L70.0078 195.762L71.0078 195.762L71.0078 197.77ZM71.0078 201.785L70.0078 201.785L70.0078 199.777L71.0078 199.777L71.0078 201.785ZM71.0078 205.801L70.0078 205.801L70.0078 203.793L71.0078 203.793L71.0078 205.801ZM71.0078 209.816L70.0078 209.816L70.0078 207.809L71.0078 207.809L71.0078 209.816ZM71.0078 213.832L70.0078 213.832L70.0078 211.824L71.0078 211.824L71.0078 213.832ZM71.0078 217.848L70.0078 217.848L70.0078 215.84L71.0078 215.84L71.0078 217.848ZM71.0078 221.863L70.0078 221.863L70.0078 219.855L71.0078 219.855L71.0078 221.863ZM71.0078 225.879L70.0078 225.879L70.0078 223.871L71.0078 223.871L71.0078 225.879ZM71.0078 229.895L70.0078 229.895L70.0078 227.887L71.0078 227.887L71.0078 229.895ZM71.0078 233.91L70.0078 233.91L70.0078 231.902L71.0078 231.902L71.0078 233.91ZM71.0078 237.926L70.0078 237.926L70.0078 235.918L71.0078 235.918L71.0078 237.926ZM71.0078 241.941L70.0078 241.941L70.0078 239.934L71.0078 239.934L71.0078 241.941ZM71.0078 245.957L70.0078 245.957L70.0078 243.949L71.0078 243.949L71.0078 245.957ZM71.0078 249.973L70.0078 249.973L70.0078 247.965L71.0078 247.965L71.0078 249.973ZM71.0078 253.988L70.0078 253.988L70.0078 251.98L71.0078 251.98L71.0078 253.988ZM71.0078 257L70.0078 257L70.0078 255.996L71.0078 255.996L71.0078 257Z" fill="white"/>
<path d="M402.779 1.00391H401.779V0L402.779 0V1.00391ZM402.779 5.01953H401.779V3.01172H402.779V5.01953ZM402.779 9.03516H401.779V7.02734H402.779V9.03516ZM402.779 13.0508H401.779V11.043H402.779V13.0508ZM402.779 17.0664H401.779V15.0586H402.779V17.0664ZM402.779 21.082H401.779V19.0742H402.779V21.082ZM402.779 25.0977H401.779V23.0898H402.779V25.0977ZM402.779 29.1133H401.779V27.1055H402.779V29.1133ZM402.779 33.1289H401.779V31.1211H402.779V33.1289ZM402.779 37.1445H401.779V35.1367H402.779V37.1445ZM402.779 41.1602H401.779V39.1523H402.779V41.1602ZM402.779 45.1758H401.779V43.168H402.779V45.1758ZM402.779 49.1914H401.779V47.1836H402.779V49.1914ZM402.779 53.207H401.779V51.1992H402.779V53.207ZM402.779 57.2227H401.779V55.2148H402.779V57.2227ZM402.779 61.2383H401.779V59.2305H402.779V61.2383ZM402.779 65.2539H401.779V63.2461H402.779V65.2539ZM402.779 69.2695H401.779V67.2617H402.779V69.2695ZM402.779 73.2852H401.779V71.2773H402.779V73.2852ZM402.779 77.3008H401.779V75.293H402.779V77.3008ZM402.779 81.3164H401.779V79.3086H402.779V81.3164ZM402.779 85.332H401.779V83.3242H402.779V85.332ZM402.779 89.3477H401.779V87.3398H402.779V89.3477ZM402.779 93.3633H401.779V91.3555H402.779V93.3633ZM402.779 97.3789H401.779V95.3711H402.779V97.3789ZM402.779 101.395H401.779V99.3867H402.779V101.395ZM402.779 105.41H401.779V103.402H402.779V105.41ZM402.779 109.426H401.779V107.418H402.779V109.426ZM402.779 113.441H401.779V111.434H402.779V113.441ZM402.779 117.457H401.779V115.449H402.779V117.457ZM402.779 121.473H401.779V119.465H402.779V121.473ZM402.779 125.488H401.779V123.48H402.779V125.488ZM402.779 129.504H401.779V127.496H402.779V129.504ZM402.779 133.52H401.779V131.512H402.779V133.52ZM402.779 137.535H401.779V135.527H402.779V137.535ZM402.779 141.551H401.779V139.543H402.779V141.551ZM402.779 145.566H401.779V143.559H402.779V145.566ZM402.779 149.582H401.779V147.574H402.779V149.582ZM402.779 153.598H401.779V151.59H402.779V153.598ZM402.779 157.613H401.779V155.605H402.779V157.613ZM402.779 161.629H401.779V159.621H402.779V161.629ZM402.779 165.645H401.779V163.637H402.779V165.645ZM402.779 169.66H401.779V167.652H402.779V169.66ZM402.779 173.676H401.779V171.668H402.779V173.676ZM402.779 177.691H401.779V175.684H402.779V177.691ZM402.779 181.707H401.779V179.699H402.779V181.707ZM402.779 185.723H401.779V183.715H402.779V185.723ZM402.779 189.738H401.779V187.73H402.779V189.738ZM402.779 193.754H401.779V191.746H402.779V193.754ZM402.779 197.77H401.779V195.762H402.779V197.77ZM402.779 201.785H401.779V199.777H402.779V201.785ZM402.779 205.801H401.779V203.793H402.779V205.801ZM402.779 209.816H401.779V207.809H402.779V209.816ZM402.779 213.832H401.779V211.824H402.779V213.832ZM402.779 217.848H401.779V215.84H402.779V217.848ZM402.779 221.863H401.779V219.855H402.779V221.863ZM402.779 225.879H401.779V223.871H402.779V225.879ZM402.779 229.895H401.779V227.887H402.779V229.895ZM402.779 233.91H401.779V231.902H402.779V233.91ZM402.779 237.926H401.779V235.918H402.779V237.926ZM402.779 241.941H401.779V239.934H402.779V241.941ZM402.779 245.957H401.779V243.949H402.779V245.957ZM402.779 249.973H401.779V247.965H402.779V249.973ZM402.779 253.988H401.779V251.98H402.779V253.988ZM402.779 257H401.779V255.996H402.779V257Z" fill="white"/>
<path d="M0.951172 70.0586V71.0586H-0.0507813L-0.0507812 70.0586H0.951172ZM4.95996 70.0586V71.0586H2.95605V70.0586H4.95996ZM8.96875 70.0586V71.0586H6.96387V70.0586H8.96875ZM12.9766 70.0586V71.0586H10.9727V70.0586H12.9766ZM16.9854 70.0586V71.0586H14.9814V70.0586H16.9854ZM20.9941 70.0586V71.0586H18.9893V70.0586H20.9941ZM25.002 70.0586V71.0586H22.998V70.0586H25.002ZM29.0107 70.0586V71.0586H27.0068V70.0586H29.0107ZM33.0195 70.0586V71.0586H31.0146V70.0586H33.0195ZM37.0273 70.0586V71.0586H35.0234V70.0586H37.0273ZM41.0361 70.0586V71.0586H39.0322V70.0586H41.0361ZM45.0449 70.0586V71.0586H43.04V70.0586H45.0449ZM49.0527 70.0586V71.0586H47.0488V70.0586H49.0527ZM53.0615 70.0586V71.0586H51.0576V70.0586H53.0615ZM57.0703 70.0586V71.0586H55.0654V70.0586H57.0703ZM61.0781 70.0586V71.0586H59.0742V70.0586H61.0781ZM65.0869 70.0586V71.0586H63.083V70.0586H65.0869ZM69.0957 70.0586V71.0586H67.0908V70.0586H69.0957ZM73.1035 70.0586V71.0586H71.0996V70.0586H73.1035ZM77.1123 70.0586V71.0586H75.1084V70.0586H77.1123ZM81.1211 70.0586V71.0586H79.1162V70.0586H81.1211ZM85.1289 70.0586V71.0586H83.125V70.0586H85.1289ZM89.1377 70.0586V71.0586H87.1338V70.0586H89.1377ZM93.1465 70.0586V71.0586H91.1416V70.0586H93.1465ZM97.1543 70.0586V71.0586H95.1504V70.0586H97.1543ZM101.163 70.0586V71.0586H99.1592V70.0586H101.163ZM105.172 70.0586V71.0586H103.167V70.0586H105.172ZM109.18 70.0586V71.0586H107.176V70.0586H109.18ZM113.188 70.0586V71.0586H111.185V70.0586H113.188ZM117.197 70.0586V71.0586H115.192V70.0586H117.197ZM121.205 70.0586V71.0586H119.201V70.0586H121.205ZM125.214 70.0586V71.0586H123.21V70.0586H125.214ZM129.223 70.0586V71.0586H127.218V70.0586H129.223ZM133.23 70.0586V71.0586H131.227V70.0586H133.23ZM137.239 70.0586V71.0586H135.235V70.0586H137.239ZM141.248 70.0586V71.0586H139.244V70.0586H141.248ZM145.257 70.0586V71.0586H143.252V70.0586H145.257ZM149.265 70.0586V71.0586H147.261V70.0586H149.265ZM153.273 70.0586V71.0586H151.27V70.0586H153.273ZM157.282 70.0586V71.0586H155.277V70.0586H157.282ZM161.29 70.0586V71.0586H159.286V70.0586H161.29ZM165.299 70.0586V71.0586H163.295V70.0586H165.299ZM169.308 70.0586V71.0586H167.303V70.0586H169.308ZM173.315 70.0586V71.0586H171.312V70.0586H173.315ZM177.324 70.0586V71.0586H175.32V70.0586H177.324ZM181.333 70.0586V71.0586H179.328V70.0586H181.333ZM185.341 70.0586V71.0586H183.337V70.0586H185.341ZM189.35 70.0586V71.0586H187.346V70.0586H189.35ZM193.358 70.0586V71.0586H191.354V70.0586H193.358ZM197.366 70.0586V71.0586H195.362V70.0586H197.366ZM201.375 70.0586V71.0586H199.371V70.0586H201.375ZM205.384 70.0586V71.0586H203.38V70.0586H205.384ZM209.393 70.0586V71.0586H207.388V70.0586H209.393ZM213.4 70.0586V71.0586H211.396V70.0586H213.4ZM217.409 70.0586V71.0586H215.405V70.0586H217.409ZM221.418 70.0586V71.0586H219.413V70.0586H221.418ZM225.426 70.0586V71.0586H223.422V70.0586H225.426ZM229.435 70.0586V71.0586H227.431V70.0586H229.435ZM233.443 70.0586V71.0586H231.438V70.0586H233.443ZM237.451 70.0586V71.0586H235.447V70.0586H237.451ZM241.46 70.0586V71.0586H239.456V70.0586H241.46ZM245.469 70.0586V71.0586H243.464V70.0586H245.469ZM249.477 70.0586V71.0586H247.473V70.0586H249.477ZM253.485 70.0586V71.0586H251.481V70.0586H253.485ZM257.494 70.0586V71.0586H255.489V70.0586H257.494ZM261.502 70.0586V71.0586H259.498V70.0586H261.502ZM265.511 70.0586V71.0586H263.507V70.0586H265.511ZM269.52 70.0586V71.0586H267.516V70.0586H269.52ZM273.528 70.0586V71.0586H271.523V70.0586H273.528ZM277.536 70.0586V71.0586H275.532V70.0586H277.536ZM281.545 70.0586V71.0586H279.541V70.0586H281.545ZM285.554 70.0586V71.0586H283.549V70.0586H285.554ZM289.562 70.0586V71.0586H287.558V70.0586H289.562ZM293.57 70.0586V71.0586H291.566V70.0586H293.57ZM297.579 70.0586V71.0586H295.574V70.0586H297.579ZM301.587 70.0586V71.0586H299.583V70.0586H301.587ZM305.596 70.0586V71.0586H303.592V70.0586H305.596ZM309.604 70.0586V71.0586H307.6V70.0586H309.604ZM313.612 70.0586V71.0586H311.608V70.0586H313.612ZM317.621 70.0586V71.0586H315.617V70.0586H317.621ZM321.63 70.0586V71.0586H319.625V70.0586H321.63ZM325.638 70.0586V71.0586H323.634V70.0586H325.638ZM329.646 70.0586V71.0586H327.643V70.0586H329.646ZM333.655 70.0586V71.0586H331.651V70.0586H333.655ZM337.664 70.0586V71.0586H335.659V70.0586H337.664ZM341.672 70.0586V71.0586H339.668V70.0586H341.672ZM345.681 70.0586V71.0586H343.677V70.0586H345.681ZM349.689 70.0586V71.0586H347.685V70.0586H349.689ZM353.697 70.0586V71.0586H351.693V70.0586H353.697ZM357.706 70.0586V71.0586H355.702V70.0586H357.706ZM361.715 70.0586V71.0586H359.71V70.0586H361.715ZM365.723 70.0586V71.0586H363.719V70.0586H365.723ZM369.731 70.0586V71.0586H367.728V70.0586H369.731ZM373.74 70.0586V71.0586H371.735V70.0586H373.74ZM377.748 70.0586V71.0586H375.744V70.0586H377.748ZM381.757 70.0586V71.0586H379.753V70.0586H381.757ZM385.766 70.0586V71.0586H383.761V70.0586H385.766ZM389.773 70.0586V71.0586H387.77V70.0586H389.773ZM393.782 70.0586V71.0586H391.778V70.0586H393.782ZM397.791 70.0586V71.0586H395.787V70.0586H397.791ZM401.8 70.0586V71.0586H399.795V70.0586H401.8ZM405.808 70.0586V71.0586H403.804V70.0586H405.808ZM409.816 70.0586V71.0586H407.812V70.0586H409.816ZM413.825 70.0586V71.0586H411.82V70.0586H413.825ZM417.833 70.0586V71.0586H415.829V70.0586H417.833ZM421.842 70.0586V71.0586H419.838V70.0586H421.842ZM425.851 70.0586V71.0586H423.846V70.0586H425.851ZM429.858 70.0586V71.0586H427.854V70.0586H429.858ZM433.867 70.0586V71.0586H431.863V70.0586H433.867ZM437.876 70.0586V71.0586H435.871V70.0586H437.876ZM441.884 70.0586V71.0586H439.88V70.0586H441.884ZM445.893 70.0586V71.0586H443.889V70.0586H445.893ZM449.901 70.0586V71.0586H447.896V70.0586H449.901ZM453.909 70.0586V71.0586H451.905V70.0586H453.909ZM457.918 70.0586V71.0586H455.914V70.0586H457.918ZM461.927 70.0586V71.0586H459.922V70.0586H461.927ZM465.936 70.0586V71.0586H463.931V70.0586H465.936ZM469.943 70.0586V71.0586H467.939V70.0586H469.943ZM472.949 70.0586V71.0586H471.948V70.0586H472.949Z" fill="white"/>
<path d="M0.951172 184.752L0.951172 185.752L-0.0507812 185.752L-0.0507812 184.752L0.951172 184.752ZM4.95996 184.752L4.95996 185.752L2.95605 185.752L2.95605 184.752L4.95996 184.752ZM8.96875 184.752L8.96875 185.752L6.96387 185.752L6.96387 184.752L8.96875 184.752ZM12.9766 184.752L12.9766 185.752L10.9727 185.752L10.9727 184.752L12.9766 184.752ZM16.9854 184.752L16.9854 185.752L14.9814 185.752L14.9814 184.752L16.9854 184.752ZM20.9941 184.752L20.9941 185.752L18.9893 185.752L18.9893 184.752L20.9941 184.752ZM25.002 184.752L25.002 185.752L22.998 185.752L22.998 184.752L25.002 184.752ZM29.0107 184.752L29.0107 185.752L27.0068 185.752L27.0068 184.752L29.0107 184.752ZM33.0195 184.752L33.0195 185.752L31.0146 185.752L31.0146 184.752L33.0195 184.752ZM37.0273 184.752L37.0273 185.752L35.0234 185.752L35.0234 184.752L37.0273 184.752ZM41.0361 184.752L41.0361 185.752L39.0322 185.752L39.0322 184.752L41.0361 184.752ZM45.0449 184.752L45.0449 185.752L43.04 185.752L43.04 184.752L45.0449 184.752ZM49.0527 184.752L49.0527 185.752L47.0488 185.752L47.0488 184.752L49.0527 184.752ZM53.0615 184.752L53.0615 185.752L51.0576 185.752L51.0576 184.752L53.0615 184.752ZM57.0703 184.752L57.0703 185.752L55.0654 185.752L55.0654 184.752L57.0703 184.752ZM61.0781 184.752L61.0781 185.752L59.0742 185.752L59.0742 184.752L61.0781 184.752ZM65.0869 184.752L65.0869 185.752L63.083 185.752L63.083 184.752L65.0869 184.752ZM69.0957 184.752L69.0957 185.752L67.0908 185.752L67.0908 184.752L69.0957 184.752ZM73.1035 184.752L73.1035 185.752L71.0996 185.752L71.0996 184.752L73.1035 184.752ZM77.1123 184.752L77.1123 185.752L75.1084 185.752L75.1084 184.752L77.1123 184.752ZM81.1211 184.752L81.1211 185.752L79.1162 185.752L79.1162 184.752L81.1211 184.752ZM85.1289 184.752L85.1289 185.752L83.125 185.752L83.125 184.752L85.1289 184.752ZM89.1377 184.752L89.1377 185.752L87.1338 185.752L87.1338 184.752L89.1377 184.752ZM93.1465 184.752L93.1465 185.752L91.1416 185.752L91.1416 184.752L93.1465 184.752ZM97.1543 184.752L97.1543 185.752L95.1504 185.752L95.1504 184.752L97.1543 184.752ZM101.163 184.752L101.163 185.752L99.1592 185.752L99.1592 184.752L101.163 184.752ZM105.172 184.752L105.172 185.752L103.167 185.752L103.167 184.752L105.172 184.752ZM109.18 184.752L109.18 185.752L107.176 185.752L107.176 184.752L109.18 184.752ZM113.188 184.752L113.188 185.752L111.185 185.752L111.185 184.752L113.188 184.752ZM117.197 184.752L117.197 185.752L115.192 185.752L115.192 184.752L117.197 184.752ZM121.205 184.752L121.205 185.752L119.201 185.752L119.201 184.752L121.205 184.752ZM125.214 184.752L125.214 185.752L123.21 185.752L123.21 184.752L125.214 184.752ZM129.223 184.752L129.223 185.752L127.218 185.752L127.218 184.752L129.223 184.752ZM133.23 184.752L133.23 185.752L131.227 185.752L131.227 184.752L133.23 184.752ZM137.239 184.752L137.239 185.752L135.235 185.752L135.235 184.752L137.239 184.752ZM141.248 184.752L141.248 185.752L139.244 185.752L139.244 184.752L141.248 184.752ZM145.257 184.752L145.257 185.752L143.252 185.752L143.252 184.752L145.257 184.752ZM149.265 184.752L149.265 185.752L147.261 185.752L147.261 184.752L149.265 184.752ZM153.273 184.752L153.273 185.752L151.27 185.752L151.27 184.752L153.273 184.752ZM157.282 184.752L157.282 185.752L155.277 185.752L155.277 184.752L157.282 184.752ZM161.29 184.752L161.29 185.752L159.286 185.752L159.286 184.752L161.29 184.752ZM165.299 184.752L165.299 185.752L163.295 185.752L163.295 184.752L165.299 184.752ZM169.308 184.752L169.308 185.752L167.303 185.752L167.303 184.752L169.308 184.752ZM173.315 184.752L173.315 185.752L171.312 185.752L171.312 184.752L173.315 184.752ZM177.324 184.752L177.324 185.752L175.32 185.752L175.32 184.752L177.324 184.752ZM181.333 184.752L181.333 185.752L179.328 185.752L179.328 184.752L181.333 184.752ZM185.341 184.752L185.341 185.752L183.337 185.752L183.337 184.752L185.341 184.752ZM189.35 184.752L189.35 185.752L187.346 185.752L187.346 184.752L189.35 184.752ZM193.358 184.752L193.358 185.752L191.354 185.752L191.354 184.752L193.358 184.752ZM197.366 184.752L197.366 185.752L195.362 185.752L195.362 184.752L197.366 184.752ZM201.375 184.752L201.375 185.752L199.371 185.752L199.371 184.752L201.375 184.752ZM205.384 184.752L205.384 185.752L203.38 185.752L203.38 184.752L205.384 184.752ZM209.393 184.752L209.393 185.752L207.388 185.752L207.388 184.752L209.393 184.752ZM213.4 184.752L213.4 185.752L211.396 185.752L211.396 184.752L213.4 184.752ZM217.409 184.752L217.409 185.752L215.405 185.752L215.405 184.752L217.409 184.752ZM221.418 184.752L221.418 185.752L219.413 185.752L219.413 184.752L221.418 184.752ZM225.426 184.752L225.426 185.752L223.422 185.752L223.422 184.752L225.426 184.752ZM229.435 184.752L229.435 185.752L227.431 185.752L227.431 184.752L229.435 184.752ZM233.443 184.752L233.443 185.752L231.438 185.752L231.438 184.752L233.443 184.752ZM237.451 184.752L237.451 185.752L235.447 185.752L235.447 184.752L237.451 184.752ZM241.46 184.752L241.46 185.752L239.456 185.752L239.456 184.752L241.46 184.752ZM245.469 184.752L245.469 185.752L243.464 185.752L243.464 184.752L245.469 184.752ZM249.477 184.752L249.477 185.752L247.473 185.752L247.473 184.752L249.477 184.752ZM253.485 184.752L253.485 185.752L251.481 185.752L251.481 184.752L253.485 184.752ZM257.494 184.752L257.494 185.752L255.489 185.752L255.489 184.752L257.494 184.752ZM261.502 184.752L261.502 185.752L259.498 185.752L259.498 184.752L261.502 184.752ZM265.511 184.752L265.511 185.752L263.507 185.752L263.507 184.752L265.511 184.752ZM269.52 184.752L269.52 185.752L267.516 185.752L267.516 184.752L269.52 184.752ZM273.528 184.752L273.528 185.752L271.523 185.752L271.523 184.752L273.528 184.752ZM277.536 184.752L277.536 185.752L275.532 185.752L275.532 184.752L277.536 184.752ZM281.545 184.752L281.545 185.752L279.541 185.752L279.541 184.752L281.545 184.752ZM285.554 184.752L285.554 185.752L283.549 185.752L283.549 184.752L285.554 184.752ZM289.562 184.752L289.562 185.752L287.558 185.752L287.558 184.752L289.562 184.752ZM293.57 184.752L293.57 185.752L291.566 185.752L291.566 184.752L293.57 184.752ZM297.579 184.752L297.579 185.752L295.574 185.752L295.574 184.752L297.579 184.752ZM301.587 184.752L301.587 185.752L299.583 185.752L299.583 184.752L301.587 184.752ZM305.596 184.752L305.596 185.752L303.592 185.752L303.592 184.752L305.596 184.752ZM309.604 184.752L309.604 185.752L307.6 185.752L307.6 184.752L309.604 184.752ZM313.612 184.752L313.612 185.752L311.608 185.752L311.608 184.752L313.612 184.752ZM317.621 184.752L317.621 185.752L315.617 185.752L315.617 184.752L317.621 184.752ZM321.63 184.752L321.63 185.752L319.625 185.752L319.625 184.752L321.63 184.752ZM325.638 184.752L325.638 185.752L323.634 185.752L323.634 184.752L325.638 184.752ZM329.646 184.752L329.646 185.752L327.643 185.752L327.643 184.752L329.646 184.752ZM333.655 184.752L333.655 185.752L331.651 185.752L331.651 184.752L333.655 184.752ZM337.664 184.752L337.664 185.752L335.659 185.752L335.659 184.752L337.664 184.752ZM341.672 184.752L341.672 185.752L339.668 185.752L339.668 184.752L341.672 184.752ZM345.681 184.752L345.681 185.752L343.677 185.752L343.677 184.752L345.681 184.752ZM349.689 184.752L349.689 185.752L347.685 185.752L347.685 184.752L349.689 184.752ZM353.697 184.752L353.697 185.752L351.693 185.752L351.693 184.752L353.697 184.752ZM357.706 184.752L357.706 185.752L355.702 185.752L355.702 184.752L357.706 184.752ZM361.715 184.752L361.715 185.752L359.71 185.752L359.71 184.752L361.715 184.752ZM365.723 184.752L365.723 185.752L363.719 185.752L363.719 184.752L365.723 184.752ZM369.731 184.752L369.731 185.752L367.728 185.752L367.728 184.752L369.731 184.752ZM373.74 184.752L373.74 185.752L371.735 185.752L371.735 184.752L373.74 184.752ZM377.748 184.752L377.748 185.752L375.744 185.752L375.744 184.752L377.748 184.752ZM381.757 184.752L381.757 185.752L379.753 185.752L379.753 184.752L381.757 184.752ZM385.766 184.752L385.766 185.752L383.761 185.752L383.761 184.752L385.766 184.752ZM389.773 184.752L389.773 185.752L387.77 185.752L387.77 184.752L389.773 184.752ZM393.782 184.752L393.782 185.752L391.778 185.752L391.778 184.752L393.782 184.752ZM397.791 184.752L397.791 185.752L395.787 185.752L395.787 184.752L397.791 184.752ZM401.8 184.752L401.8 185.752L399.795 185.752L399.795 184.752L401.8 184.752ZM405.808 184.752L405.808 185.752L403.804 185.752L403.804 184.752L405.808 184.752ZM409.816 184.752L409.816 185.752L407.813 185.752L407.812 184.752L409.816 184.752ZM413.825 184.752L413.825 185.752L411.82 185.752L411.82 184.752L413.825 184.752ZM417.833 184.752L417.833 185.752L415.829 185.752L415.829 184.752L417.833 184.752ZM421.842 184.752L421.842 185.752L419.838 185.752L419.838 184.752L421.842 184.752ZM425.851 184.752L425.851 185.752L423.846 185.752L423.846 184.752L425.851 184.752ZM429.858 184.752L429.858 185.752L427.854 185.752L427.854 184.752L429.858 184.752ZM433.867 184.752L433.867 185.752L431.863 185.752L431.863 184.752L433.867 184.752ZM437.876 184.752L437.876 185.752L435.871 185.752L435.871 184.752L437.876 184.752ZM441.884 184.752L441.884 185.752L439.88 185.752L439.88 184.752L441.884 184.752ZM445.893 184.752L445.893 185.752L443.889 185.752L443.889 184.752L445.893 184.752ZM449.901 184.752L449.901 185.752L447.896 185.752L447.896 184.752L449.901 184.752ZM453.909 184.752L453.909 185.752L451.905 185.752L451.905 184.752L453.909 184.752ZM457.918 184.752L457.918 185.752L455.914 185.752L455.914 184.752L457.918 184.752ZM461.927 184.752L461.927 185.752L459.922 185.752L459.922 184.752L461.927 184.752ZM465.936 184.752L465.936 185.752L463.931 185.752L463.931 184.752L465.936 184.752ZM469.943 184.752L469.943 185.752L467.939 185.752L467.939 184.752L469.943 184.752ZM472.949 184.752L472.949 185.752L471.948 185.752L471.948 184.752L472.949 184.752Z" fill="white"/>
</g>
</g>
<defs>
<linearGradient id="paint0_linear_375_64" x1="135.013" y1="127.905" x2="78.166" y2="127.905" gradientUnits="userSpaceOnUse">
<stop stop-color="white"/>
<stop offset="0.482775" stop-color="white" stop-opacity="0.8"/>
<stop offset="1" stop-color="white"/>
</linearGradient>
<linearGradient id="paint1_linear_375_64" x1="106.59" y1="184.752" x2="142.119" y2="113.807" gradientUnits="userSpaceOnUse">
<stop stop-color="white"/>
<stop offset="1" stop-color="white" stop-opacity="0.5"/>
</linearGradient>
<linearGradient id="paint2_linear_375_64" x1="106.59" y1="184.752" x2="71.0607" y2="113.807" gradientUnits="userSpaceOnUse">
<stop stop-color="#787878" stop-opacity="0"/>
<stop offset="0.745192" stop-color="#787878" stop-opacity="0.5"/>
</linearGradient>
<linearGradient id="paint3_linear_375_64" x1="106.59" y1="71.0586" x2="71.0607" y2="142.004" gradientUnits="userSpaceOnUse">
<stop stop-color="white"/>
<stop offset="1" stop-color="white" stop-opacity="0.5"/>
</linearGradient>
<linearGradient id="paint4_linear_375_64" x1="106.59" y1="71.0586" x2="142.119" y2="142.004" gradientUnits="userSpaceOnUse">
<stop stop-color="#787878" stop-opacity="0"/>
<stop offset="0.75" stop-color="#787878" stop-opacity="0.5"/>
</linearGradient>
<clipPath id="clip0_375_64">
<rect width="473" height="256" fill="white"/>
</clipPath>
</defs>
</svg>
