<svg width="1942" height="426" viewBox="0 0 1942 426" fill="none" xmlns="http://www.w3.org/2000/svg">
<path d="M33.7256 97.0605V109.061M31.0589 97.0605H40.3923C41.1286 97.0605 41.7256 97.6575 41.7256 98.3939V107.727C41.7256 108.464 41.1286 109.061 40.3923 109.061H31.0589C30.3225 109.061 29.7256 108.464 29.7256 107.727V98.3939C29.7256 97.6575 30.3225 97.0605 31.0589 97.0605Z" stroke="#717489" stroke-linecap="round" stroke-linejoin="round"/>
<path d="M29.4051 157.678V149.868H32.0891C33.0131 149.868 33.7061 150.037 34.1681 150.374C34.6301 150.712 34.8611 151.243 34.8611 151.969C34.8611 152.307 34.7877 152.604 34.6411 152.86C34.4944 153.117 34.2854 153.319 34.0141 153.465C33.7427 153.605 33.4201 153.674 33.0461 153.674L33.0351 153.608C33.7024 153.608 34.2267 153.788 34.6081 154.147C34.9967 154.499 35.1911 154.961 35.1911 155.533C35.1911 156.245 34.9601 156.78 34.4981 157.139C34.0361 157.499 33.3797 157.678 32.5291 157.678H29.4051ZM30.3511 156.754H32.5291C33.0644 156.754 33.4751 156.644 33.7611 156.424C34.0544 156.204 34.2011 155.889 34.2011 155.478C34.2011 155.068 34.0544 154.749 33.7611 154.521C33.4751 154.287 33.0644 154.169 32.5291 154.169H30.3511V156.754ZM30.3511 153.245H32.0891C32.6611 153.245 33.1011 153.139 33.4091 152.926C33.7171 152.706 33.8711 152.402 33.8711 152.013C33.8711 151.603 33.7207 151.298 33.4201 151.1C33.1267 150.895 32.6831 150.792 32.0891 150.792H30.3511V153.245ZM36.6637 157.678V149.868H37.5877V154.983L40.4257 151.848H41.6577L39.3587 154.323L41.7567 157.678H40.6347L38.7317 154.95L37.5877 156.16V157.678H36.6637ZM43.9093 157.678C43.5719 157.678 43.2969 157.59 43.0843 157.414C42.8716 157.238 42.7653 156.96 42.7653 156.578V149.868H43.6893V156.501C43.6893 156.619 43.7186 156.71 43.7773 156.776C43.8433 156.835 43.9349 156.864 44.0523 156.864H44.5583V157.678H43.9093ZM45.6119 157.678V151.848H46.5359V157.678H45.6119ZM45.5899 150.935V149.857H46.5579V150.935H45.5899ZM49.9911 157.678C49.4631 157.678 49.0707 157.557 48.8141 157.315C48.5647 157.073 48.4401 156.696 48.4401 156.182V150.484H49.3641V156.16C49.3641 156.424 49.4227 156.608 49.5401 156.71C49.6574 156.813 49.8371 156.864 50.0791 156.864H50.9151V157.678H49.9911ZM47.5821 152.662V151.848H50.9151V152.662H47.5821ZM55.0467 157.678V149.868H57.8517C58.7243 149.868 59.4027 150.077 59.8867 150.495C60.3707 150.913 60.6127 151.493 60.6127 152.233C60.6127 152.732 60.5027 153.165 60.2827 153.531C60.0627 153.891 59.7473 154.166 59.3367 154.356C58.926 154.547 58.431 154.642 57.8517 154.642H55.9927V157.678H55.0467ZM55.9927 153.718H57.8517C58.4383 153.718 58.8783 153.594 59.1717 153.344C59.4723 153.095 59.6227 152.725 59.6227 152.233C59.6227 151.757 59.4723 151.397 59.1717 151.155C58.8783 150.913 58.4383 150.792 57.8517 150.792H55.9927V153.718ZM63.213 157.678C62.8756 157.678 62.6006 157.59 62.388 157.414C62.1753 157.238 62.069 156.96 62.069 156.578V149.868H62.993V156.501C62.993 156.619 63.0223 156.71 63.081 156.776C63.147 156.835 63.2386 156.864 63.356 156.864H63.862V157.678H63.213ZM66.5746 157.81C65.9732 157.81 65.4929 157.671 65.1336 157.392C64.7816 157.114 64.6056 156.725 64.6056 156.226C64.6056 155.728 64.7522 155.335 65.0456 155.049C65.3389 154.763 65.8046 154.562 66.4426 154.444L68.5106 154.059C68.5106 153.568 68.3932 153.201 68.1586 152.959C67.9312 152.717 67.5866 152.596 67.1246 152.596C66.7212 152.596 66.4022 152.688 66.1676 152.871C65.9329 153.047 65.7716 153.304 65.6836 153.641L64.7046 153.564C64.8146 153.014 65.0786 152.571 65.4966 152.233C65.9219 151.889 66.4646 151.716 67.1246 151.716C67.8726 151.716 68.4446 151.929 68.8406 152.354C69.2366 152.772 69.4346 153.352 69.4346 154.092V156.501C69.4346 156.633 69.4566 156.729 69.5006 156.787C69.5519 156.839 69.6326 156.864 69.7426 156.864H69.9736V157.678C69.9442 157.686 69.8966 157.689 69.8306 157.689C69.7646 157.697 69.6949 157.7 69.6216 157.7C69.3576 157.7 69.1412 157.66 68.9726 157.579C68.8112 157.491 68.6939 157.359 68.6206 157.183C68.5472 157 68.5106 156.762 68.5106 156.468L68.6206 156.49C68.5692 156.74 68.4446 156.967 68.2466 157.172C68.0486 157.37 67.8029 157.528 67.5096 157.645C67.2162 157.755 66.9046 157.81 66.5746 157.81ZM66.6626 156.996C67.0512 156.996 67.3812 156.923 67.6526 156.776C67.9312 156.622 68.1439 156.417 68.2906 156.16C68.4372 155.896 68.5106 155.603 68.5106 155.28V154.862L66.6186 155.214C66.2226 155.288 65.9476 155.401 65.7936 155.555C65.6469 155.702 65.5736 155.896 65.5736 156.138C65.5736 156.41 65.6689 156.622 65.8596 156.776C66.0576 156.923 66.3252 156.996 66.6626 156.996ZM71.0446 159.328V158.514H71.7156C71.921 158.514 72.0713 158.481 72.1666 158.415C72.2693 158.357 72.3463 158.258 72.3976 158.118L72.6066 157.568H72.2876L70.1536 151.848H71.1656L72.9036 156.71L74.5646 151.848H75.5766L73.2116 158.415C73.1016 158.731 72.9366 158.962 72.7166 159.108C72.4966 159.255 72.1923 159.328 71.8036 159.328H71.0446ZM78.6208 159.46C78.2028 159.46 77.8251 159.391 77.4878 159.251C77.1505 159.112 76.8681 158.914 76.6408 158.657C76.4135 158.401 76.2595 158.104 76.1788 157.766L77.1468 157.7C77.2348 157.972 77.3888 158.184 77.6088 158.338C77.8361 158.5 78.1735 158.58 78.6208 158.58C79.1488 158.58 79.5521 158.474 79.8308 158.261C80.1168 158.049 80.2598 157.73 80.2598 157.304V156.358C80.1205 156.666 79.8968 156.912 79.5888 157.095C79.2808 157.279 78.9361 157.37 78.5548 157.37C78.0635 157.37 77.6235 157.249 77.2348 157.007C76.8535 156.765 76.5528 156.432 76.3328 156.006C76.1201 155.581 76.0138 155.093 76.0138 154.543C76.0138 153.986 76.1201 153.498 76.3328 153.08C76.5455 152.655 76.8388 152.321 77.2128 152.079C77.5941 151.837 78.0268 151.716 78.5108 151.716C78.9215 151.716 79.2881 151.812 79.6108 152.002C79.9408 152.193 80.1718 152.45 80.3038 152.772V151.848H81.1838V157.282C81.1838 157.737 81.0811 158.126 80.8758 158.448C80.6705 158.778 80.3771 159.028 79.9958 159.196C79.6145 159.372 79.1561 159.46 78.6208 159.46ZM78.5988 156.49C79.0975 156.49 79.4971 156.318 79.7978 155.973C80.0985 155.621 80.2525 155.145 80.2598 154.543C80.2671 154.14 80.2011 153.795 80.0618 153.509C79.9298 153.216 79.7355 152.992 79.4788 152.838C79.2295 152.677 78.9361 152.596 78.5988 152.596C78.0855 152.596 77.6858 152.772 77.3998 153.124C77.1211 153.469 76.9818 153.942 76.9818 154.543C76.9818 155.145 77.1248 155.621 77.4108 155.973C77.7041 156.318 78.1001 156.49 78.5988 156.49ZM82.941 157.678V151.848H83.755L83.799 153.322L83.711 153.289C83.7844 152.791 83.942 152.428 84.184 152.2C84.4334 151.966 84.7634 151.848 85.174 151.848H85.746V152.728H85.185C84.8917 152.728 84.646 152.783 84.448 152.893C84.2574 152.996 84.1107 153.154 84.008 153.366C83.9127 153.572 83.865 153.836 83.865 154.158V157.678H82.941ZM88.9456 157.81C88.4102 157.81 87.9409 157.686 87.5376 157.436C87.1342 157.187 86.8226 156.835 86.6026 156.38C86.3826 155.918 86.2726 155.379 86.2726 154.763C86.2726 154.14 86.3826 153.601 86.6026 153.146C86.8226 152.692 87.1342 152.34 87.5376 152.09C87.9409 151.841 88.4102 151.716 88.9456 151.716C89.4809 151.716 89.9466 151.841 90.3426 152.09C90.7459 152.34 91.0576 152.692 91.2776 153.146C91.4976 153.601 91.6076 154.14 91.6076 154.763C91.6076 155.379 91.4976 155.918 91.2776 156.38C91.0576 156.835 90.7459 157.187 90.3426 157.436C89.9466 157.686 89.4809 157.81 88.9456 157.81ZM88.9456 156.93C89.4809 156.93 89.8952 156.74 90.1886 156.358C90.4892 155.97 90.6396 155.438 90.6396 154.763C90.6396 154.089 90.4892 153.561 90.1886 153.179C89.8952 152.791 89.4809 152.596 88.9456 152.596C88.4102 152.596 87.9922 152.791 87.6916 153.179C87.3909 153.561 87.2406 154.089 87.2406 154.763C87.2406 155.438 87.3909 155.97 87.6916 156.358C87.9922 156.74 88.4102 156.93 88.9456 156.93ZM94.7808 157.81C94.2015 157.81 93.7358 157.616 93.3838 157.227C93.0391 156.831 92.8668 156.289 92.8668 155.599V151.848H93.7908V155.346C93.7908 155.911 93.8898 156.329 94.0878 156.6C94.2931 156.864 94.6048 156.996 95.0228 156.996C95.4848 156.996 95.8478 156.85 96.1118 156.556C96.3758 156.256 96.5078 155.845 96.5078 155.324V151.848H97.4318V157.678H96.5518V156.237L96.6948 156.314C96.5775 156.791 96.3538 157.161 96.0238 157.425C95.6938 157.682 95.2795 157.81 94.7808 157.81ZM99.194 157.678V151.848H100.041L100.074 153.333L99.964 153.234C100.037 152.89 100.166 152.607 100.349 152.387C100.532 152.16 100.752 151.991 101.009 151.881C101.273 151.771 101.555 151.716 101.856 151.716C102.303 151.716 102.67 151.815 102.956 152.013C103.249 152.211 103.466 152.479 103.605 152.816C103.752 153.146 103.825 153.517 103.825 153.927V157.678H102.901V154.191C102.901 153.832 102.857 153.531 102.769 153.289C102.688 153.04 102.556 152.853 102.373 152.728C102.19 152.596 101.951 152.53 101.658 152.53C101.211 152.53 100.84 152.673 100.547 152.959C100.261 153.238 100.118 153.649 100.118 154.191V157.678H99.194ZM107.525 157.81C107.019 157.81 106.579 157.686 106.205 157.436C105.838 157.187 105.556 156.835 105.358 156.38C105.16 155.926 105.061 155.387 105.061 154.763C105.061 154.14 105.16 153.601 105.358 153.146C105.556 152.692 105.838 152.34 106.205 152.09C106.579 151.841 107.019 151.716 107.525 151.716C107.913 151.716 108.269 151.801 108.592 151.969C108.914 152.131 109.156 152.362 109.318 152.662V149.868H110.242V157.678H109.406L109.373 156.798C109.211 157.114 108.966 157.363 108.636 157.546C108.306 157.722 107.935 157.81 107.525 157.81ZM107.712 156.93C108.056 156.93 108.346 156.842 108.581 156.666C108.823 156.49 109.006 156.241 109.131 155.918C109.255 155.588 109.318 155.203 109.318 154.763C109.318 154.309 109.255 153.92 109.131 153.597C109.006 153.275 108.823 153.029 108.581 152.86C108.346 152.684 108.056 152.596 107.712 152.596C107.198 152.596 106.788 152.791 106.48 153.179C106.179 153.561 106.029 154.089 106.029 154.763C106.029 155.431 106.179 155.959 106.48 156.347C106.788 156.736 107.198 156.93 107.712 156.93Z" fill="#4C4E5B"/>
<rect x="21.3174" y="168.825" width="189.953" height="28.9111" rx="5" fill="#16171D"/>
<path d="M58.7516 188.301C57.8763 188.301 57.1223 188.111 56.4896 187.729C55.8656 187.339 55.3846 186.785 55.0466 186.065C54.7086 185.346 54.5396 184.488 54.5396 183.491C54.5396 182.495 54.7086 181.637 55.0466 180.917C55.3846 180.189 55.8656 179.63 56.4896 179.24C57.1223 178.85 57.8763 178.655 58.7516 178.655C59.6356 178.655 60.3896 178.85 61.0136 179.24C61.6463 179.63 62.1316 180.189 62.4696 180.917C62.8076 181.637 62.9766 182.495 62.9766 183.491C62.9766 184.488 62.8076 185.346 62.4696 186.065C62.1316 186.785 61.6463 187.339 61.0136 187.729C60.3896 188.111 59.6356 188.301 58.7516 188.301ZM58.7516 187.209C59.3929 187.209 59.9389 187.062 60.3896 186.767C60.8489 186.473 61.1999 186.048 61.4426 185.493C61.6853 184.939 61.8066 184.271 61.8066 183.491C61.8066 182.711 61.6853 182.044 61.4426 181.489C61.1999 180.926 60.8489 180.497 60.3896 180.202C59.9389 179.899 59.3929 179.747 58.7516 179.747C58.1189 179.747 57.5729 179.899 57.1136 180.202C56.6629 180.497 56.3163 180.926 56.0736 181.489C55.8309 182.044 55.7096 182.711 55.7096 183.491C55.7096 184.271 55.8309 184.939 56.0736 185.493C56.3163 186.048 56.6629 186.473 57.1136 186.767C57.5729 187.062 58.1189 187.209 58.7516 187.209ZM66.1695 188.093L63.6605 181.203H64.8565L66.8585 186.975L68.8605 181.203H70.0565L67.5475 188.093H66.1695ZM73.7325 188.249C73.0825 188.249 72.5191 188.102 72.0425 187.807C71.5745 187.513 71.2105 187.097 70.9505 186.559C70.6991 186.013 70.5735 185.376 70.5735 184.648C70.5735 183.92 70.6991 183.288 70.9505 182.75C71.2105 182.213 71.5701 181.797 72.0295 181.502C72.4975 181.199 73.0478 181.047 73.6805 181.047C74.2785 181.047 74.8071 181.19 75.2665 181.476C75.7258 181.754 76.0811 182.161 76.3325 182.698C76.5925 183.236 76.7225 183.89 76.7225 184.661V184.986H71.7175C71.7608 185.723 71.9558 186.278 72.3025 186.65C72.6578 187.023 73.1345 187.209 73.7325 187.209C74.1831 187.209 74.5515 187.105 74.8375 186.897C75.1321 186.681 75.3358 186.399 75.4485 186.052L76.6185 186.143C76.4365 186.759 76.0898 187.266 75.5785 187.664C75.0758 188.054 74.4605 188.249 73.7325 188.249ZM71.7175 184.024H75.5265C75.4745 183.357 75.2795 182.867 74.9415 182.555C74.6121 182.243 74.1918 182.087 73.6805 182.087C73.1518 182.087 72.7141 182.252 72.3675 182.581C72.0295 182.902 71.8128 183.383 71.7175 184.024ZM78.2016 188.093V181.203H79.1636L79.2156 182.945L79.1116 182.906C79.1983 182.317 79.3846 181.888 79.6706 181.619C79.9653 181.342 80.3553 181.203 80.8406 181.203H81.5166V182.243H80.8536C80.507 182.243 80.2166 182.308 79.9826 182.438C79.7573 182.56 79.584 182.746 79.4626 182.997C79.35 183.24 79.2936 183.552 79.2936 183.933V188.093H78.2016ZM84.5523 188.093L82.0433 181.203H83.2393L85.2413 186.975L87.2433 181.203H88.4393L85.9303 188.093H84.5523ZM89.6401 188.093V181.203H90.7321V188.093H89.6401ZM89.6141 180.124V178.85H90.7581V180.124H89.6141ZM95.378 188.249C94.728 188.249 94.1646 188.102 93.688 187.807C93.22 187.513 92.856 187.097 92.596 186.559C92.3446 186.013 92.219 185.376 92.219 184.648C92.219 183.92 92.3446 183.288 92.596 182.75C92.856 182.213 93.2156 181.797 93.675 181.502C94.143 181.199 94.6933 181.047 95.326 181.047C95.924 181.047 96.4526 181.19 96.912 181.476C97.3713 181.754 97.7266 182.161 97.978 182.698C98.238 183.236 98.368 183.89 98.368 184.661V184.986H93.363C93.4063 185.723 93.6013 186.278 93.948 186.65C94.3033 187.023 94.78 187.209 95.378 187.209C95.8286 187.209 96.197 187.105 96.483 186.897C96.7776 186.681 96.9813 186.399 97.094 186.052L98.264 186.143C98.082 186.759 97.7353 187.266 97.224 187.664C96.7213 188.054 96.106 188.249 95.378 188.249ZM93.363 184.024H97.172C97.12 183.357 96.925 182.867 96.587 182.555C96.2576 182.243 95.8373 182.087 95.326 182.087C94.7973 182.087 94.3596 182.252 94.013 182.581C93.675 182.902 93.4583 183.383 93.363 184.024ZM101.022 188.093L98.89 181.203H100.086L101.698 186.949L103.336 181.203H104.506L106.144 186.949L107.769 181.203H108.965L106.833 188.093H105.455L103.921 182.854L102.387 188.093H101.022Z" fill="white"/>
<path d="M58.3226 221.392C57.6119 221.392 56.9923 221.258 56.4636 220.989C55.9349 220.72 55.5146 220.352 55.2026 219.884C54.8993 219.407 54.7216 218.857 54.6696 218.233L55.8396 218.155C55.9003 218.614 56.0346 219.004 56.2426 219.325C56.4506 219.646 56.7279 219.888 57.0746 220.053C57.4299 220.218 57.8546 220.3 58.3486 220.3C58.7819 220.3 59.1503 220.244 59.4536 220.131C59.7569 220.018 59.9866 219.854 60.1426 219.637C60.3073 219.42 60.3896 219.156 60.3896 218.844C60.3896 218.558 60.3203 218.307 60.1816 218.09C60.0516 217.865 59.7959 217.661 59.4146 217.479C59.0419 217.288 58.4873 217.102 57.7506 216.92C57.0399 216.738 56.4723 216.539 56.0476 216.322C55.6316 216.105 55.3283 215.841 55.1376 215.529C54.9556 215.217 54.8646 214.831 54.8646 214.372C54.8646 213.852 54.9859 213.397 55.2286 213.007C55.4799 212.608 55.8353 212.301 56.2946 212.084C56.7539 211.859 57.2999 211.746 57.9326 211.746C58.6086 211.746 59.1893 211.876 59.6746 212.136C60.1599 212.387 60.5456 212.734 60.8316 213.176C61.1176 213.618 61.2953 214.121 61.3646 214.684L60.1946 214.762C60.1426 214.389 60.0213 214.06 59.8306 213.774C59.6486 213.479 59.3973 213.25 59.0766 213.085C58.7559 212.92 58.3659 212.838 57.9066 212.838C57.3346 212.838 56.8796 212.977 56.5416 213.254C56.2036 213.523 56.0346 213.878 56.0346 214.32C56.0346 214.606 56.0996 214.844 56.2296 215.035C56.3683 215.217 56.6109 215.382 56.9576 215.529C57.3043 215.668 57.8026 215.819 58.4526 215.984C59.2239 216.175 59.8349 216.404 60.2856 216.673C60.7449 216.933 61.0699 217.236 61.2606 217.583C61.4599 217.93 61.5596 218.324 61.5596 218.766C61.5596 219.303 61.4209 219.771 61.1436 220.17C60.8663 220.56 60.4849 220.863 59.9996 221.08C59.5143 221.288 58.9553 221.392 58.3226 221.392ZM66.1788 221.34C65.5288 221.34 64.9654 221.193 64.4888 220.898C64.0208 220.603 63.6568 220.187 63.3968 219.65C63.1454 219.104 63.0198 218.467 63.0198 217.739C63.0198 217.011 63.1454 216.378 63.3968 215.841C63.6568 215.304 64.0164 214.888 64.4758 214.593C64.9438 214.29 65.4941 214.138 66.1268 214.138C66.7248 214.138 67.2534 214.281 67.7128 214.567C68.1721 214.844 68.5274 215.252 68.7788 215.789C69.0388 216.326 69.1688 216.981 69.1688 217.752V218.077H64.1638C64.2071 218.814 64.4021 219.368 64.7488 219.741C65.1041 220.114 65.5808 220.3 66.1788 220.3C66.6294 220.3 66.9978 220.196 67.2838 219.988C67.5784 219.771 67.7821 219.49 67.8948 219.143L69.0648 219.234C68.8828 219.849 68.5361 220.356 68.0248 220.755C67.5221 221.145 66.9068 221.34 66.1788 221.34ZM64.1638 217.115H67.9728C67.9208 216.448 67.7258 215.958 67.3878 215.646C67.0584 215.334 66.6381 215.178 66.1268 215.178C65.5981 215.178 65.1604 215.343 64.8138 215.672C64.4758 215.993 64.2591 216.474 64.1638 217.115ZM73.1569 221.34C72.5416 221.34 72.0172 221.24 71.5839 221.041C71.1592 220.842 70.8256 220.569 70.5829 220.222C70.3489 219.867 70.2146 219.464 70.1799 219.013L71.3239 218.935C71.3932 219.351 71.5709 219.685 71.8569 219.936C72.1429 220.179 72.5762 220.3 73.1569 220.3C73.6249 220.3 73.9976 220.226 74.2749 220.079C74.5609 219.923 74.7039 219.676 74.7039 219.338C74.7039 219.156 74.6606 219.004 74.5739 218.883C74.4872 218.762 74.3182 218.658 74.0669 218.571C73.8156 218.476 73.4429 218.385 72.9489 218.298C72.2902 218.177 71.7702 218.029 71.3889 217.856C71.0162 217.674 70.7476 217.453 70.5829 217.193C70.4269 216.924 70.3489 216.608 70.3489 216.244C70.3489 215.629 70.5742 215.126 71.0249 214.736C71.4756 214.337 72.1169 214.138 72.9489 214.138C73.5122 214.138 73.9846 214.242 74.3659 214.45C74.7559 214.649 75.0592 214.918 75.2759 215.256C75.5012 215.585 75.6486 215.949 75.7179 216.348L74.5739 216.426C74.5219 216.183 74.4266 215.971 74.2879 215.789C74.1492 215.598 73.9672 215.451 73.7419 215.347C73.5166 215.234 73.2479 215.178 72.9359 215.178C72.4419 215.178 72.0779 215.273 71.8439 215.464C71.6099 215.655 71.4929 215.897 71.4929 216.192C71.4929 216.417 71.5449 216.604 71.6489 216.751C71.7616 216.89 71.9392 217.007 72.1819 217.102C72.4246 217.189 72.7496 217.267 73.1569 217.336C73.8589 217.457 74.4049 217.605 74.7949 217.778C75.1849 217.951 75.4579 218.164 75.6139 218.415C75.7699 218.666 75.8479 218.974 75.8479 219.338C75.8479 219.763 75.7266 220.127 75.4839 220.43C75.2499 220.725 74.9292 220.95 74.5219 221.106C74.1232 221.262 73.6682 221.34 73.1569 221.34ZM79.8473 221.34C79.232 221.34 78.7077 221.24 78.2743 221.041C77.8497 220.842 77.516 220.569 77.2733 220.222C77.0393 219.867 76.905 219.464 76.8703 219.013L78.0143 218.935C78.0837 219.351 78.2613 219.685 78.5473 219.936C78.8333 220.179 79.2667 220.3 79.8473 220.3C80.3153 220.3 80.688 220.226 80.9653 220.079C81.2513 219.923 81.3943 219.676 81.3943 219.338C81.3943 219.156 81.351 219.004 81.2643 218.883C81.1777 218.762 81.0087 218.658 80.7573 218.571C80.506 218.476 80.1333 218.385 79.6393 218.298C78.9807 218.177 78.4607 218.029 78.0793 217.856C77.7067 217.674 77.438 217.453 77.2733 217.193C77.1173 216.924 77.0393 216.608 77.0393 216.244C77.0393 215.629 77.2647 215.126 77.7153 214.736C78.166 214.337 78.8073 214.138 79.6393 214.138C80.2027 214.138 80.675 214.242 81.0563 214.45C81.4463 214.649 81.7497 214.918 81.9663 215.256C82.1917 215.585 82.339 215.949 82.4083 216.348L81.2643 216.426C81.2123 216.183 81.117 215.971 80.9783 215.789C80.8397 215.598 80.6577 215.451 80.4323 215.347C80.207 215.234 79.9383 215.178 79.6263 215.178C79.1323 215.178 78.7683 215.273 78.5343 215.464C78.3003 215.655 78.1833 215.897 78.1833 216.192C78.1833 216.417 78.2353 216.604 78.3393 216.751C78.452 216.89 78.6297 217.007 78.8723 217.102C79.115 217.189 79.44 217.267 79.8473 217.336C80.5493 217.457 81.0953 217.605 81.4853 217.778C81.8753 217.951 82.1483 218.164 82.3043 218.415C82.4603 218.666 82.5383 218.974 82.5383 219.338C82.5383 219.763 82.417 220.127 82.1743 220.43C81.9403 220.725 81.6197 220.95 81.2123 221.106C80.8137 221.262 80.3587 221.34 79.8473 221.34ZM84.0288 221.184V214.294H85.1208V221.184H84.0288ZM84.0028 213.215V211.941H85.1468V213.215H84.0028ZM89.7666 221.34C89.134 221.34 88.5793 221.193 88.1026 220.898C87.626 220.603 87.2576 220.187 86.9976 219.65C86.7376 219.104 86.6076 218.467 86.6076 217.739C86.6076 217.002 86.7376 216.365 86.9976 215.828C87.2576 215.291 87.626 214.875 88.1026 214.58C88.5793 214.285 89.134 214.138 89.7666 214.138C90.3993 214.138 90.9496 214.285 91.4176 214.58C91.8943 214.875 92.2626 215.291 92.5226 215.828C92.7826 216.365 92.9126 217.002 92.9126 217.739C92.9126 218.467 92.7826 219.104 92.5226 219.65C92.2626 220.187 91.8943 220.603 91.4176 220.898C90.9496 221.193 90.3993 221.34 89.7666 221.34ZM89.7666 220.3C90.3993 220.3 90.889 220.075 91.2356 219.624C91.591 219.165 91.7686 218.536 91.7686 217.739C91.7686 216.942 91.591 216.318 91.2356 215.867C90.889 215.408 90.3993 215.178 89.7666 215.178C89.134 215.178 88.64 215.408 88.2846 215.867C87.9293 216.318 87.7516 216.942 87.7516 217.739C87.7516 218.536 87.9293 219.165 88.2846 219.624C88.64 220.075 89.134 220.3 89.7666 220.3ZM94.4008 221.184V214.294H95.4018L95.4408 216.049L95.3108 215.932C95.3975 215.525 95.5492 215.191 95.7658 214.931C95.9825 214.662 96.2425 214.463 96.5458 214.333C96.8578 214.203 97.1915 214.138 97.5468 214.138C98.0755 214.138 98.5088 214.255 98.8468 214.489C99.1935 214.723 99.4492 215.039 99.6138 215.438C99.7872 215.828 99.8738 216.266 99.8738 216.751V221.184H98.7818V217.063C98.7818 216.638 98.7298 216.283 98.6258 215.997C98.5305 215.702 98.3745 215.481 98.1578 215.334C97.9412 215.178 97.6595 215.1 97.3128 215.1C96.7842 215.1 96.3465 215.269 95.9998 215.607C95.6618 215.936 95.4928 216.422 95.4928 217.063V221.184H94.4008ZM104.311 221.34C103.696 221.34 103.172 221.24 102.738 221.041C102.314 220.842 101.98 220.569 101.737 220.222C101.503 219.867 101.369 219.464 101.334 219.013L102.478 218.935C102.548 219.351 102.725 219.685 103.011 219.936C103.297 220.179 103.731 220.3 104.311 220.3C104.779 220.3 105.152 220.226 105.429 220.079C105.715 219.923 105.858 219.676 105.858 219.338C105.858 219.156 105.815 219.004 105.728 218.883C105.642 218.762 105.473 218.658 105.221 218.571C104.97 218.476 104.597 218.385 104.103 218.298C103.445 218.177 102.925 218.029 102.543 217.856C102.171 217.674 101.902 217.453 101.737 217.193C101.581 216.924 101.503 216.608 101.503 216.244C101.503 215.629 101.729 215.126 102.179 214.736C102.63 214.337 103.271 214.138 104.103 214.138C104.667 214.138 105.139 214.242 105.52 214.45C105.91 214.649 106.214 214.918 106.43 215.256C106.656 215.585 106.803 215.949 106.872 216.348L105.728 216.426C105.676 216.183 105.581 215.971 105.442 215.789C105.304 215.598 105.122 215.451 104.896 215.347C104.671 215.234 104.402 215.178 104.09 215.178C103.596 215.178 103.232 215.273 102.998 215.464C102.764 215.655 102.647 215.897 102.647 216.192C102.647 216.417 102.699 216.604 102.803 216.751C102.916 216.89 103.094 217.007 103.336 217.102C103.579 217.189 103.904 217.267 104.311 217.336C105.013 217.457 105.559 217.605 105.949 217.778C106.339 217.951 106.612 218.164 106.768 218.415C106.924 218.666 107.002 218.974 107.002 219.338C107.002 219.763 106.881 220.127 106.638 220.43C106.404 220.725 106.084 220.95 105.676 221.106C105.278 221.262 104.823 221.34 104.311 221.34Z" fill="#717489"/>
<path d="M55.5256 254.275V245.045H61.3236V246.137H56.6436V249.114H61.1676V250.18H56.6436V253.183H61.4276V254.275H55.5256ZM64.7037 254.275L62.1947 247.385H63.3907L65.3927 253.157L67.3947 247.385H68.5907L66.0817 254.275H64.7037ZM72.2666 254.431C71.6166 254.431 71.0533 254.284 70.5766 253.989C70.1086 253.694 69.7446 253.278 69.4846 252.741C69.2333 252.195 69.1076 251.558 69.1076 250.83C69.1076 250.102 69.2333 249.469 69.4846 248.932C69.7446 248.395 70.1043 247.979 70.5636 247.684C71.0316 247.381 71.582 247.229 72.2146 247.229C72.8126 247.229 73.3413 247.372 73.8006 247.658C74.26 247.935 74.6153 248.343 74.8666 248.88C75.1266 249.417 75.2566 250.072 75.2566 250.843V251.168H70.2516C70.295 251.905 70.49 252.459 70.8366 252.832C71.192 253.205 71.6686 253.391 72.2666 253.391C72.7173 253.391 73.0856 253.287 73.3716 253.079C73.6663 252.862 73.87 252.581 73.9826 252.234L75.1526 252.325C74.9706 252.94 74.624 253.447 74.1126 253.846C73.61 254.236 72.9946 254.431 72.2666 254.431ZM70.2516 250.206H74.0606C74.0086 249.539 73.8136 249.049 73.4756 248.737C73.1463 248.425 72.726 248.269 72.2146 248.269C71.686 248.269 71.2483 248.434 70.9016 248.763C70.5636 249.084 70.347 249.565 70.2516 250.206ZM76.7358 254.275V247.385H77.7368L77.7758 249.14L77.6458 249.023C77.7325 248.616 77.8841 248.282 78.1008 248.022C78.3175 247.753 78.5775 247.554 78.8808 247.424C79.1928 247.294 79.5265 247.229 79.8818 247.229C80.4105 247.229 80.8438 247.346 81.1818 247.58C81.5285 247.814 81.7841 248.13 81.9488 248.529C82.1221 248.919 82.2088 249.357 82.2088 249.842V254.275H81.1168V250.154C81.1168 249.729 81.0648 249.374 80.9608 249.088C80.8655 248.793 80.7095 248.572 80.4928 248.425C80.2761 248.269 79.9945 248.191 79.6478 248.191C79.1191 248.191 78.6815 248.36 78.3348 248.698C77.9968 249.027 77.8278 249.513 77.8278 250.154V254.275H76.7358ZM86.291 254.275C85.667 254.275 85.2033 254.132 84.9 253.846C84.6053 253.56 84.458 253.114 84.458 252.507V245.773H85.55V252.481C85.55 252.793 85.6193 253.01 85.758 253.131C85.8967 253.252 86.109 253.313 86.395 253.313H87.383V254.275H86.291ZM83.444 248.347V247.385H87.383V248.347H83.444ZM91.1657 254.431C90.5504 254.431 90.026 254.331 89.5927 254.132C89.168 253.933 88.8344 253.66 88.5917 253.313C88.3577 252.958 88.2234 252.555 88.1887 252.104L89.3327 252.026C89.402 252.442 89.5797 252.776 89.8657 253.027C90.1517 253.27 90.585 253.391 91.1657 253.391C91.6337 253.391 92.0064 253.317 92.2837 253.17C92.5697 253.014 92.7127 252.767 92.7127 252.429C92.7127 252.247 92.6694 252.095 92.5827 251.974C92.496 251.853 92.327 251.749 92.0757 251.662C91.8244 251.567 91.4517 251.476 90.9577 251.389C90.299 251.268 89.779 251.12 89.3977 250.947C89.025 250.765 88.7564 250.544 88.5917 250.284C88.4357 250.015 88.3577 249.699 88.3577 249.335C88.3577 248.72 88.583 248.217 89.0337 247.827C89.4844 247.428 90.1257 247.229 90.9577 247.229C91.521 247.229 91.9934 247.333 92.3747 247.541C92.7647 247.74 93.068 248.009 93.2847 248.347C93.51 248.676 93.6574 249.04 93.7267 249.439L92.5827 249.517C92.5307 249.274 92.4354 249.062 92.2967 248.88C92.158 248.689 91.976 248.542 91.7507 248.438C91.5254 248.325 91.2567 248.269 90.9447 248.269C90.4507 248.269 90.0867 248.364 89.8527 248.555C89.6187 248.746 89.5017 248.988 89.5017 249.283C89.5017 249.508 89.5537 249.695 89.6577 249.842C89.7704 249.981 89.948 250.098 90.1907 250.193C90.4334 250.28 90.7584 250.358 91.1657 250.427C91.8677 250.548 92.4137 250.696 92.8037 250.869C93.1937 251.042 93.4667 251.255 93.6227 251.506C93.7787 251.757 93.8567 252.065 93.8567 252.429C93.8567 252.854 93.7354 253.218 93.4927 253.521C93.2587 253.816 92.938 254.041 92.5307 254.197C92.132 254.353 91.677 254.431 91.1657 254.431Z" fill="#717489"/>
<path d="M55.1506 287.366V278.136H60.9486V279.228H55.7096L56.2686 278.656V282.894L55.7096 282.322H60.7146V283.388H55.7096L56.2686 282.816V287.366H55.1506ZM64.531 287.522C63.8463 287.522 63.296 287.292 62.88 286.833C62.4727 286.365 62.269 285.723 62.269 284.909V280.476H63.361V284.61C63.361 285.277 63.478 285.771 63.712 286.092C63.9547 286.404 64.323 286.56 64.817 286.56C65.363 286.56 65.792 286.386 66.104 286.04C66.416 285.684 66.572 285.199 66.572 284.584V280.476H67.664V287.366H66.624V285.663L66.793 285.754C66.6543 286.317 66.39 286.755 66 287.067C65.61 287.37 65.1203 287.522 64.531 287.522ZM69.7465 287.366V280.476H70.7475L70.7865 282.231L70.6565 282.114C70.7432 281.706 70.8949 281.373 71.1115 281.113C71.3282 280.844 71.5882 280.645 71.8915 280.515C72.2035 280.385 72.5372 280.32 72.8925 280.32C73.4212 280.32 73.8545 280.437 74.1925 280.671C74.5392 280.905 74.7949 281.221 74.9595 281.62C75.1329 282.01 75.2195 282.447 75.2195 282.933V287.366H74.1275V283.245C74.1275 282.82 74.0755 282.465 73.9715 282.179C73.8762 281.884 73.7202 281.663 73.5035 281.516C73.2869 281.36 73.0052 281.282 72.6585 281.282C72.1299 281.282 71.6922 281.451 71.3455 281.789C71.0075 282.118 70.8385 282.603 70.8385 283.245V287.366H69.7465ZM77.0463 287.366V280.476H78.0473L78.0863 282.231L77.9563 282.114C78.043 281.706 78.1947 281.373 78.4113 281.113C78.628 280.844 78.888 280.645 79.1913 280.515C79.5033 280.385 79.837 280.32 80.1923 280.32C80.721 280.32 81.1543 280.437 81.4923 280.671C81.839 280.905 82.0947 281.221 82.2593 281.62C82.4327 282.01 82.5193 282.447 82.5193 282.933V287.366H81.4273V283.245C81.4273 282.82 81.3753 282.465 81.2713 282.179C81.176 281.884 81.02 281.663 80.8033 281.516C80.5867 281.36 80.305 281.282 79.9583 281.282C79.4297 281.282 78.992 281.451 78.6453 281.789C78.3073 282.118 78.1383 282.603 78.1383 283.245V287.366H77.0463ZM87.1387 287.522C86.4887 287.522 85.9254 287.374 85.4487 287.08C84.9807 286.785 84.6167 286.369 84.3567 285.832C84.1054 285.286 83.9797 284.649 83.9797 283.921C83.9797 283.193 84.1054 282.56 84.3567 282.023C84.6167 281.485 84.9764 281.069 85.4357 280.775C85.9037 280.471 86.454 280.32 87.0867 280.32C87.6847 280.32 88.2134 280.463 88.6727 280.749C89.132 281.026 89.4874 281.433 89.7387 281.971C89.9987 282.508 90.1287 283.162 90.1287 283.934V284.259H85.1237C85.167 284.995 85.362 285.55 85.7087 285.923C86.064 286.295 86.5407 286.482 87.1387 286.482C87.5894 286.482 87.9577 286.378 88.2437 286.17C88.5384 285.953 88.742 285.671 88.8547 285.325L90.0247 285.416C89.8427 286.031 89.496 286.538 88.9847 286.937C88.482 287.327 87.8667 287.522 87.1387 287.522ZM85.1237 283.297H88.9327C88.8807 282.629 88.6857 282.14 88.3477 281.828C88.0184 281.516 87.598 281.36 87.0867 281.36C86.558 281.36 86.1204 281.524 85.7737 281.854C85.4357 282.174 85.219 282.655 85.1237 283.297ZM93.0233 287.366C92.6247 287.366 92.2997 287.262 92.0483 287.054C91.797 286.846 91.6713 286.516 91.6713 286.066V278.136H92.7633V285.975C92.7633 286.113 92.798 286.222 92.8673 286.3C92.9453 286.369 93.0537 286.404 93.1923 286.404H93.7903V287.366H93.0233ZM97.57 287.522C96.9547 287.522 96.4303 287.422 95.997 287.223C95.5723 287.023 95.2387 286.75 94.996 286.404C94.762 286.048 94.6277 285.645 94.593 285.195L95.737 285.117C95.8063 285.533 95.984 285.866 96.27 286.118C96.556 286.36 96.9893 286.482 97.57 286.482C98.038 286.482 98.4107 286.408 98.688 286.261C98.974 286.105 99.117 285.858 99.117 285.52C99.117 285.338 99.0737 285.186 98.987 285.065C98.9003 284.943 98.7313 284.839 98.48 284.753C98.2287 284.657 97.856 284.566 97.362 284.48C96.7033 284.358 96.1833 284.211 95.802 284.038C95.4293 283.856 95.1607 283.635 94.996 283.375C94.84 283.106 94.762 282.79 94.762 282.426C94.762 281.81 94.9873 281.308 95.438 280.918C95.8887 280.519 96.53 280.32 97.362 280.32C97.9253 280.32 98.3977 280.424 98.779 280.632C99.169 280.831 99.4723 281.1 99.689 281.438C99.9143 281.767 100.062 282.131 100.131 282.53L98.987 282.608C98.935 282.365 98.8397 282.153 98.701 281.971C98.5623 281.78 98.3803 281.633 98.155 281.529C97.9297 281.416 97.661 281.36 97.349 281.36C96.855 281.36 96.491 281.455 96.257 281.646C96.023 281.836 95.906 282.079 95.906 282.374C95.906 282.599 95.958 282.785 96.062 282.933C96.1747 283.071 96.3523 283.188 96.595 283.284C96.8377 283.37 97.1627 283.448 97.57 283.518C98.272 283.639 98.818 283.786 99.208 283.96C99.598 284.133 99.871 284.345 100.027 284.597C100.183 284.848 100.261 285.156 100.261 285.52C100.261 285.944 100.14 286.308 99.897 286.612C99.663 286.906 99.3423 287.132 98.935 287.288C98.5363 287.444 98.0813 287.522 97.57 287.522Z" fill="#717489"/>
<path d="M55.1506 320.457V311.227H58.4656C59.4969 311.227 60.2986 311.474 60.8706 311.968C61.4426 312.462 61.7286 313.146 61.7286 314.022C61.7286 314.611 61.5986 315.122 61.3386 315.556C61.0786 315.98 60.7059 316.305 60.2206 316.531C59.7353 316.756 59.1503 316.869 58.4656 316.869H56.2686V320.457H55.1506ZM56.2686 315.777H58.4656C59.1589 315.777 59.6789 315.629 60.0256 315.335C60.3809 315.04 60.5586 314.602 60.5586 314.022C60.5586 313.458 60.3809 313.034 60.0256 312.748C59.6789 312.462 59.1589 312.319 58.4656 312.319H56.2686V315.777ZM65.0167 320.613C64.306 320.613 63.7383 320.448 63.3137 320.119C62.8977 319.789 62.6897 319.33 62.6897 318.741C62.6897 318.151 62.863 317.688 63.2097 317.35C63.5563 317.012 64.1067 316.773 64.8607 316.635L67.3047 316.18C67.3047 315.599 67.166 315.166 66.8887 314.88C66.62 314.594 66.2127 314.451 65.6667 314.451C65.19 314.451 64.813 314.559 64.5357 314.776C64.2583 314.984 64.0677 315.287 63.9637 315.686L62.8067 315.595C62.9367 314.945 63.2487 314.42 63.7427 314.022C64.2453 313.614 64.8867 313.411 65.6667 313.411C66.5507 313.411 67.2267 313.662 67.6947 314.165C68.1627 314.659 68.3967 315.343 68.3967 316.219V319.066C68.3967 319.222 68.4227 319.334 68.4747 319.404C68.5353 319.464 68.6307 319.495 68.7607 319.495H69.0337V320.457C68.999 320.465 68.9427 320.47 68.8647 320.47C68.7867 320.478 68.7043 320.483 68.6177 320.483C68.3057 320.483 68.05 320.435 67.8507 320.34C67.66 320.236 67.5213 320.08 67.4347 319.872C67.348 319.655 67.3047 319.373 67.3047 319.027L67.4347 319.053C67.374 319.347 67.2267 319.616 66.9927 319.859C66.7587 320.093 66.4683 320.279 66.1217 320.418C65.775 320.548 65.4067 320.613 65.0167 320.613ZM65.1207 319.651C65.58 319.651 65.97 319.564 66.2907 319.391C66.62 319.209 66.8713 318.966 67.0447 318.663C67.218 318.351 67.3047 318.004 67.3047 317.623V317.129L65.0687 317.545C64.6007 317.631 64.2757 317.766 64.0937 317.948C63.9203 318.121 63.8337 318.351 63.8337 318.637C63.8337 318.957 63.9463 319.209 64.1717 319.391C64.4057 319.564 64.722 319.651 65.1207 319.651ZM72.8547 322.563C72.3607 322.563 71.9143 322.48 71.5157 322.316C71.117 322.151 70.7833 321.917 70.5147 321.614C70.246 321.31 70.064 320.959 69.9687 320.561L71.1127 320.483C71.2167 320.803 71.3987 321.055 71.6587 321.237C71.9273 321.427 72.326 321.523 72.8547 321.523C73.4787 321.523 73.9553 321.397 74.2847 321.146C74.6227 320.894 74.7917 320.517 74.7917 320.015V318.897C74.627 319.261 74.3627 319.551 73.9987 319.768C73.6347 319.984 73.2273 320.093 72.7767 320.093C72.196 320.093 71.676 319.95 71.2167 319.664C70.766 319.378 70.4107 318.983 70.1507 318.481C69.8993 317.978 69.7737 317.402 69.7737 316.752C69.7737 316.093 69.8993 315.517 70.1507 315.023C70.402 314.52 70.7487 314.126 71.1907 313.84C71.6413 313.554 72.1527 313.411 72.7247 313.411C73.21 313.411 73.6433 313.523 74.0247 313.749C74.4147 313.974 74.6877 314.277 74.8437 314.659V313.567H75.8837V319.989C75.8837 320.526 75.7623 320.985 75.5197 321.367C75.277 321.757 74.9303 322.051 74.4797 322.251C74.029 322.459 73.4873 322.563 72.8547 322.563ZM72.8287 319.053C73.418 319.053 73.8903 318.849 74.2457 318.442C74.601 318.026 74.783 317.462 74.7917 316.752C74.8003 316.275 74.7223 315.868 74.5577 315.53C74.4017 315.183 74.172 314.919 73.8687 314.737C73.574 314.546 73.2273 314.451 72.8287 314.451C72.222 314.451 71.7497 314.659 71.4117 315.075C71.0823 315.482 70.9177 316.041 70.9177 316.752C70.9177 317.462 71.0867 318.026 71.4247 318.442C71.7713 318.849 72.2393 319.053 72.8287 319.053ZM80.5245 320.613C79.8745 320.613 79.3111 320.465 78.8345 320.171C78.3665 319.876 78.0025 319.46 77.7425 318.923C77.4911 318.377 77.3655 317.74 77.3655 317.012C77.3655 316.284 77.4911 315.651 77.7425 315.114C78.0025 314.576 78.3621 314.16 78.8215 313.866C79.2895 313.562 79.8398 313.411 80.4725 313.411C81.0705 313.411 81.5991 313.554 82.0585 313.84C82.5178 314.117 82.8731 314.524 83.1245 315.062C83.3845 315.599 83.5145 316.253 83.5145 317.025V317.35H78.5095C78.5528 318.086 78.7478 318.641 79.0945 319.014C79.4498 319.386 79.9265 319.573 80.5245 319.573C80.9751 319.573 81.3435 319.469 81.6295 319.261C81.9241 319.044 82.1278 318.762 82.2405 318.416L83.4105 318.507C83.2285 319.122 82.8818 319.629 82.3705 320.028C81.8678 320.418 81.2525 320.613 80.5245 320.613ZM78.5095 316.388H82.3185C82.2665 315.72 82.0715 315.231 81.7335 314.919C81.4041 314.607 80.9838 314.451 80.4725 314.451C79.9438 314.451 79.5061 314.615 79.1595 314.945C78.8215 315.265 78.6048 315.746 78.5095 316.388ZM86.5455 320.457L84.0365 313.567H85.2325L87.2345 319.339L89.2365 313.567H90.4325L87.9235 320.457H86.5455ZM91.6333 320.457V313.567H92.7253V320.457H91.6333ZM91.6073 312.488V311.214H92.7513V312.488H91.6073ZM97.3711 320.613C96.7211 320.613 96.1578 320.465 95.6811 320.171C95.2131 319.876 94.8491 319.46 94.5891 318.923C94.3378 318.377 94.2121 317.74 94.2121 317.012C94.2121 316.284 94.3378 315.651 94.5891 315.114C94.8491 314.576 95.2088 314.16 95.6681 313.866C96.1361 313.562 96.6865 313.411 97.3191 313.411C97.9171 313.411 98.4458 313.554 98.9051 313.84C99.3645 314.117 99.7198 314.524 99.9711 315.062C100.231 315.599 100.361 316.253 100.361 317.025V317.35H95.3561C95.3995 318.086 95.5945 318.641 95.9411 319.014C96.2965 319.386 96.7731 319.573 97.3711 319.573C97.8218 319.573 98.1901 319.469 98.4761 319.261C98.7708 319.044 98.9745 318.762 99.0871 318.416L100.257 318.507C100.075 319.122 99.7285 319.629 99.2171 320.028C98.7145 320.418 98.0991 320.613 97.3711 320.613ZM95.3561 316.388H99.1651C99.1131 315.72 98.9181 315.231 98.5801 314.919C98.2508 314.607 97.8305 314.451 97.3191 314.451C96.7905 314.451 96.3528 314.615 96.0061 314.945C95.6681 315.265 95.4515 315.746 95.3561 316.388ZM103.015 320.457L100.883 313.567H102.079L103.691 319.313L105.329 313.567H106.499L108.137 319.313L109.762 313.567H110.958L108.826 320.457H107.448L105.914 315.218L104.38 320.457H103.015ZM114.455 320.613C113.839 320.613 113.315 320.513 112.882 320.314C112.457 320.114 112.123 319.841 111.881 319.495C111.647 319.139 111.512 318.736 111.478 318.286L112.622 318.208C112.691 318.624 112.869 318.957 113.155 319.209C113.441 319.451 113.874 319.573 114.455 319.573C114.923 319.573 115.295 319.499 115.573 319.352C115.859 319.196 116.002 318.949 116.002 318.611C116.002 318.429 115.958 318.277 115.872 318.156C115.785 318.034 115.616 317.93 115.365 317.844C115.113 317.748 114.741 317.657 114.247 317.571C113.588 317.449 113.068 317.302 112.687 317.129C112.314 316.947 112.045 316.726 111.881 316.466C111.725 316.197 111.647 315.881 111.647 315.517C111.647 314.901 111.872 314.399 112.323 314.009C112.773 313.61 113.415 313.411 114.247 313.411C114.81 313.411 115.282 313.515 115.664 313.723C116.054 313.922 116.357 314.191 116.574 314.529C116.799 314.858 116.946 315.222 117.016 315.621L115.872 315.699C115.82 315.456 115.724 315.244 115.586 315.062C115.447 314.871 115.265 314.724 115.04 314.62C114.814 314.507 114.546 314.451 114.234 314.451C113.74 314.451 113.376 314.546 113.142 314.737C112.908 314.927 112.791 315.17 112.791 315.465C112.791 315.69 112.843 315.876 112.947 316.024C113.059 316.162 113.237 316.279 113.48 316.375C113.722 316.461 114.047 316.539 114.455 316.609C115.157 316.73 115.703 316.877 116.093 317.051C116.483 317.224 116.756 317.436 116.912 317.688C117.068 317.939 117.146 318.247 117.146 318.611C117.146 319.035 117.024 319.399 116.782 319.703C116.548 319.997 116.227 320.223 115.82 320.379C115.421 320.535 114.966 320.613 114.455 320.613Z" fill="#717489"/>
<path d="M54.2146 353.547L57.5426 344.317H59.0506L62.3786 353.547H61.1566L60.2336 350.921H56.3596L55.4366 353.547H54.2146ZM56.7366 349.829H59.8566L58.2966 345.292L56.7366 349.829ZM66.1407 353.703C65.4993 353.703 64.9403 353.556 64.4637 353.261C63.9957 352.967 63.6317 352.551 63.3717 352.013C63.1117 351.467 62.9817 350.83 62.9817 350.102C62.9817 349.374 63.1117 348.742 63.3717 348.204C63.6317 347.667 63.9957 347.251 64.4637 346.956C64.9403 346.653 65.4993 346.501 66.1407 346.501C66.6693 346.501 67.1373 346.597 67.5447 346.787C67.9607 346.969 68.2987 347.238 68.5587 347.593C68.8187 347.949 68.9877 348.382 69.0657 348.893L67.9217 348.971C67.8437 348.512 67.6443 348.161 67.3237 347.918C67.003 347.667 66.6087 347.541 66.1407 347.541C65.508 347.541 65.014 347.771 64.6587 348.23C64.3033 348.681 64.1257 349.305 64.1257 350.102C64.1257 350.9 64.3033 351.528 64.6587 351.987C65.014 352.438 65.508 352.663 66.1407 352.663C66.6087 352.663 67.003 352.533 67.3237 352.273C67.6443 352.013 67.8437 351.623 67.9217 351.103L69.0657 351.181C68.9877 351.693 68.8187 352.139 68.5587 352.52C68.2987 352.893 67.9607 353.183 67.5447 353.391C67.1373 353.599 66.6693 353.703 66.1407 353.703ZM76.0744 355.497H74.9824V352.065L75.1384 352.247C75.0604 352.542 74.9131 352.798 74.6964 353.014C74.4884 353.231 74.2284 353.4 73.9164 353.521C73.6131 353.643 73.2837 353.703 72.9284 353.703C72.2437 353.703 71.6804 353.534 71.2384 353.196C70.8051 352.858 70.4801 352.416 70.2634 351.87C70.0554 351.324 69.9514 350.735 69.9514 350.102C69.9514 349.47 70.0554 348.88 70.2634 348.334C70.4801 347.788 70.8051 347.346 71.2384 347.008C71.6804 346.67 72.2437 346.501 72.9284 346.501C73.4657 346.501 73.9337 346.636 74.3324 346.904C74.7397 347.164 75.0257 347.55 75.1904 348.061L75.0344 348.139L75.0604 346.657H76.0744V355.497ZM73.0324 352.663C73.4397 352.663 73.7864 352.568 74.0724 352.377C74.3671 352.187 74.5924 351.901 74.7484 351.519C74.9044 351.138 74.9824 350.666 74.9824 350.102C74.9824 349.539 74.9001 349.067 74.7354 348.685C74.5794 348.304 74.3541 348.018 74.0594 347.827C73.7734 347.637 73.4311 347.541 73.0324 347.541C72.4344 347.541 71.9621 347.767 71.6154 348.217C71.2687 348.668 71.0954 349.296 71.0954 350.102C71.0954 350.908 71.2687 351.537 71.6154 351.987C71.9621 352.438 72.4344 352.663 73.0324 352.663ZM80.4128 353.703C79.7282 353.703 79.1778 353.474 78.7618 353.014C78.3545 352.546 78.1508 351.905 78.1508 351.09V346.657H79.2428V350.791C79.2428 351.459 79.3598 351.953 79.5938 352.273C79.8365 352.585 80.2048 352.741 80.6988 352.741C81.2448 352.741 81.6738 352.568 81.9858 352.221C82.2978 351.866 82.4538 351.381 82.4538 350.765V346.657H83.5458V353.547H82.5058V351.844L82.6748 351.935C82.5362 352.499 82.2718 352.936 81.8818 353.248C81.4918 353.552 81.0022 353.703 80.4128 353.703ZM85.4379 353.547V346.657H86.5299V353.547H85.4379ZM85.4119 345.578V344.304H86.5559V345.578H85.4119ZM90.9938 353.703C90.3785 353.703 89.8542 353.604 89.4208 353.404C88.9962 353.205 88.6625 352.932 88.4198 352.585C88.1858 352.23 88.0515 351.827 88.0168 351.376L89.1608 351.298C89.2302 351.714 89.4078 352.048 89.6938 352.299C89.9798 352.542 90.4132 352.663 90.9938 352.663C91.4618 352.663 91.8345 352.59 92.1118 352.442C92.3978 352.286 92.5408 352.039 92.5408 351.701C92.5408 351.519 92.4975 351.368 92.4108 351.246C92.3242 351.125 92.1552 351.021 91.9038 350.934C91.6525 350.839 91.2798 350.748 90.7858 350.661C90.1272 350.54 89.6072 350.393 89.2258 350.219C88.8532 350.037 88.5845 349.816 88.4198 349.556C88.2638 349.288 88.1858 348.971 88.1858 348.607C88.1858 347.992 88.4112 347.489 88.8618 347.099C89.3125 346.701 89.9538 346.501 90.7858 346.501C91.3492 346.501 91.8215 346.605 92.2028 346.813C92.5928 347.013 92.8962 347.281 93.1128 347.619C93.3382 347.949 93.4855 348.313 93.5548 348.711L92.4108 348.789C92.3588 348.547 92.2635 348.334 92.1248 348.152C91.9862 347.962 91.8042 347.814 91.5788 347.71C91.3535 347.598 91.0848 347.541 90.7728 347.541C90.2788 347.541 89.9148 347.637 89.6808 347.827C89.4468 348.018 89.3298 348.261 89.3298 348.555C89.3298 348.781 89.3818 348.967 89.4858 349.114C89.5985 349.253 89.7762 349.37 90.0188 349.465C90.2615 349.552 90.5865 349.63 90.9938 349.699C91.6958 349.821 92.2418 349.968 92.6318 350.141C93.0218 350.315 93.2948 350.527 93.4508 350.778C93.6068 351.03 93.6848 351.337 93.6848 351.701C93.6848 352.126 93.5635 352.49 93.3208 352.793C93.0868 353.088 92.7662 353.313 92.3588 353.469C91.9602 353.625 91.5052 353.703 90.9938 353.703ZM95.1753 353.547V346.657H96.2673V353.547H95.1753ZM95.1493 345.578V344.304H96.2933V345.578H95.1493ZM100.351 353.547C99.7266 353.547 99.2629 353.404 98.9596 353.118C98.6649 352.832 98.5176 352.386 98.5176 351.779V345.045H99.6096V351.753C99.6096 352.065 99.6789 352.282 99.8176 352.403C99.9562 352.525 100.169 352.585 100.455 352.585H101.443V353.547H100.351ZM97.5036 347.619V346.657H101.443V347.619H97.5036ZM102.843 353.547V346.657H103.935V353.547H102.843ZM102.817 345.578V344.304H103.961V345.578H102.817ZM108.581 353.703C107.948 353.703 107.394 353.556 106.917 353.261C106.44 352.967 106.072 352.551 105.812 352.013C105.552 351.467 105.422 350.83 105.422 350.102C105.422 349.366 105.552 348.729 105.812 348.191C106.072 347.654 106.44 347.238 106.917 346.943C107.394 346.649 107.948 346.501 108.581 346.501C109.214 346.501 109.764 346.649 110.232 346.943C110.709 347.238 111.077 347.654 111.337 348.191C111.597 348.729 111.727 349.366 111.727 350.102C111.727 350.83 111.597 351.467 111.337 352.013C111.077 352.551 110.709 352.967 110.232 353.261C109.764 353.556 109.214 353.703 108.581 353.703ZM108.581 352.663C109.214 352.663 109.703 352.438 110.05 351.987C110.405 351.528 110.583 350.9 110.583 350.102C110.583 349.305 110.405 348.681 110.05 348.23C109.703 347.771 109.214 347.541 108.581 347.541C107.948 347.541 107.454 347.771 107.099 348.23C106.744 348.681 106.566 349.305 106.566 350.102C106.566 350.9 106.744 351.528 107.099 351.987C107.454 352.438 107.948 352.663 108.581 352.663ZM113.215 353.547V346.657H114.216L114.255 348.412L114.125 348.295C114.212 347.888 114.364 347.554 114.58 347.294C114.797 347.026 115.057 346.826 115.36 346.696C115.672 346.566 116.006 346.501 116.361 346.501C116.89 346.501 117.323 346.618 117.661 346.852C118.008 347.086 118.264 347.403 118.428 347.801C118.602 348.191 118.688 348.629 118.688 349.114V353.547H117.596V349.426C117.596 349.002 117.544 348.646 117.44 348.36C117.345 348.066 117.189 347.845 116.972 347.697C116.756 347.541 116.474 347.463 116.127 347.463C115.599 347.463 115.161 347.632 114.814 347.97C114.476 348.3 114.307 348.785 114.307 349.426V353.547H113.215ZM123.126 353.703C122.51 353.703 121.986 353.604 121.553 353.404C121.128 353.205 120.794 352.932 120.552 352.585C120.318 352.23 120.183 351.827 120.149 351.376L121.293 351.298C121.362 351.714 121.54 352.048 121.826 352.299C122.112 352.542 122.545 352.663 123.126 352.663C123.594 352.663 123.966 352.59 124.244 352.442C124.53 352.286 124.673 352.039 124.673 351.701C124.673 351.519 124.629 351.368 124.543 351.246C124.456 351.125 124.287 351.021 124.036 350.934C123.784 350.839 123.412 350.748 122.918 350.661C122.259 350.54 121.739 350.393 121.358 350.219C120.985 350.037 120.716 349.816 120.552 349.556C120.396 349.288 120.318 348.971 120.318 348.607C120.318 347.992 120.543 347.489 120.994 347.099C121.444 346.701 122.086 346.501 122.918 346.501C123.481 346.501 123.953 346.605 124.335 346.813C124.725 347.013 125.028 347.281 125.245 347.619C125.47 347.949 125.617 348.313 125.687 348.711L124.543 348.789C124.491 348.547 124.395 348.334 124.257 348.152C124.118 347.962 123.936 347.814 123.711 347.71C123.485 347.598 123.217 347.541 122.905 347.541C122.411 347.541 122.047 347.637 121.813 347.827C121.579 348.018 121.462 348.261 121.462 348.555C121.462 348.781 121.514 348.967 121.618 349.114C121.73 349.253 121.908 349.37 122.151 349.465C122.393 349.552 122.718 349.63 123.126 349.699C123.828 349.821 124.374 349.968 124.764 350.141C125.154 350.315 125.427 350.527 125.583 350.778C125.739 351.03 125.817 351.337 125.817 351.701C125.817 352.126 125.695 352.49 125.453 352.793C125.219 353.088 124.898 353.313 124.491 353.469C124.092 353.625 123.637 353.703 123.126 353.703Z" fill="#717489"/>
<path d="M55.1506 386.516V377.286H56.2686V385.996L55.7096 385.424H60.8836V386.516H55.1506ZM61.8881 386.516V379.626H62.9801V386.516H61.8881ZM61.8621 378.547V377.273H63.0061V378.547H61.8621ZM66.69 386.516L64.181 379.626H65.377L67.379 385.398L69.381 379.626H70.577L68.068 386.516H66.69ZM74.253 386.672C73.603 386.672 73.0396 386.525 72.563 386.23C72.095 385.935 71.731 385.519 71.471 384.982C71.2196 384.436 71.094 383.799 71.094 383.071C71.094 382.343 71.2196 381.71 71.471 381.173C71.731 380.636 72.0906 380.22 72.55 379.925C73.018 379.622 73.5683 379.47 74.201 379.47C74.799 379.47 75.3276 379.613 75.787 379.899C76.2463 380.176 76.6016 380.584 76.853 381.121C77.113 381.658 77.243 382.313 77.243 383.084V383.409H72.238C72.2813 384.146 72.4763 384.7 72.823 385.073C73.1783 385.446 73.655 385.632 74.253 385.632C74.7036 385.632 75.072 385.528 75.358 385.32C75.6526 385.103 75.8563 384.822 75.969 384.475L77.139 384.566C76.957 385.181 76.6103 385.688 76.099 386.087C75.5963 386.477 74.981 386.672 74.253 386.672ZM72.238 382.447H76.047C75.995 381.78 75.8 381.29 75.462 380.978C75.1326 380.666 74.7123 380.51 74.201 380.51C73.6723 380.51 73.2346 380.675 72.888 381.004C72.55 381.325 72.3333 381.806 72.238 382.447Z" fill="#3D3F4A"/>
<path d="M58.9906 419.693C58.2799 419.693 57.6602 419.559 57.1316 419.29C56.6029 419.022 56.1826 418.653 55.8706 418.185C55.5672 417.709 55.3896 417.158 55.3376 416.534L56.5076 416.456C56.5682 416.916 56.7026 417.306 56.9106 417.626C57.1186 417.947 57.3959 418.19 57.7426 418.354C58.0979 418.519 58.5226 418.601 59.0166 418.601C59.4499 418.601 59.8182 418.545 60.1216 418.432C60.4249 418.32 60.6546 418.155 60.8106 417.938C60.9752 417.722 61.0576 417.457 61.0576 417.145C61.0576 416.859 60.9882 416.608 60.8496 416.391C60.7196 416.166 60.4639 415.962 60.0826 415.78C59.7099 415.59 59.1552 415.403 58.4186 415.221C57.7079 415.039 57.1402 414.84 56.7156 414.623C56.2996 414.407 55.9962 414.142 55.8056 413.83C55.6236 413.518 55.5326 413.133 55.5326 412.673C55.5326 412.153 55.6539 411.698 55.8966 411.308C56.1479 410.91 56.5032 410.602 56.9626 410.385C57.4219 410.16 57.9679 410.047 58.6006 410.047C59.2766 410.047 59.8572 410.177 60.3426 410.437C60.8279 410.689 61.2136 411.035 61.4996 411.477C61.7856 411.919 61.9632 412.422 62.0326 412.985L60.8626 413.063C60.8106 412.691 60.6892 412.361 60.4986 412.075C60.3166 411.781 60.0652 411.551 59.7446 411.386C59.4239 411.222 59.0339 411.139 58.5746 411.139C58.0026 411.139 57.5476 411.278 57.2096 411.555C56.8716 411.824 56.7026 412.179 56.7026 412.621C56.7026 412.907 56.7676 413.146 56.8976 413.336C57.0362 413.518 57.2789 413.683 57.6256 413.83C57.9722 413.969 58.4706 414.121 59.1206 414.285C59.8919 414.476 60.5029 414.706 60.9536 414.974C61.4129 415.234 61.7379 415.538 61.9286 415.884C62.1279 416.231 62.2276 416.625 62.2276 417.067C62.2276 417.605 62.0889 418.073 61.8116 418.471C61.5342 418.861 61.1529 419.165 60.6676 419.381C60.1822 419.589 59.6232 419.693 58.9906 419.693ZM66.8467 419.641C66.1967 419.641 65.6334 419.494 65.1567 419.199C64.6887 418.905 64.3247 418.489 64.0647 417.951C63.8134 417.405 63.6877 416.768 63.6877 416.04C63.6877 415.312 63.8134 414.68 64.0647 414.142C64.3247 413.605 64.6844 413.189 65.1437 412.894C65.6117 412.591 66.1621 412.439 66.7947 412.439C67.3927 412.439 67.9214 412.582 68.3807 412.868C68.8401 413.146 69.1954 413.553 69.4467 414.09C69.7067 414.628 69.8367 415.282 69.8367 416.053V416.378H64.8317C64.8751 417.115 65.0701 417.67 65.4167 418.042C65.7721 418.415 66.2487 418.601 66.8467 418.601C67.2974 418.601 67.6657 418.497 67.9517 418.289C68.2464 418.073 68.4501 417.791 68.5627 417.444L69.7327 417.535C69.5507 418.151 69.2041 418.658 68.6927 419.056C68.1901 419.446 67.5747 419.641 66.8467 419.641ZM64.8317 415.416H68.6407C68.5887 414.749 68.3937 414.259 68.0557 413.947C67.7264 413.635 67.3061 413.479 66.7947 413.479C66.2661 413.479 65.8284 413.644 65.4817 413.973C65.1437 414.294 64.9271 414.775 64.8317 415.416ZM73.5713 419.485C72.9473 419.485 72.4836 419.342 72.1803 419.056C71.8856 418.77 71.7383 418.324 71.7383 417.717V410.983H72.8303V417.691C72.8303 418.003 72.8996 418.22 73.0383 418.341C73.1769 418.463 73.3893 418.523 73.6753 418.523H74.6633V419.485H73.5713ZM70.7243 413.557V412.595H74.6633V413.557H70.7243ZM77.4843 419.485C76.8603 419.485 76.3966 419.342 76.0933 419.056C75.7986 418.77 75.6513 418.324 75.6513 417.717V410.983H76.7433V417.691C76.7433 418.003 76.8126 418.22 76.9513 418.341C77.0899 418.463 77.3023 418.523 77.5883 418.523H78.5763V419.485H77.4843ZM74.6373 413.557V412.595H78.5763V413.557H74.6373ZM79.9868 419.485V412.595H81.0788V419.485H79.9868ZM79.9608 411.516V410.242H81.1048V411.516H79.9608ZM83.2876 419.485V412.595H84.2886L84.3276 414.35L84.1976 414.233C84.2842 413.826 84.4359 413.492 84.6526 413.232C84.8692 412.964 85.1292 412.764 85.4326 412.634C85.7446 412.504 86.0782 412.439 86.4336 412.439C86.9622 412.439 87.3956 412.556 87.7336 412.79C88.0802 413.024 88.3359 413.341 88.5006 413.739C88.6739 414.129 88.7606 414.567 88.7606 415.052V419.485H87.6686V415.364C87.6686 414.94 87.6166 414.584 87.5126 414.298C87.4172 414.004 87.2612 413.783 87.0446 413.635C86.8279 413.479 86.5462 413.401 86.1996 413.401C85.6709 413.401 85.2332 413.57 84.8866 413.908C84.5486 414.238 84.3796 414.723 84.3796 415.364V419.485H83.2876ZM93.3019 421.591C92.8079 421.591 92.3616 421.509 91.9629 421.344C91.5643 421.18 91.2306 420.946 90.9619 420.642C90.6933 420.339 90.5113 419.988 90.4159 419.589L91.5599 419.511C91.6639 419.832 91.8459 420.083 92.1059 420.265C92.3746 420.456 92.7733 420.551 93.3019 420.551C93.9259 420.551 94.4026 420.426 94.7319 420.174C95.0699 419.923 95.2389 419.546 95.2389 419.043V417.925C95.0743 418.289 94.8099 418.58 94.4459 418.796C94.0819 419.013 93.6746 419.121 93.2239 419.121C92.6433 419.121 92.1233 418.978 91.6639 418.692C91.2133 418.406 90.8579 418.012 90.5979 417.509C90.3466 417.007 90.2209 416.43 90.2209 415.78C90.2209 415.122 90.3466 414.545 90.5979 414.051C90.8493 413.549 91.1959 413.154 91.6379 412.868C92.0886 412.582 92.5999 412.439 93.1719 412.439C93.6573 412.439 94.0906 412.552 94.4719 412.777C94.8619 413.003 95.1349 413.306 95.2909 413.687V412.595H96.3309V419.017C96.3309 419.555 96.2096 420.014 95.9669 420.395C95.7243 420.785 95.3776 421.08 94.9269 421.279C94.4763 421.487 93.9346 421.591 93.3019 421.591ZM93.2759 418.081C93.8653 418.081 94.3376 417.878 94.6929 417.47C95.0483 417.054 95.2303 416.491 95.2389 415.78C95.2476 415.304 95.1696 414.896 95.0049 414.558C94.8489 414.212 94.6193 413.947 94.3159 413.765C94.0213 413.575 93.6746 413.479 93.2759 413.479C92.6693 413.479 92.1969 413.687 91.8589 414.103C91.5296 414.511 91.3649 415.07 91.3649 415.78C91.3649 416.491 91.5339 417.054 91.8719 417.47C92.2186 417.878 92.6866 418.081 93.2759 418.081ZM100.79 419.641C100.174 419.641 99.6501 419.542 99.2167 419.342C98.7921 419.143 98.4584 418.87 98.2157 418.523C97.9817 418.168 97.8474 417.765 97.8127 417.314L98.9567 417.236C99.0261 417.652 99.2037 417.986 99.4897 418.237C99.7757 418.48 100.209 418.601 100.79 418.601C101.258 418.601 101.63 418.528 101.908 418.38C102.194 418.224 102.337 417.977 102.337 417.639C102.337 417.457 102.293 417.306 102.207 417.184C102.12 417.063 101.951 416.959 101.7 416.872C101.448 416.777 101.076 416.686 100.582 416.599C99.9231 416.478 99.4031 416.331 99.0217 416.157C98.6491 415.975 98.3804 415.754 98.2157 415.494C98.0597 415.226 97.9817 414.909 97.9817 414.545C97.9817 413.93 98.2071 413.427 98.6577 413.037C99.1084 412.639 99.7497 412.439 100.582 412.439C101.145 412.439 101.617 412.543 101.999 412.751C102.389 412.951 102.692 413.219 102.909 413.557C103.134 413.887 103.281 414.251 103.351 414.649L102.207 414.727C102.155 414.485 102.059 414.272 101.921 414.09C101.782 413.9 101.6 413.752 101.375 413.648C101.149 413.536 100.881 413.479 100.569 413.479C100.075 413.479 99.7107 413.575 99.4767 413.765C99.2427 413.956 99.1257 414.199 99.1257 414.493C99.1257 414.719 99.1777 414.905 99.2817 415.052C99.3944 415.191 99.5721 415.308 99.8147 415.403C100.057 415.49 100.382 415.568 100.79 415.637C101.492 415.759 102.038 415.906 102.428 416.079C102.818 416.253 103.091 416.465 103.247 416.716C103.403 416.968 103.481 417.275 103.481 417.639C103.481 418.064 103.359 418.428 103.117 418.731C102.883 419.026 102.562 419.251 102.155 419.407C101.756 419.563 101.301 419.641 100.79 419.641Z" fill="#717489"/>
<path d="M29.5752 185.28H41.5752M33.5752 193.28V185.28M30.9085 181.28H40.2419C40.9782 181.28 41.5752 181.877 41.5752 182.614V191.947C41.5752 192.683 40.9782 193.28 40.2419 193.28H30.9085C30.1721 193.28 29.5752 192.683 29.5752 191.947V182.614C29.5752 181.877 30.1721 181.28 30.9085 181.28Z" stroke="white" stroke-linecap="round" stroke-linejoin="round"/>
<path d="M38.2419 214.907H41.5752M41.5752 214.907V218.241M41.5752 214.907L37.5752 218.907M32.9085 214.907H29.5752M29.5752 214.907V218.241M29.5752 214.907L34.7939 220.126C35.045 220.377 35.2435 220.676 35.3777 221.004C35.5119 221.333 35.579 221.685 35.5752 222.041V227.574" stroke="#717489" stroke-linecap="round" stroke-linejoin="round"/>
<path d="M32.4303 247.422L32.9409 249.273M31.0898 251.124L29.2388 250.613M36.7707 248.635L35.4941 249.847M31.6643 253.677L30.4515 254.954M33.5792 251.762L36.7707 259.422L37.9196 256.103L41.2388 254.954L33.5792 251.762Z" stroke="#717489" stroke-linecap="round" stroke-linejoin="round"/>
<path d="M42.5629 280.87H29.2388L34.5684 287.172V291.529L37.2332 292.861V287.172L42.5629 280.87Z" stroke="#717489" stroke-linecap="round" stroke-linejoin="round"/>
<path d="M29.9423 317.901C29.8923 317.766 29.8923 317.617 29.9423 317.481C30.4289 316.295 31.255 315.28 32.3158 314.567C33.3765 313.853 34.6242 313.472 35.9007 313.472C37.1771 313.472 38.4248 313.853 39.4856 314.567C40.5463 315.28 41.3724 316.295 41.8591 317.481C41.909 317.617 41.909 317.766 41.8591 317.901C41.3724 319.088 40.5463 320.102 39.4856 320.816C38.4248 321.53 37.1771 321.911 35.9007 321.911C34.6242 321.911 33.3765 321.53 32.3158 320.816C31.255 320.102 30.4289 319.088 29.9423 317.901Z" stroke="#717489" stroke-linecap="round" stroke-linejoin="round"/>
<path d="M35.9007 319.5C36.894 319.5 37.6993 318.69 37.6993 317.691C37.6993 316.692 36.894 315.883 35.9007 315.883C34.9073 315.883 34.102 316.692 34.102 317.691C34.102 318.69 34.9073 319.5 35.9007 319.5Z" stroke="#717489" stroke-linecap="round" stroke-linejoin="round"/>
<path d="M31.7982 350.964L29.9048 345.252L41.8965 350.964M31.7982 350.964L29.9048 356.675L41.8965 350.964M31.7982 350.964H41.8965" stroke="#717489" stroke-linecap="round" stroke-linejoin="round"/>
<path d="M41.2694 387.816H38.5454C38.2272 387.816 37.9219 387.943 37.6969 388.168C37.4718 388.393 37.3454 388.698 37.3454 389.016V391.74M32.5454 380.82V381.816C32.5454 382.294 32.7351 382.751 33.0726 383.089C33.4102 383.426 33.868 383.616 34.3454 383.616C34.6637 383.616 34.9689 383.743 35.1939 383.968C35.419 384.193 35.5454 384.498 35.5454 384.816C35.5454 385.476 36.0854 386.016 36.7454 386.016C37.0637 386.016 37.3689 385.89 37.5939 385.665C37.819 385.44 37.9454 385.134 37.9454 384.816C37.9454 384.156 38.4854 383.616 39.1454 383.616H41.0474M34.9454 391.986V389.616C34.9454 389.298 34.819 388.993 34.5939 388.768C34.3689 388.543 34.0637 388.416 33.7454 388.416C33.4272 388.416 33.1219 388.29 32.8969 388.065C32.6718 387.84 32.5454 387.534 32.5454 387.216V386.616C32.5454 386.298 32.419 385.993 32.1939 385.768C31.9689 385.543 31.6637 385.416 31.3454 385.416H29.5754M41.5454 386.016C41.5454 389.33 38.8591 392.016 35.5454 392.016C32.2317 392.016 29.5454 389.33 29.5454 386.016C29.5454 382.702 32.2317 380.016 35.5454 380.016C38.8591 380.016 41.5454 382.702 41.5454 386.016Z" stroke="#3D3F4A" stroke-linecap="round" stroke-linejoin="round"/>
<path d="M35.6874 412.522H35.4031C35.0603 412.522 34.7315 412.659 34.4891 412.901C34.2467 413.143 34.1105 413.472 34.1105 413.815V413.931C34.1103 414.158 34.0504 414.381 33.937 414.577C33.8235 414.773 33.6605 414.936 33.4642 415.049L33.1863 415.211C32.9898 415.324 32.7669 415.384 32.54 415.384C32.3131 415.384 32.0902 415.324 31.8937 415.211L31.7968 415.159C31.5002 414.988 31.1478 414.942 30.817 415.03C30.4862 415.119 30.204 415.335 30.0324 415.631L29.8902 415.877C29.7191 416.173 29.6727 416.526 29.7612 416.856C29.8496 417.187 30.0657 417.469 30.362 417.641L30.459 417.706C30.6543 417.818 30.8168 417.98 30.9301 418.175C31.0435 418.37 31.1039 418.592 31.1052 418.817V419.147C31.1061 419.375 31.0469 419.599 30.9334 419.796C30.8199 419.994 30.6562 420.158 30.459 420.271L30.362 420.33C30.0657 420.501 29.8496 420.783 29.7612 421.114C29.6727 421.445 29.7191 421.797 29.8902 422.094L30.0324 422.34C30.204 422.636 30.4862 422.852 30.817 422.94C31.1478 423.029 31.5002 422.982 31.7968 422.811L31.8937 422.76C32.0902 422.646 32.3131 422.587 32.54 422.587C32.7669 422.587 32.9898 422.646 33.1863 422.76L33.4642 422.921C33.6605 423.035 33.8235 423.198 33.937 423.394C34.0504 423.59 34.1103 423.813 34.1105 424.039V424.156C34.1105 424.498 34.2467 424.827 34.4891 425.07C34.7315 425.312 35.0603 425.448 35.4031 425.448H35.6874C36.0302 425.448 36.359 425.312 36.6014 425.07C36.8438 424.827 36.98 424.498 36.98 424.156V424.039C36.9802 423.813 37.0401 423.59 37.1535 423.394C37.2669 423.198 37.43 423.035 37.6263 422.921L37.9042 422.76C38.1007 422.646 38.3236 422.587 38.5505 422.587C38.7774 422.587 39.0003 422.646 39.1968 422.76L39.2937 422.811C39.5903 422.982 39.9427 423.029 40.2735 422.94C40.6043 422.852 40.8865 422.636 41.0581 422.34L41.2003 422.088C41.3714 421.791 41.4178 421.439 41.3293 421.108C41.2409 420.777 41.0248 420.495 40.7285 420.323L40.6315 420.271C40.4343 420.158 40.2706 419.994 40.1571 419.796C40.0436 419.599 39.9844 419.375 39.9853 419.147V418.824C39.9844 418.596 40.0436 418.372 40.1571 418.175C40.2706 417.977 40.4343 417.813 40.6315 417.699L40.7285 417.641C41.0248 417.469 41.2409 417.187 41.3293 416.856C41.4178 416.526 41.3714 416.173 41.2003 415.877L41.0581 415.631C40.8865 415.335 40.6043 415.119 40.2735 415.03C39.9427 414.942 39.5903 414.988 39.2937 415.159L39.1968 415.211C39.0003 415.324 38.7774 415.384 38.5505 415.384C38.3236 415.384 38.1007 415.324 37.9042 415.211L37.6263 415.049C37.43 414.936 37.2669 414.773 37.1535 414.577C37.0401 414.381 36.9802 414.158 36.98 413.931V413.815C36.98 413.472 36.8438 413.143 36.6014 412.901C36.359 412.659 36.0302 412.522 35.6874 412.522Z" stroke="#717489" stroke-linecap="round" stroke-linejoin="round"/>
<path d="M35.5452 420.924C36.6161 420.924 37.4841 420.056 37.4841 418.985C37.4841 417.915 36.6161 417.046 35.5452 417.046C34.4744 417.046 33.6064 417.915 33.6064 418.985C33.6064 420.056 34.4744 420.924 35.5452 420.924Z" stroke="#717489" stroke-linecap="round" stroke-linejoin="round"/>
<rect width="1942" height="56.7456" fill="#090A0B"/>
<g style="mix-blend-mode:luminosity">
<path d="M26.9023 30.9287C26.9023 30.9287 29.1708 27.1787 34.4023 27.1787C39.2796 27.1787 41.9023 30.9287 41.9023 30.9287C41.9023 30.9287 39.6093 34.6787 34.4023 34.6787C29.5553 34.6787 26.9023 30.9287 26.9023 30.9287Z" fill="url(#paint0_linear_371_80)"/>
</g>
<g style="mix-blend-mode:luminosity">
<path d="M43.7773 36.5537C43.7773 41.0844 40.2628 45.9287 34.4023 45.9287V34.6787C34.4023 34.6787 39.1081 34.9117 41.9023 30.9287C43.3274 32.8348 43.7773 34.8246 43.7773 36.5537Z" fill="url(#paint1_linear_371_80)"/>
</g>
<path d="M25.0273 36.5537C25.0273 41.0844 28.5419 45.9287 34.4023 45.9287V34.6787C34.4023 34.6787 30.0143 34.924 26.9023 30.9287C25.4773 32.8348 25.0273 34.8246 25.0273 36.5537Z" fill="url(#paint2_linear_371_80)"/>
<path d="M25.0273 25.3037C25.0273 20.773 28.5419 15.9287 34.4023 15.9287L34.4023 27.1787C34.4023 27.1787 29.6966 26.9457 26.9023 30.9287C25.4773 29.0226 25.0273 27.0328 25.0273 25.3037Z" fill="url(#paint3_linear_371_80)"/>
<path d="M43.7773 25.3037C43.7773 20.773 40.2628 15.9287 34.4023 15.9287L34.4023 27.1787C34.4023 27.1787 38.8283 26.9501 41.9023 30.9287C43.3274 29.0226 43.7773 27.0328 43.7773 25.3037Z" fill="url(#paint4_linear_371_80)"/>
<circle cx="79.1768" cy="30.9287" r="6.5" fill="url(#paint5_radial_371_80)"/>
<path d="M94.9904 35.4287V26.1987H98.1624C99.2544 26.1987 100.073 26.398 100.619 26.7967C101.165 27.1954 101.438 27.8237 101.438 28.6817C101.438 29.0804 101.352 29.4314 101.178 29.7347C101.005 30.038 100.758 30.2764 100.437 30.4497C100.117 30.6144 99.7354 30.6967 99.2934 30.6967L99.2804 30.6187C100.069 30.6187 100.689 30.831 101.139 31.2557C101.599 31.6717 101.828 32.2177 101.828 32.8937C101.828 33.7344 101.555 34.367 101.009 34.7917C100.463 35.2164 99.6878 35.4287 98.6824 35.4287H94.9904ZM96.1084 34.3367H98.6824C99.3151 34.3367 99.8004 34.2067 100.138 33.9467C100.485 33.6867 100.658 33.314 100.658 32.8287C100.658 32.3434 100.485 31.9664 100.138 31.6977C99.8004 31.4204 99.3151 31.2817 98.6824 31.2817H96.1084V34.3367ZM96.1084 30.1897H98.1624C98.8384 30.1897 99.3584 30.064 99.7224 29.8127C100.086 29.5527 100.268 29.193 100.268 28.7337C100.268 28.2484 100.091 27.8887 99.7354 27.6547C99.3888 27.412 98.8644 27.2907 98.1624 27.2907H96.1084V30.1897ZM103.569 35.4287V26.1987H104.661V32.2437L108.015 28.5387H109.471L106.754 31.4637L109.588 35.4287H108.262L106.013 32.2047L104.661 33.6347V35.4287H103.569ZM112.132 35.4287C111.733 35.4287 111.408 35.3247 111.157 35.1167C110.905 34.9087 110.78 34.5794 110.78 34.1287V26.1987H111.872V34.0377C111.872 34.1764 111.906 34.2847 111.976 34.3627C112.054 34.432 112.162 34.4667 112.301 34.4667H112.899V35.4287H112.132ZM114.144 35.4287V28.5387H115.236V35.4287H114.144ZM114.118 27.4597V26.1857H115.262V27.4597H114.118ZM119.319 35.4287C118.695 35.4287 118.232 35.2857 117.928 34.9997C117.634 34.7137 117.486 34.2674 117.486 33.6607V26.9267H118.578V33.6347C118.578 33.9467 118.648 34.1634 118.786 34.2847C118.925 34.406 119.137 34.4667 119.423 34.4667H120.411V35.4287H119.319ZM116.472 29.5007V28.5387H120.411V29.5007H116.472ZM125.294 35.4287V26.1987H128.154C129.575 26.1987 130.667 26.6017 131.43 27.4077C132.201 28.205 132.587 29.3447 132.587 30.8267C132.587 32.3 132.21 33.4354 131.456 34.2327C130.702 35.03 129.627 35.4287 128.232 35.4287H125.294ZM126.412 34.3367H128.154C129.237 34.3367 130.052 34.0464 130.598 33.4657C131.144 32.8764 131.417 31.9967 131.417 30.8267C131.417 29.6394 131.144 28.7554 130.598 28.1747C130.052 27.5854 129.237 27.2907 128.154 27.2907H126.412V34.3367ZM137.084 35.5847C136.434 35.5847 135.871 35.4374 135.394 35.1427C134.926 34.848 134.562 34.432 134.302 33.8947C134.051 33.3487 133.925 32.7117 133.925 31.9837C133.925 31.2557 134.051 30.623 134.302 30.0857C134.562 29.5484 134.922 29.1324 135.381 28.8377C135.849 28.5344 136.399 28.3827 137.032 28.3827C137.63 28.3827 138.159 28.5257 138.618 28.8117C139.077 29.089 139.433 29.4964 139.684 30.0337C139.944 30.571 140.074 31.2254 140.074 31.9967V32.3217H135.069C135.112 33.0584 135.307 33.613 135.654 33.9857C136.009 34.3584 136.486 34.5447 137.084 34.5447C137.535 34.5447 137.903 34.4407 138.189 34.2327C138.484 34.016 138.687 33.7344 138.8 33.3877L139.97 33.4787C139.788 34.094 139.441 34.601 138.93 34.9997C138.427 35.3897 137.812 35.5847 137.084 35.5847ZM135.069 31.3597H138.878C138.826 30.6924 138.631 30.2027 138.293 29.8907C137.964 29.5787 137.543 29.4227 137.032 29.4227C136.503 29.4227 136.066 29.5874 135.719 29.9167C135.381 30.2374 135.164 30.7184 135.069 31.3597ZM141.553 35.4287V28.5387H142.554L142.593 30.2807L142.437 30.2287C142.515 29.8474 142.65 29.5224 142.84 29.2537C143.04 28.9764 143.282 28.764 143.568 28.6167C143.854 28.4607 144.171 28.3827 144.517 28.3827C145.115 28.3827 145.601 28.5474 145.973 28.8767C146.355 29.206 146.593 29.6654 146.688 30.2547L146.48 30.2417C146.55 29.843 146.675 29.5094 146.857 29.2407C147.048 28.9634 147.291 28.751 147.585 28.6037C147.88 28.4564 148.218 28.3827 148.599 28.3827C149.093 28.3827 149.509 28.4867 149.847 28.6947C150.185 28.894 150.441 29.1887 150.614 29.5787C150.788 29.9687 150.874 30.441 150.874 30.9957V35.4287H149.782V31.2297C149.782 30.6057 149.661 30.1377 149.418 29.8257C149.176 29.505 148.816 29.3447 148.339 29.3447C148.019 29.3447 147.737 29.4227 147.494 29.5787C147.26 29.7347 147.078 29.96 146.948 30.2547C146.818 30.5407 146.753 30.8917 146.753 31.3077V35.4287H145.661V31.3077C145.661 30.6924 145.553 30.2114 145.336 29.8647C145.12 29.518 144.756 29.3447 144.244 29.3447C143.924 29.3447 143.642 29.4227 143.399 29.5787C143.165 29.7347 142.979 29.96 142.84 30.2547C142.71 30.5494 142.645 30.9004 142.645 31.3077V35.4287H141.553ZM155.492 35.5847C154.86 35.5847 154.305 35.4374 153.828 35.1427C153.352 34.848 152.983 34.432 152.723 33.8947C152.463 33.3487 152.333 32.7117 152.333 31.9837C152.333 31.247 152.463 30.61 152.723 30.0727C152.983 29.5354 153.352 29.1194 153.828 28.8247C154.305 28.53 154.86 28.3827 155.492 28.3827C156.125 28.3827 156.675 28.53 157.143 28.8247C157.62 29.1194 157.988 29.5354 158.248 30.0727C158.508 30.61 158.638 31.247 158.638 31.9837C158.638 32.7117 158.508 33.3487 158.248 33.8947C157.988 34.432 157.62 34.848 157.143 35.1427C156.675 35.4374 156.125 35.5847 155.492 35.5847ZM155.492 34.5447C156.125 34.5447 156.615 34.3194 156.961 33.8687C157.317 33.4094 157.494 32.781 157.494 31.9837C157.494 31.1864 157.317 30.5624 156.961 30.1117C156.615 29.6524 156.125 29.4227 155.492 29.4227C154.86 29.4227 154.366 29.6524 154.01 30.1117C153.655 30.5624 153.477 31.1864 153.477 31.9837C153.477 32.781 153.655 33.4094 154.01 33.8687C154.366 34.3194 154.86 34.5447 155.492 34.5447Z" fill="white"/>
<path d="M222.912 32.9564L225.99 36.0512L229.067 32.9564M222.912 29.2427L225.99 26.1479L229.067 29.2427" stroke="#707388" stroke-linecap="round" stroke-linejoin="round"/>
<rect x="166.412" y="20.9287" width="34" height="20" rx="7" fill="#E6FFAF"/>
<path d="M175.424 34.4287V26.6187H178.229C179.101 26.6187 179.78 26.8277 180.264 27.2457C180.748 27.6637 180.99 28.243 180.99 28.9837C180.99 29.4824 180.88 29.915 180.66 30.2817C180.44 30.641 180.124 30.916 179.714 31.1067C179.303 31.2974 178.808 31.3927 178.229 31.3927H176.37V34.4287H175.424ZM176.37 30.4687H178.229C178.815 30.4687 179.255 30.344 179.549 30.0947C179.849 29.8454 180 29.475 180 28.9837C180 28.507 179.849 28.1477 179.549 27.9057C179.255 27.6637 178.815 27.5427 178.229 27.5427H176.37V30.4687ZM182.338 34.4287V28.5987H183.152L183.196 30.0727L183.108 30.0397C183.182 29.541 183.339 29.178 183.581 28.9507C183.831 28.716 184.161 28.5987 184.571 28.5987H185.143V29.4787H184.582C184.289 29.4787 184.043 29.5337 183.845 29.6437C183.655 29.7464 183.508 29.904 183.405 30.1167C183.31 30.322 183.262 30.586 183.262 30.9087V34.4287H182.338ZM188.343 34.5607C187.808 34.5607 187.338 34.436 186.935 34.1867C186.532 33.9374 186.22 33.5854 186 33.1307C185.78 32.6687 185.67 32.1297 185.67 31.5137C185.67 30.8904 185.78 30.3514 186 29.8967C186.22 29.442 186.532 29.09 186.935 28.8407C187.338 28.5914 187.808 28.4667 188.343 28.4667C188.878 28.4667 189.344 28.5914 189.74 28.8407C190.143 29.09 190.455 29.442 190.675 29.8967C190.895 30.3514 191.005 30.8904 191.005 31.5137C191.005 32.1297 190.895 32.6687 190.675 33.1307C190.455 33.5854 190.143 33.9374 189.74 34.1867C189.344 34.436 188.878 34.5607 188.343 34.5607ZM188.343 33.6807C188.878 33.6807 189.293 33.49 189.586 33.1087C189.887 32.72 190.037 32.1884 190.037 31.5137C190.037 30.839 189.887 30.311 189.586 29.9297C189.293 29.541 188.878 29.3467 188.343 29.3467C187.808 29.3467 187.39 29.541 187.089 29.9297C186.788 30.311 186.638 30.839 186.638 31.5137C186.638 32.1884 186.788 32.72 187.089 33.1087C187.39 33.49 187.808 33.6807 188.343 33.6807Z" fill="#3B4619"/>
<rect x="1657.92" y="15.2178" width="173.622" height="31" rx="4.5" fill="#0F1014" stroke="#1D1E27"/>
<path d="M1695.22 35.7681C1694.5 35.7681 1693.89 35.6337 1693.36 35.3651C1692.83 35.0964 1692.41 34.7281 1692.1 34.2601C1691.79 33.7834 1691.61 33.2331 1691.56 32.6091L1692.73 32.5311C1692.79 32.9904 1692.93 33.3804 1693.14 33.7011C1693.34 34.0217 1693.62 34.2644 1693.97 34.4291C1694.32 34.5937 1694.75 34.6761 1695.24 34.6761C1695.67 34.6761 1696.04 34.6197 1696.35 34.5071C1696.65 34.3944 1696.88 34.2297 1697.04 34.0131C1697.2 33.7964 1697.28 33.5321 1697.28 33.2201C1697.28 32.9341 1697.21 32.6827 1697.07 32.4661C1696.94 32.2407 1696.69 32.0371 1696.31 31.8551C1695.93 31.6644 1695.38 31.4781 1694.64 31.2961C1693.93 31.1141 1693.37 30.9147 1692.94 30.6981C1692.52 30.4814 1692.22 30.2171 1692.03 29.9051C1691.85 29.5931 1691.76 29.2074 1691.76 28.7481C1691.76 28.2281 1691.88 27.7731 1692.12 27.3831C1692.37 26.9844 1692.73 26.6767 1693.19 26.4601C1693.65 26.2347 1694.19 26.1221 1694.83 26.1221C1695.5 26.1221 1696.08 26.2521 1696.57 26.5121C1697.05 26.7634 1697.44 27.1101 1697.72 27.5521C1698.01 27.9941 1698.19 28.4967 1698.26 29.0601L1697.09 29.1381C1697.04 28.7654 1696.91 28.4361 1696.72 28.1501C1696.54 27.8554 1696.29 27.6257 1695.97 27.4611C1695.65 27.2964 1695.26 27.2141 1694.8 27.2141C1694.23 27.2141 1693.77 27.3527 1693.43 27.6301C1693.1 27.8987 1692.93 28.2541 1692.93 28.6961C1692.93 28.9821 1692.99 29.2204 1693.12 29.4111C1693.26 29.5931 1693.5 29.7577 1693.85 29.9051C1694.2 30.0437 1694.7 30.1954 1695.35 30.3601C1696.12 30.5507 1696.73 30.7804 1697.18 31.0491C1697.64 31.3091 1697.96 31.6124 1698.15 31.9591C1698.35 32.3057 1698.45 32.7001 1698.45 33.1421C1698.45 33.6794 1698.31 34.1474 1698.04 34.5461C1697.76 34.9361 1697.38 35.2394 1696.89 35.4561C1696.41 35.6641 1695.85 35.7681 1695.22 35.7681ZM1703.07 35.7161C1702.42 35.7161 1701.86 35.5687 1701.38 35.2741C1700.91 34.9794 1700.55 34.5634 1700.29 34.0261C1700.04 33.4801 1699.91 32.8431 1699.91 32.1151C1699.91 31.3871 1700.04 30.7544 1700.29 30.2171C1700.55 29.6797 1700.91 29.2637 1701.37 28.9691C1701.84 28.6657 1702.39 28.5141 1703.02 28.5141C1703.62 28.5141 1704.15 28.6571 1704.61 28.9431C1705.07 29.2204 1705.42 29.6277 1705.67 30.1651C1705.93 30.7024 1706.06 31.3567 1706.06 32.1281V32.4531H1701.06C1701.1 33.1897 1701.3 33.7444 1701.64 34.1171C1702 34.4897 1702.47 34.6761 1703.07 34.6761C1703.52 34.6761 1703.89 34.5721 1704.18 34.3641C1704.47 34.1474 1704.68 33.8657 1704.79 33.5191L1705.96 33.6101C1705.78 34.2254 1705.43 34.7324 1704.92 35.1311C1704.42 35.5211 1703.8 35.7161 1703.07 35.7161ZM1701.06 31.4911H1704.87C1704.81 30.8237 1704.62 30.3341 1704.28 30.0221C1703.95 29.7101 1703.53 29.5541 1703.02 29.5541C1702.49 29.5541 1702.05 29.7187 1701.71 30.0481C1701.37 30.3687 1701.15 30.8497 1701.06 31.4911ZM1709.58 35.7161C1708.87 35.7161 1708.3 35.5514 1707.87 35.2221C1707.46 34.8927 1707.25 34.4334 1707.25 33.8441C1707.25 33.2547 1707.42 32.7911 1707.77 32.4531C1708.12 32.1151 1708.67 31.8767 1709.42 31.7381L1711.87 31.2831C1711.87 30.7024 1711.73 30.2691 1711.45 29.9831C1711.18 29.6971 1710.77 29.5541 1710.23 29.5541C1709.75 29.5541 1709.37 29.6624 1709.1 29.8791C1708.82 30.0871 1708.63 30.3904 1708.52 30.7891L1707.37 30.6981C1707.5 30.0481 1707.81 29.5237 1708.3 29.1251C1708.81 28.7177 1709.45 28.5141 1710.23 28.5141C1711.11 28.5141 1711.79 28.7654 1712.26 29.2681C1712.72 29.7621 1712.96 30.4467 1712.96 31.3221V34.1691C1712.96 34.3251 1712.98 34.4377 1713.04 34.5071C1713.1 34.5677 1713.19 34.5981 1713.32 34.5981H1713.59V35.5601C1713.56 35.5687 1713.5 35.5731 1713.43 35.5731C1713.35 35.5817 1713.27 35.5861 1713.18 35.5861C1712.87 35.5861 1712.61 35.5384 1712.41 35.4431C1712.22 35.3391 1712.08 35.1831 1712 34.9751C1711.91 34.7584 1711.87 34.4767 1711.87 34.1301L1712 34.1561C1711.94 34.4507 1711.79 34.7194 1711.55 34.9621C1711.32 35.1961 1711.03 35.3824 1710.68 35.5211C1710.34 35.6511 1709.97 35.7161 1709.58 35.7161ZM1709.68 34.7541C1710.14 34.7541 1710.53 34.6674 1710.85 34.4941C1711.18 34.3121 1711.43 34.0694 1711.61 33.7661C1711.78 33.4541 1711.87 33.1074 1711.87 32.7261V32.2321L1709.63 32.6481C1709.16 32.7347 1708.84 32.8691 1708.65 33.0511C1708.48 33.2244 1708.39 33.4541 1708.39 33.7401C1708.39 34.0607 1708.51 34.3121 1708.73 34.4941C1708.97 34.6674 1709.28 34.7541 1709.68 34.7541ZM1714.83 35.5601V28.6701H1715.79L1715.84 30.4121L1715.74 30.3731C1715.82 29.7837 1716.01 29.3547 1716.3 29.0861C1716.59 28.8087 1716.98 28.6701 1717.47 28.6701H1718.14V29.7101H1717.48C1717.13 29.7101 1716.84 29.7751 1716.61 29.9051C1716.38 30.0264 1716.21 30.2127 1716.09 30.4641C1715.98 30.7067 1715.92 31.0187 1715.92 31.4001V35.5601H1714.83ZM1721.92 35.7161C1721.28 35.7161 1720.72 35.5687 1720.25 35.2741C1719.78 34.9794 1719.42 34.5634 1719.16 34.0261C1718.9 33.4801 1718.77 32.8431 1718.77 32.1151C1718.77 31.3871 1718.9 30.7544 1719.16 30.2171C1719.42 29.6797 1719.78 29.2637 1720.25 28.9691C1720.72 28.6657 1721.28 28.5141 1721.92 28.5141C1722.45 28.5141 1722.92 28.6094 1723.33 28.8001C1723.74 28.9821 1724.08 29.2507 1724.34 29.6061C1724.6 29.9614 1724.77 30.3947 1724.85 30.9061L1723.71 30.9841C1723.63 30.5247 1723.43 30.1737 1723.11 29.9311C1722.79 29.6797 1722.39 29.5541 1721.92 29.5541C1721.29 29.5541 1720.8 29.7837 1720.44 30.2431C1720.09 30.6937 1719.91 31.3177 1719.91 32.1151C1719.91 32.9124 1720.09 33.5407 1720.44 34.0001C1720.8 34.4507 1721.29 34.6761 1721.92 34.6761C1722.39 34.6761 1722.79 34.5461 1723.11 34.2861C1723.43 34.0261 1723.63 33.6361 1723.71 33.1161L1724.85 33.1941C1724.77 33.7054 1724.6 34.1517 1724.34 34.5331C1724.08 34.9057 1723.74 35.1961 1723.33 35.4041C1722.92 35.6121 1722.45 35.7161 1721.92 35.7161ZM1726.2 35.5601V26.3301H1727.3V30.1911L1727.17 30.1651C1727.25 29.7837 1727.4 29.4717 1727.61 29.2291C1727.82 28.9864 1728.07 28.8087 1728.37 28.6961C1728.68 28.5747 1729.01 28.5141 1729.38 28.5141C1729.87 28.5141 1730.29 28.6267 1730.62 28.8521C1730.97 29.0687 1731.23 29.3764 1731.4 29.7751C1731.59 30.1651 1731.68 30.6157 1731.68 31.1271V35.5601H1730.58V31.4391C1730.58 30.7717 1730.46 30.2777 1730.22 29.9571C1729.99 29.6364 1729.63 29.4761 1729.14 29.4761C1728.59 29.4761 1728.14 29.6451 1727.8 29.9831C1727.46 30.3211 1727.3 30.8107 1727.3 31.4521V35.5601H1726.2ZM1733.29 35.5601V34.0911H1734.76V35.5601H1733.29ZM1735.9 35.5601V34.0911H1737.37V35.5601H1735.9ZM1738.52 35.5601V34.0911H1739.99V35.5601H1738.52Z" fill="#717489"/>
<path d="M1682 37.2646L1679.13 34.3822M1680.67 30.5613C1680.67 33.523 1678.28 35.9239 1675.33 35.9239C1672.39 35.9239 1670 33.523 1670 30.5613C1670 27.5996 1672.39 25.1987 1675.33 25.1987C1678.28 25.1987 1680.67 27.5996 1680.67 30.5613Z" stroke="#717489" stroke-linecap="round" stroke-linejoin="round"/>
<path d="M255.85 35.3501L259.501 31.6787L255.85 28.0073" stroke="#707388" stroke-linecap="round" stroke-linejoin="round"/>
<path d="M274.677 35.853V26.623H277.849C278.941 26.623 279.76 26.8224 280.306 27.221C280.852 27.6197 281.125 28.248 281.125 29.106C281.125 29.5047 281.038 29.8557 280.865 30.159C280.692 30.4624 280.445 30.7007 280.124 30.874C279.803 31.0387 279.422 31.121 278.98 31.121L278.967 31.043C279.756 31.043 280.375 31.2554 280.826 31.68C281.285 32.096 281.515 32.642 281.515 33.318C281.515 34.1587 281.242 34.7914 280.696 35.216C280.15 35.6407 279.374 35.853 278.369 35.853H274.677ZM275.795 34.761H278.369C279.002 34.761 279.487 34.631 279.825 34.371C280.172 34.111 280.345 33.7384 280.345 33.253C280.345 32.7677 280.172 32.3907 279.825 32.122C279.487 31.8447 279.002 31.706 278.369 31.706H275.795V34.761ZM275.795 30.614H277.849C278.525 30.614 279.045 30.4884 279.409 30.237C279.773 29.977 279.955 29.6174 279.955 29.158C279.955 28.6727 279.777 28.313 279.422 28.079C279.075 27.8364 278.551 27.715 277.849 27.715H275.795V30.614ZM283.255 35.853V26.623H284.347V32.668L287.701 28.963H289.157L286.44 31.888L289.274 35.853H287.948L285.699 32.629L284.347 34.059V35.853H283.255ZM291.818 35.853C291.42 35.853 291.095 35.749 290.843 35.541C290.592 35.333 290.466 35.0037 290.466 34.553V26.623H291.558V34.462C291.558 34.6007 291.593 34.709 291.662 34.787C291.74 34.8564 291.849 34.891 291.987 34.891H292.585V35.853H291.818ZM293.831 35.853V28.963H294.923V35.853H293.831ZM293.805 27.884V26.61H294.949V27.884H293.805ZM299.006 35.853C298.382 35.853 297.918 35.71 297.615 35.424C297.32 35.138 297.173 34.6917 297.173 34.085V27.351H298.265V34.059C298.265 34.371 298.334 34.5877 298.473 34.709C298.612 34.8304 298.824 34.891 299.11 34.891H300.098V35.853H299.006ZM296.159 29.925V28.963H300.098V29.925H296.159ZM304.981 35.853V26.623H308.296C309.327 26.623 310.129 26.87 310.701 27.364C311.273 27.858 311.559 28.5427 311.559 29.418C311.559 30.0074 311.429 30.5187 311.169 30.952C310.909 31.3767 310.536 31.7017 310.051 31.927C309.565 32.1524 308.98 32.265 308.296 32.265H306.099V35.853H304.981ZM306.099 31.173H308.296C308.989 31.173 309.509 31.0257 309.856 30.731C310.211 30.4364 310.389 29.9987 310.389 29.418C310.389 28.8547 310.211 28.43 309.856 28.144C309.509 27.858 308.989 27.715 308.296 27.715H306.099V31.173ZM314.632 35.853C314.233 35.853 313.908 35.749 313.657 35.541C313.405 35.333 313.28 35.0037 313.28 34.553V26.623H314.372V34.462C314.372 34.6007 314.406 34.709 314.476 34.787C314.554 34.8564 314.662 34.891 314.801 34.891H315.399V35.853H314.632ZM318.605 36.009C317.894 36.009 317.326 35.8444 316.902 35.515C316.486 35.1857 316.278 34.7264 316.278 34.137C316.278 33.5477 316.451 33.084 316.798 32.746C317.144 32.408 317.695 32.1697 318.449 32.031L320.893 31.576C320.893 30.9954 320.754 30.562 320.477 30.276C320.208 29.99 319.801 29.847 319.255 29.847C318.778 29.847 318.401 29.9554 318.124 30.172C317.846 30.38 317.656 30.6834 317.552 31.082L316.395 30.991C316.525 30.341 316.837 29.8167 317.331 29.418C317.833 29.0107 318.475 28.807 319.255 28.807C320.139 28.807 320.815 29.0584 321.283 29.561C321.751 30.055 321.985 30.7397 321.985 31.615V34.462C321.985 34.618 322.011 34.7307 322.063 34.8C322.123 34.8607 322.219 34.891 322.349 34.891H322.622V35.853C322.587 35.8617 322.531 35.866 322.453 35.866C322.375 35.8747 322.292 35.879 322.206 35.879C321.894 35.879 321.638 35.8314 321.439 35.736C321.248 35.632 321.109 35.476 321.023 35.268C320.936 35.0514 320.893 34.7697 320.893 34.423L321.023 34.449C320.962 34.7437 320.815 35.0124 320.581 35.255C320.347 35.489 320.056 35.6754 319.71 35.814C319.363 35.944 318.995 36.009 318.605 36.009ZM318.709 35.047C319.168 35.047 319.558 34.9604 319.879 34.787C320.208 34.605 320.459 34.3624 320.633 34.059C320.806 33.747 320.893 33.4004 320.893 33.019V32.525L318.657 32.941C318.189 33.0277 317.864 33.162 317.682 33.344C317.508 33.5174 317.422 33.747 317.422 34.033C317.422 34.3537 317.534 34.605 317.76 34.787C317.994 34.9604 318.31 35.047 318.709 35.047ZM323.887 37.803V36.841H324.68C324.923 36.841 325.101 36.802 325.213 36.724C325.335 36.6547 325.426 36.5377 325.486 36.373L325.733 35.723H325.356L322.834 28.963H324.03L326.084 34.709L328.047 28.963H329.243L326.448 36.724C326.318 37.0967 326.123 37.3697 325.863 37.543C325.603 37.7164 325.244 37.803 324.784 37.803H323.887ZM332.841 37.959C332.347 37.959 331.901 37.8767 331.502 37.712C331.103 37.5474 330.77 37.3134 330.501 37.01C330.232 36.7067 330.05 36.3557 329.955 35.957L331.099 35.879C331.203 36.1997 331.385 36.451 331.645 36.633C331.914 36.8237 332.312 36.919 332.841 36.919C333.465 36.919 333.942 36.7934 334.271 36.542C334.609 36.2907 334.778 35.9137 334.778 35.411V34.293C334.613 34.657 334.349 34.9474 333.985 35.164C333.621 35.3807 333.214 35.489 332.763 35.489C332.182 35.489 331.662 35.346 331.203 35.06C330.752 34.774 330.397 34.3797 330.137 33.877C329.886 33.3744 329.76 32.798 329.76 32.148C329.76 31.4894 329.886 30.913 330.137 30.419C330.388 29.9164 330.735 29.522 331.177 29.236C331.628 28.95 332.139 28.807 332.711 28.807C333.196 28.807 333.63 28.9197 334.011 29.145C334.401 29.3704 334.674 29.6737 334.83 30.055V28.963H335.87V35.385C335.87 35.9224 335.749 36.3817 335.506 36.763C335.263 37.153 334.917 37.4477 334.466 37.647C334.015 37.855 333.474 37.959 332.841 37.959ZM332.815 34.449C333.404 34.449 333.877 34.2454 334.232 33.838C334.587 33.422 334.769 32.8587 334.778 32.148C334.787 31.6714 334.709 31.264 334.544 30.926C334.388 30.5794 334.158 30.315 333.855 30.133C333.56 29.9424 333.214 29.847 332.815 29.847C332.208 29.847 331.736 30.055 331.398 30.471C331.069 30.8784 330.904 31.4374 330.904 32.148C330.904 32.8587 331.073 33.422 331.411 33.838C331.758 34.2454 332.226 34.449 332.815 34.449ZM337.947 35.853V28.963H338.909L338.961 30.705L338.857 30.666C338.943 30.0767 339.13 29.6477 339.416 29.379C339.71 29.1017 340.1 28.963 340.586 28.963H341.262V30.003H340.599C340.252 30.003 339.962 30.068 339.728 30.198C339.502 30.3194 339.329 30.5057 339.208 30.757C339.095 30.9997 339.039 31.3117 339.039 31.693V35.853H337.947ZM345.043 36.009C344.41 36.009 343.856 35.8617 343.379 35.567C342.902 35.2724 342.534 34.8564 342.274 34.319C342.014 33.773 341.884 33.136 341.884 32.408C341.884 31.6714 342.014 31.0344 342.274 30.497C342.534 29.9597 342.902 29.5437 343.379 29.249C343.856 28.9544 344.41 28.807 345.043 28.807C345.676 28.807 346.226 28.9544 346.694 29.249C347.171 29.5437 347.539 29.9597 347.799 30.497C348.059 31.0344 348.189 31.6714 348.189 32.408C348.189 33.136 348.059 33.773 347.799 34.319C347.539 34.8564 347.171 35.2724 346.694 35.567C346.226 35.8617 345.676 36.009 345.043 36.009ZM345.043 34.969C345.676 34.969 346.165 34.7437 346.512 34.293C346.867 33.8337 347.045 33.2054 347.045 32.408C347.045 31.6107 346.867 30.9867 346.512 30.536C346.165 30.0767 345.676 29.847 345.043 29.847C344.41 29.847 343.916 30.0767 343.561 30.536C343.206 30.9867 343.028 31.6107 343.028 32.408C343.028 33.2054 343.206 33.8337 343.561 34.293C343.916 34.7437 344.41 34.969 345.043 34.969ZM351.939 36.009C351.255 36.009 350.704 35.7794 350.288 35.32C349.881 34.852 349.677 34.2107 349.677 33.396V28.963H350.769V33.097C350.769 33.7644 350.886 34.2584 351.12 34.579C351.363 34.891 351.731 35.047 352.225 35.047C352.771 35.047 353.2 34.8737 353.512 34.527C353.824 34.1717 353.98 33.6864 353.98 33.071V28.963H355.072V35.853H354.032V34.15L354.201 34.241C354.063 34.8044 353.798 35.242 353.408 35.554C353.018 35.8574 352.529 36.009 351.939 36.009ZM357.155 35.853V28.963H358.156L358.195 30.718L358.065 30.601C358.151 30.1937 358.303 29.86 358.52 29.6C358.736 29.3314 358.996 29.132 359.3 29.002C359.612 28.872 359.945 28.807 360.301 28.807C360.829 28.807 361.263 28.924 361.601 29.158C361.947 29.392 362.203 29.7084 362.368 30.107C362.541 30.497 362.628 30.9347 362.628 31.42V35.853H361.536V31.732C361.536 31.3074 361.484 30.952 361.38 30.666C361.284 30.3714 361.128 30.1504 360.912 30.003C360.695 29.847 360.413 29.769 360.067 29.769C359.538 29.769 359.1 29.938 358.754 30.276C358.416 30.6054 358.247 31.0907 358.247 31.732V35.853H357.155ZM367 36.009C366.402 36.009 365.882 35.8617 365.44 35.567C365.007 35.2724 364.673 34.8564 364.439 34.319C364.205 33.7817 364.088 33.1447 364.088 32.408C364.088 31.6714 364.205 31.0344 364.439 30.497C364.673 29.9597 365.007 29.5437 365.44 29.249C365.882 28.9544 366.402 28.807 367 28.807C367.459 28.807 367.88 28.9067 368.261 29.106C368.642 29.2967 368.928 29.5697 369.119 29.925V26.623H370.211V35.853H369.223L369.184 34.813C368.993 35.1857 368.703 35.4804 368.313 35.697C367.923 35.905 367.485 36.009 367 36.009ZM367.221 34.969C367.628 34.969 367.971 34.865 368.248 34.657C368.534 34.449 368.751 34.1544 368.898 33.773C369.045 33.383 369.119 32.928 369.119 32.408C369.119 31.8707 369.045 31.4114 368.898 31.03C368.751 30.6487 368.534 30.3584 368.248 30.159C367.971 29.951 367.628 29.847 367.221 29.847C366.614 29.847 366.129 30.0767 365.765 30.536C365.41 30.9867 365.232 31.6107 365.232 32.408C365.232 33.1967 365.41 33.8207 365.765 34.28C366.129 34.7394 366.614 34.969 367.221 34.969Z" fill="white"/>
<path d="M393.245 32.9564L396.323 36.0512L399.4 32.9564M393.245 29.2427L396.323 26.1479L399.4 29.2427" stroke="#707388" stroke-linecap="round" stroke-linejoin="round"/>
<rect x="1845.32" y="15.2178" width="31" height="31" rx="4.5" fill="#0F1014" stroke="#1D1E27"/>
<path d="M1859.69 37.263C1859.8 37.4671 1859.96 37.6373 1860.16 37.7558C1860.36 37.8744 1860.59 37.9369 1860.82 37.9369C1861.05 37.9369 1861.28 37.8744 1861.48 37.7558C1861.68 37.6373 1861.84 37.4671 1861.95 37.263M1856.82 28.5488C1856.82 27.4821 1857.24 26.4591 1857.99 25.7049C1858.74 24.9506 1859.76 24.5269 1860.82 24.5269C1861.88 24.5269 1862.9 24.9506 1863.65 25.7049C1864.4 26.4591 1864.82 27.4821 1864.82 28.5488C1864.82 33.2411 1866.82 34.5817 1866.82 34.5817H1854.82C1854.82 34.5817 1856.82 33.2411 1856.82 28.5488Z" stroke="#717489" stroke-linecap="round" stroke-linejoin="round"/>
<circle cx="1904.74" cy="31.0527" r="15.5" fill="url(#paint6_radial_371_80)" stroke="#1D1E27"/>
<defs>
<linearGradient id="paint0_linear_371_80" x1="41.9023" y1="30.9287" x2="26.9023" y2="30.9287" gradientUnits="userSpaceOnUse">
<stop stop-color="white"/>
<stop offset="0.482775" stop-color="white" stop-opacity="0.8"/>
<stop offset="1" stop-color="white"/>
</linearGradient>
<linearGradient id="paint1_linear_371_80" x1="34.4023" y1="45.9287" x2="43.7773" y2="27.2086" gradientUnits="userSpaceOnUse">
<stop stop-color="white"/>
<stop offset="1" stop-color="white" stop-opacity="0.5"/>
</linearGradient>
<linearGradient id="paint2_linear_371_80" x1="34.4023" y1="45.9287" x2="25.0273" y2="27.2086" gradientUnits="userSpaceOnUse">
<stop stop-color="#787878" stop-opacity="0"/>
<stop offset="0.745192" stop-color="#787878" stop-opacity="0.5"/>
</linearGradient>
<linearGradient id="paint3_linear_371_80" x1="34.4023" y1="15.9287" x2="25.0273" y2="34.6488" gradientUnits="userSpaceOnUse">
<stop stop-color="white"/>
<stop offset="1" stop-color="white" stop-opacity="0.5"/>
</linearGradient>
<linearGradient id="paint4_linear_371_80" x1="34.4023" y1="15.9287" x2="43.7773" y2="34.6488" gradientUnits="userSpaceOnUse">
<stop stop-color="#787878" stop-opacity="0"/>
<stop offset="0.75" stop-color="#787878" stop-opacity="0.5"/>
</linearGradient>
<radialGradient id="paint5_radial_371_80" cx="0" cy="0" r="1" gradientUnits="userSpaceOnUse" gradientTransform="translate(75.7541 27.6267) rotate(47.6195) scale(10.751)">
<stop stop-color="#00FBFF"/>
<stop offset="1" stop-color="#251E74"/>
</radialGradient>
<radialGradient id="paint6_radial_371_80" cx="0" cy="0" r="1" gradientUnits="userSpaceOnUse" gradientTransform="translate(1895.94 20.8411) rotate(49.0957) scale(30.633)">
<stop stop-color="#18CDFF"/>
<stop offset="1" stop-color="#002E79"/>
</radialGradient>
</defs>
</svg>
