<svg width="156" height="30" viewBox="0 0 156 30" fill="none" xmlns="http://www.w3.org/2000/svg">
<g clip-path="url(#clip0_222_125)">
<path d="M40.6504 17.7241C40.8112 19.2112 42.1792 21.7604 46.1493 21.7604C49.6095 21.7604 51.2729 19.5829 51.2729 17.4586C51.2729 15.5466 49.9583 13.9799 47.3565 13.4488L45.4786 13.0505C44.7545 12.9177 44.2717 12.5194 44.2717 11.8821C44.2717 11.1385 45.0227 10.5809 45.9616 10.5809C47.4636 10.5809 48.027 11.5634 48.1344 12.3335L51.1118 11.6697C50.951 10.2623 49.6901 7.89893 45.9348 7.89893C43.0913 7.89893 40.9992 9.8374 40.9992 12.1742C40.9992 14.0064 42.1524 15.5201 44.7007 16.0777L46.4444 16.476C47.4636 16.6884 47.8661 17.1665 47.8661 17.7507C47.8661 18.4411 47.3028 19.0518 46.1225 19.0518C44.5668 19.0518 43.7886 18.0958 43.7084 17.0602L40.6504 17.7241Z" fill="white"/>
<path d="M62.6741 21.3622H66.0808C66.0271 20.9108 65.9466 20.008 65.9466 18.9988V8.29736H62.3787V15.892C62.3787 17.4056 61.4669 18.4678 59.8843 18.4678C58.2212 18.4678 57.4699 17.2994 57.4699 15.8389V8.29736H53.9023V16.5559C53.9023 19.3972 55.7263 21.7074 58.9185 21.7074C60.3131 21.7074 61.8428 21.1764 62.5669 19.9548C62.5669 20.4859 62.6204 21.0967 62.6741 21.3622Z" fill="white"/>
<path d="M73.3212 26.4077V20.0877C73.9648 20.964 75.3063 21.681 77.1305 21.681C80.8589 21.681 83.3533 18.7599 83.3533 14.8033C83.3533 10.9264 81.1271 8.00537 77.2645 8.00537C75.2797 8.00537 73.8043 8.88164 73.2141 9.89075V8.29746H69.7539V26.4077H73.3212ZM79.8394 14.8299C79.8394 17.1667 78.3911 18.521 76.5669 18.521C74.7432 18.521 73.2678 17.1402 73.2678 14.8299C73.2678 12.5197 74.7432 11.1654 76.5669 11.1654C78.3911 11.1654 79.8394 12.5197 79.8394 14.8299Z" fill="white"/>
<path d="M85.374 17.8038C85.374 19.8485 87.0906 21.7339 89.9074 21.7339C91.8651 21.7339 93.126 20.831 93.7964 19.7953C93.7964 20.2999 93.8501 21.0168 93.9307 21.3621H97.2032C97.1226 20.9106 97.0426 19.9812 97.0426 19.2908V12.8646C97.0426 10.2357 95.4866 7.89893 91.3023 7.89893C87.7613 7.89893 85.8565 10.156 85.6423 12.2007L88.8074 12.8646C88.9148 11.7228 89.7732 10.7402 91.3286 10.7402C92.8311 10.7402 93.5553 11.5103 93.5553 12.4397C93.5553 12.8912 93.3142 13.263 92.5629 13.3691L89.3173 13.8471C87.1177 14.1658 85.374 15.4669 85.374 17.8038ZM90.6582 19.1049C89.5049 19.1049 88.9414 18.3614 88.9414 17.5913C88.9414 16.5823 89.6655 16.0777 90.5779 15.945L93.5553 15.4935V16.0777C93.5553 18.388 92.1604 19.1049 90.6582 19.1049Z" fill="white"/>
<path d="M104.099 21.3623V19.769C104.796 20.8843 106.191 21.6809 108.015 21.6809C111.771 21.6809 114.239 18.7333 114.239 14.7767C114.239 10.8997 112.012 7.95219 108.149 7.95219C106.191 7.95219 104.743 8.80194 104.153 9.7313V2.13672H100.639V21.3623H104.099ZM110.671 14.8032C110.671 17.1932 109.222 18.5209 107.398 18.5209C105.601 18.5209 104.099 17.1667 104.099 14.8032C104.099 12.4133 105.601 11.1122 107.398 11.1122C109.222 11.1122 110.671 12.4133 110.671 14.8032Z" fill="white"/>
<path d="M116.259 17.8038C116.259 19.8485 117.975 21.7339 120.792 21.7339C122.75 21.7339 124.011 20.831 124.681 19.7953C124.681 20.2999 124.735 21.0168 124.815 21.3621H128.088C128.008 20.9106 127.927 19.9812 127.927 19.2908V12.8646C127.927 10.2357 126.371 7.89893 122.187 7.89893C118.646 7.89893 116.742 10.156 116.527 12.2007L119.692 12.8646C119.8 11.7228 120.658 10.7402 122.213 10.7402C123.716 10.7402 124.44 11.5103 124.44 12.4397C124.44 12.8912 124.199 13.263 123.447 13.3691L120.202 13.8471C118.002 14.1658 116.259 15.4669 116.259 17.8038ZM121.543 19.1049C120.39 19.1049 119.826 18.3614 119.826 17.5913C119.826 16.5823 120.55 16.0777 121.463 15.945L124.44 15.4935V16.0777C124.44 18.388 123.045 19.1049 121.543 19.1049Z" fill="white"/>
<path d="M130.396 17.7241C130.557 19.2112 131.925 21.7604 135.895 21.7604C139.356 21.7604 141.018 19.5829 141.018 17.4586C141.018 15.5466 139.704 13.9799 137.102 13.4488L135.224 13.0505C134.5 12.9177 134.018 12.5194 134.018 11.8821C134.018 11.1385 134.769 10.5809 135.707 10.5809C137.21 10.5809 137.773 11.5634 137.881 12.3335L140.858 11.6697C140.697 10.2623 139.436 7.89893 135.681 7.89893C132.837 7.89893 130.745 9.8374 130.745 12.1742C130.745 14.0064 131.898 15.5201 134.447 16.0777L136.191 16.476C137.21 16.6884 137.612 17.1665 137.612 17.7507C137.612 18.4411 137.049 19.0518 135.869 19.0518C134.313 19.0518 133.535 18.0958 133.454 17.0602L130.396 17.7241Z" fill="white"/>
<path d="M146.437 13.3426C146.518 12.1476 147.537 10.7668 149.388 10.7668C151.427 10.7668 152.285 12.0414 152.339 13.3426H146.437ZM152.688 16.7416C152.258 17.91 151.346 18.7332 149.683 18.7332C147.913 18.7332 146.437 17.4851 146.357 15.7591H155.799C155.799 15.7059 155.853 15.1749 155.853 14.6703C155.853 10.4747 153.412 7.89893 149.334 7.89893C145.955 7.89893 142.843 10.6074 142.843 14.7765C142.843 19.1846 146.035 21.7604 149.656 21.7604C152.902 21.7604 154.994 19.875 155.665 17.6179L152.688 16.7416Z" fill="white"/>
<path d="M17.1057 29.2791C16.338 30.2351 14.7812 29.7113 14.7627 28.4906L14.4922 10.6362H26.6338C28.833 10.6362 30.0595 13.1478 28.692 14.8508L17.1057 29.2791Z" fill="url(#paint0_linear_222_125)"/>
<path d="M17.1057 29.2791C16.338 30.2351 14.7812 29.7113 14.7627 28.4906L14.4922 10.6362H26.6338C28.833 10.6362 30.0595 13.1478 28.692 14.8508L17.1057 29.2791Z" fill="url(#paint1_linear_222_125)" fill-opacity="0.2"/>
<path d="M12.1679 0.549918C12.9357 -0.406206 14.4925 0.117681 14.511 1.33841L14.6296 19.1927H2.6399C0.440661 19.1927 -0.785893 16.6812 0.581657 14.9782L12.1679 0.549918Z" fill="#3ECF8E"/>
</g>
<defs>
<linearGradient id="paint0_linear_222_125" x1="14.4922" y1="14.595" x2="25.2465" y2="19.1565" gradientUnits="userSpaceOnUse">
<stop stop-color="#249361"/>
<stop offset="1" stop-color="#3ECF8E"/>
</linearGradient>
<linearGradient id="paint1_linear_222_125" x1="9.70801" y1="8.11817" x2="14.5431" y2="17.3234" gradientUnits="userSpaceOnUse">
<stop/>
<stop offset="1" stop-opacity="0"/>
</linearGradient>
<clipPath id="clip0_222_125">
<rect width="156" height="30" fill="white"/>
</clipPath>
</defs>
</svg>
